<mxfile host="app.diagrams.net" modified="2024-07-02T00:25:36.670Z" agent="Mozilla/5.0 (Windows NT 10.0; Win64; x64) AppleWebKit/537.36 (KHTML, like Gecko) Chrome/126.0.0.0 Safari/537.36" etag="xxQZ1-LFLmjR5xTK2U83" version="24.6.4" type="google">
  <diagram id="R2lEEEUBdFMjLlhIrx00" name="Page-1">
    <mxGraphModel grid="1" page="1" gridSize="10" guides="1" tooltips="1" connect="1" arrows="1" fold="1" pageScale="1" pageWidth="850" pageHeight="1100" math="0" shadow="0" extFonts="Permanent Marker^https://fonts.googleapis.com/css?family=Permanent+Marker">
      <root>
        <mxCell id="0" />
        <mxCell id="1" parent="0" />
        <mxCell id="_e2x4P_5BLsxtzpZjAKO-2" value="User" style="rounded=0;whiteSpace=wrap;html=1;" vertex="1" parent="1">
          <mxGeometry x="460.63" y="2980" width="120" height="60" as="geometry" />
        </mxCell>
        <mxCell id="_e2x4P_5BLsxtzpZjAKO-5" value="&lt;u&gt;User_ID&lt;/u&gt;" style="ellipse;whiteSpace=wrap;html=1;" vertex="1" parent="1">
          <mxGeometry x="122.5" y="2835" width="120" height="50" as="geometry" />
        </mxCell>
        <mxCell id="_e2x4P_5BLsxtzpZjAKO-9" value="Address" style="ellipse;whiteSpace=wrap;html=1;" vertex="1" parent="1">
          <mxGeometry x="760" y="3195" width="120" height="50" as="geometry" />
        </mxCell>
        <mxCell id="_e2x4P_5BLsxtzpZjAKO-10" value="Email" style="ellipse;whiteSpace=wrap;html=1;" vertex="1" parent="1">
          <mxGeometry x="772.5" y="2770" width="120" height="50" as="geometry" />
        </mxCell>
        <mxCell id="_e2x4P_5BLsxtzpZjAKO-11" value="Name" style="ellipse;whiteSpace=wrap;html=1;" vertex="1" parent="1">
          <mxGeometry x="120" y="2750" width="120" height="50" as="geometry" />
        </mxCell>
        <mxCell id="_e2x4P_5BLsxtzpZjAKO-18" value="" style="endArrow=none;html=1;rounded=0;entryX=1;entryY=0.5;entryDx=0;entryDy=0;exitX=0;exitY=0;exitDx=0;exitDy=0;" edge="1" parent="1" source="_e2x4P_5BLsxtzpZjAKO-2" target="_e2x4P_5BLsxtzpZjAKO-11">
          <mxGeometry width="50" height="50" relative="1" as="geometry">
            <mxPoint x="597.5" y="2990" as="sourcePoint" />
            <mxPoint x="647.5" y="2940" as="targetPoint" />
          </mxGeometry>
        </mxCell>
        <mxCell id="_e2x4P_5BLsxtzpZjAKO-20" value="" style="endArrow=none;html=1;rounded=0;exitX=1;exitY=0.5;exitDx=0;exitDy=0;entryX=0;entryY=0;entryDx=0;entryDy=0;" edge="1" parent="1" source="_e2x4P_5BLsxtzpZjAKO-5" target="_e2x4P_5BLsxtzpZjAKO-2">
          <mxGeometry width="50" height="50" relative="1" as="geometry">
            <mxPoint x="617.5" y="3010" as="sourcePoint" />
            <mxPoint x="462.5" y="3005" as="targetPoint" />
          </mxGeometry>
        </mxCell>
        <mxCell id="_e2x4P_5BLsxtzpZjAKO-21" value="" style="endArrow=none;html=1;rounded=0;exitX=1;exitY=0.5;exitDx=0;exitDy=0;entryX=0;entryY=1;entryDx=0;entryDy=0;" edge="1" parent="1" source="ma1lkNGCZDMTtBgCC7WY-9" target="_e2x4P_5BLsxtzpZjAKO-2">
          <mxGeometry width="50" height="50" relative="1" as="geometry">
            <mxPoint x="245" y="3185" as="sourcePoint" />
            <mxPoint x="677.5" y="2970" as="targetPoint" />
          </mxGeometry>
        </mxCell>
        <mxCell id="_e2x4P_5BLsxtzpZjAKO-22" value="" style="endArrow=none;html=1;rounded=0;exitX=0;exitY=0.5;exitDx=0;exitDy=0;entryX=1;entryY=0;entryDx=0;entryDy=0;" edge="1" parent="1" source="_e2x4P_5BLsxtzpZjAKO-10" target="_e2x4P_5BLsxtzpZjAKO-2">
          <mxGeometry width="50" height="50" relative="1" as="geometry">
            <mxPoint x="637.5" y="3030" as="sourcePoint" />
            <mxPoint x="687.5" y="2980" as="targetPoint" />
          </mxGeometry>
        </mxCell>
        <mxCell id="_e2x4P_5BLsxtzpZjAKO-24" value="" style="endArrow=none;html=1;rounded=0;exitX=0;exitY=0.5;exitDx=0;exitDy=0;entryX=1;entryY=1;entryDx=0;entryDy=0;" edge="1" parent="1" source="_e2x4P_5BLsxtzpZjAKO-9" target="_e2x4P_5BLsxtzpZjAKO-2">
          <mxGeometry width="50" height="50" relative="1" as="geometry">
            <mxPoint x="657.5" y="3050" as="sourcePoint" />
            <mxPoint x="707.5" y="3000" as="targetPoint" />
          </mxGeometry>
        </mxCell>
        <mxCell id="_e2x4P_5BLsxtzpZjAKO-55" value="Employment_Opportunity" style="rounded=0;whiteSpace=wrap;html=1;" vertex="1" parent="1">
          <mxGeometry x="-1175" y="920" width="160" height="60" as="geometry" />
        </mxCell>
        <mxCell id="_e2x4P_5BLsxtzpZjAKO-56" value="&lt;u&gt;&lt;b&gt;Opportunity_ID&lt;/b&gt;&lt;/u&gt;" style="ellipse;whiteSpace=wrap;html=1;" vertex="1" parent="1">
          <mxGeometry x="-1435" y="805" width="120" height="50" as="geometry" />
        </mxCell>
        <mxCell id="_e2x4P_5BLsxtzpZjAKO-57" value="Application_Deadline" style="ellipse;whiteSpace=wrap;html=1;" vertex="1" parent="1">
          <mxGeometry x="-930" y="1030" width="120" height="50" as="geometry" />
        </mxCell>
        <mxCell id="_e2x4P_5BLsxtzpZjAKO-59" value="Position_title" style="ellipse;whiteSpace=wrap;html=1;" vertex="1" parent="1">
          <mxGeometry x="-1437.5" y="710" width="120" height="50" as="geometry" />
        </mxCell>
        <mxCell id="_e2x4P_5BLsxtzpZjAKO-60" value="location" style="ellipse;whiteSpace=wrap;html=1;" vertex="1" parent="1">
          <mxGeometry x="-1437.5" y="1080" width="120" height="50" as="geometry" />
        </mxCell>
        <mxCell id="_e2x4P_5BLsxtzpZjAKO-61" value="Salary_range" style="ellipse;whiteSpace=wrap;html=1;" vertex="1" parent="1">
          <mxGeometry x="-930" y="1110" width="120" height="50" as="geometry" />
        </mxCell>
        <mxCell id="_e2x4P_5BLsxtzpZjAKO-62" value="Description" style="ellipse;whiteSpace=wrap;html=1;" vertex="1" parent="1">
          <mxGeometry x="-930" y="805" width="120" height="50" as="geometry" />
        </mxCell>
        <mxCell id="_e2x4P_5BLsxtzpZjAKO-63" value="" style="endArrow=none;html=1;rounded=0;entryX=1;entryY=0.5;entryDx=0;entryDy=0;exitX=0;exitY=0;exitDx=0;exitDy=0;" edge="1" parent="1" source="_e2x4P_5BLsxtzpZjAKO-55" target="_e2x4P_5BLsxtzpZjAKO-59">
          <mxGeometry width="50" height="50" relative="1" as="geometry">
            <mxPoint x="-1025" y="930" as="sourcePoint" />
            <mxPoint x="-975" y="880" as="targetPoint" />
          </mxGeometry>
        </mxCell>
        <mxCell id="_e2x4P_5BLsxtzpZjAKO-64" value="" style="endArrow=none;html=1;rounded=0;entryX=0;entryY=0.5;entryDx=0;entryDy=0;exitX=1;exitY=0;exitDx=0;exitDy=0;" edge="1" parent="1" source="_e2x4P_5BLsxtzpZjAKO-55" target="_e2x4P_5BLsxtzpZjAKO-62">
          <mxGeometry width="50" height="50" relative="1" as="geometry">
            <mxPoint x="-1345" y="860" as="sourcePoint" />
            <mxPoint x="-965" y="890" as="targetPoint" />
          </mxGeometry>
        </mxCell>
        <mxCell id="_e2x4P_5BLsxtzpZjAKO-65" value="" style="endArrow=none;html=1;rounded=0;exitX=1;exitY=0.5;exitDx=0;exitDy=0;entryX=0;entryY=0;entryDx=0;entryDy=0;" edge="1" parent="1" source="_e2x4P_5BLsxtzpZjAKO-56" target="_e2x4P_5BLsxtzpZjAKO-55">
          <mxGeometry width="50" height="50" relative="1" as="geometry">
            <mxPoint x="-1005" y="950" as="sourcePoint" />
            <mxPoint x="-955" y="900" as="targetPoint" />
          </mxGeometry>
        </mxCell>
        <mxCell id="_e2x4P_5BLsxtzpZjAKO-66" value="" style="endArrow=none;html=1;rounded=0;exitX=1;exitY=0.5;exitDx=0;exitDy=0;entryX=0;entryY=0.75;entryDx=0;entryDy=0;" edge="1" parent="1" source="_e2x4P_5BLsxtzpZjAKO-60" target="_e2x4P_5BLsxtzpZjAKO-55">
          <mxGeometry width="50" height="50" relative="1" as="geometry">
            <mxPoint x="-1365" y="1010" as="sourcePoint" />
            <mxPoint x="-945" y="910" as="targetPoint" />
          </mxGeometry>
        </mxCell>
        <mxCell id="_e2x4P_5BLsxtzpZjAKO-68" value="" style="endArrow=none;html=1;rounded=0;exitX=0;exitY=0.5;exitDx=0;exitDy=0;entryX=1;entryY=1;entryDx=0;entryDy=0;" edge="1" parent="1" source="_e2x4P_5BLsxtzpZjAKO-61" target="_e2x4P_5BLsxtzpZjAKO-55">
          <mxGeometry width="50" height="50" relative="1" as="geometry">
            <mxPoint x="-975" y="980" as="sourcePoint" />
            <mxPoint x="-1195" y="910" as="targetPoint" />
          </mxGeometry>
        </mxCell>
        <mxCell id="_e2x4P_5BLsxtzpZjAKO-69" value="" style="endArrow=none;html=1;rounded=0;exitX=0;exitY=0.5;exitDx=0;exitDy=0;entryX=1;entryY=1;entryDx=0;entryDy=0;" edge="1" parent="1" source="_e2x4P_5BLsxtzpZjAKO-57" target="_e2x4P_5BLsxtzpZjAKO-55">
          <mxGeometry width="50" height="50" relative="1" as="geometry">
            <mxPoint x="-965" y="990" as="sourcePoint" />
            <mxPoint x="-915" y="940" as="targetPoint" />
          </mxGeometry>
        </mxCell>
        <mxCell id="_e2x4P_5BLsxtzpZjAKO-71" value="Password" style="ellipse;whiteSpace=wrap;html=1;" vertex="1" parent="1">
          <mxGeometry x="772.5" y="2680" width="120" height="50" as="geometry" />
        </mxCell>
        <mxCell id="Id1UVdJOZt5HCmLUiaCQ-3" value="" style="endArrow=none;html=1;rounded=0;exitX=0;exitY=0.5;exitDx=0;exitDy=0;entryX=1;entryY=0;entryDx=0;entryDy=0;" edge="1" parent="1" source="_e2x4P_5BLsxtzpZjAKO-71" target="_e2x4P_5BLsxtzpZjAKO-2">
          <mxGeometry width="50" height="50" relative="1" as="geometry">
            <mxPoint x="527.5" y="3210" as="sourcePoint" />
            <mxPoint x="467.5" y="3010" as="targetPoint" />
          </mxGeometry>
        </mxCell>
        <mxCell id="Id1UVdJOZt5HCmLUiaCQ-17" value="Reservation" style="rounded=0;whiteSpace=wrap;html=1;" vertex="1" parent="1">
          <mxGeometry x="-660" y="1595" width="120" height="65" as="geometry" />
        </mxCell>
        <mxCell id="Id1UVdJOZt5HCmLUiaCQ-18" value="&lt;u&gt;&lt;b&gt;Reservation_ID&lt;/b&gt;&lt;/u&gt;" style="ellipse;whiteSpace=wrap;html=1;" vertex="1" parent="1">
          <mxGeometry x="-930" y="1605" width="120" height="50" as="geometry" />
        </mxCell>
        <mxCell id="Id1UVdJOZt5HCmLUiaCQ-19" value="status" style="ellipse;whiteSpace=wrap;html=1;" vertex="1" parent="1">
          <mxGeometry x="-930" y="1700" width="120" height="50" as="geometry" />
        </mxCell>
        <mxCell id="Id1UVdJOZt5HCmLUiaCQ-23" value="Duration" style="ellipse;whiteSpace=wrap;html=1;" vertex="1" parent="1">
          <mxGeometry x="-930" y="1500" width="120" height="50" as="geometry" />
        </mxCell>
        <mxCell id="Id1UVdJOZt5HCmLUiaCQ-25" value="" style="endArrow=none;html=1;rounded=0;entryX=1;entryY=0.5;entryDx=0;entryDy=0;exitX=0;exitY=0.5;exitDx=0;exitDy=0;" edge="1" parent="1" source="Id1UVdJOZt5HCmLUiaCQ-17" target="Id1UVdJOZt5HCmLUiaCQ-23">
          <mxGeometry width="50" height="50" relative="1" as="geometry">
            <mxPoint x="-690" y="1545" as="sourcePoint" />
            <mxPoint x="-310" y="1575" as="targetPoint" />
          </mxGeometry>
        </mxCell>
        <mxCell id="Id1UVdJOZt5HCmLUiaCQ-26" value="" style="endArrow=none;html=1;rounded=0;exitX=1;exitY=0.5;exitDx=0;exitDy=0;entryX=0;entryY=0.5;entryDx=0;entryDy=0;" edge="1" parent="1" source="Id1UVdJOZt5HCmLUiaCQ-18" target="Id1UVdJOZt5HCmLUiaCQ-17">
          <mxGeometry width="50" height="50" relative="1" as="geometry">
            <mxPoint x="-350" y="1635" as="sourcePoint" />
            <mxPoint x="-300" y="1585" as="targetPoint" />
          </mxGeometry>
        </mxCell>
        <mxCell id="Id1UVdJOZt5HCmLUiaCQ-29" value="" style="endArrow=none;html=1;rounded=0;exitX=1;exitY=0.5;exitDx=0;exitDy=0;entryX=0;entryY=0.5;entryDx=0;entryDy=0;" edge="1" parent="1" source="Id1UVdJOZt5HCmLUiaCQ-19" target="Id1UVdJOZt5HCmLUiaCQ-17">
          <mxGeometry width="50" height="50" relative="1" as="geometry">
            <mxPoint x="-310" y="1675" as="sourcePoint" />
            <mxPoint x="-260" y="1625" as="targetPoint" />
          </mxGeometry>
        </mxCell>
        <mxCell id="Id1UVdJOZt5HCmLUiaCQ-30" value="Requirements" style="ellipse;whiteSpace=wrap;html=1;" vertex="1" parent="1">
          <mxGeometry x="-930" y="710" width="120" height="50" as="geometry" />
        </mxCell>
        <mxCell id="Id1UVdJOZt5HCmLUiaCQ-31" value="" style="endArrow=none;html=1;rounded=0;exitX=0;exitY=0.5;exitDx=0;exitDy=0;entryX=1;entryY=0;entryDx=0;entryDy=0;" edge="1" parent="1" source="Id1UVdJOZt5HCmLUiaCQ-30" target="_e2x4P_5BLsxtzpZjAKO-55">
          <mxGeometry width="50" height="50" relative="1" as="geometry">
            <mxPoint x="-975" y="920" as="sourcePoint" />
            <mxPoint x="-925" y="870" as="targetPoint" />
          </mxGeometry>
        </mxCell>
        <mxCell id="Id1UVdJOZt5HCmLUiaCQ-53" value="Amenity" style="rounded=0;whiteSpace=wrap;html=1;" vertex="1" parent="1">
          <mxGeometry x="-380" y="1195" width="120" height="60" as="geometry" />
        </mxCell>
        <mxCell id="Id1UVdJOZt5HCmLUiaCQ-54" value="&lt;u&gt;&lt;b&gt;Amenity_ID&lt;/b&gt;&lt;/u&gt;" style="ellipse;whiteSpace=wrap;html=1;" vertex="1" parent="1">
          <mxGeometry x="-700" y="1230" width="120" height="50" as="geometry" />
        </mxCell>
        <mxCell id="Id1UVdJOZt5HCmLUiaCQ-55" value="Description" style="ellipse;whiteSpace=wrap;html=1;" vertex="1" parent="1">
          <mxGeometry x="-700" y="1315" width="120" height="50" as="geometry" />
        </mxCell>
        <mxCell id="Id1UVdJOZt5HCmLUiaCQ-56" value="Amenity_Name" style="ellipse;whiteSpace=wrap;html=1;" vertex="1" parent="1">
          <mxGeometry x="-700" y="1140" width="120" height="50" as="geometry" />
        </mxCell>
        <mxCell id="Id1UVdJOZt5HCmLUiaCQ-58" value="Type" style="ellipse;whiteSpace=wrap;html=1;" vertex="1" parent="1">
          <mxGeometry x="-700" y="1060" width="120" height="50" as="geometry" />
        </mxCell>
        <mxCell id="Id1UVdJOZt5HCmLUiaCQ-59" value="" style="endArrow=none;html=1;rounded=0;entryX=1;entryY=0.5;entryDx=0;entryDy=0;exitX=0;exitY=0.5;exitDx=0;exitDy=0;" edge="1" parent="1" source="Id1UVdJOZt5HCmLUiaCQ-53" target="Id1UVdJOZt5HCmLUiaCQ-56">
          <mxGeometry width="50" height="50" relative="1" as="geometry">
            <mxPoint x="-220" y="1210" as="sourcePoint" />
            <mxPoint x="-170" y="1160" as="targetPoint" />
          </mxGeometry>
        </mxCell>
        <mxCell id="Id1UVdJOZt5HCmLUiaCQ-60" value="" style="endArrow=none;html=1;rounded=0;entryX=1;entryY=0.5;entryDx=0;entryDy=0;exitX=0;exitY=0.5;exitDx=0;exitDy=0;" edge="1" parent="1" source="Id1UVdJOZt5HCmLUiaCQ-53" target="Id1UVdJOZt5HCmLUiaCQ-58">
          <mxGeometry width="50" height="50" relative="1" as="geometry">
            <mxPoint x="-540" y="1140" as="sourcePoint" />
            <mxPoint x="-160" y="1170" as="targetPoint" />
          </mxGeometry>
        </mxCell>
        <mxCell id="Id1UVdJOZt5HCmLUiaCQ-61" value="" style="endArrow=none;html=1;rounded=0;exitX=1;exitY=0.5;exitDx=0;exitDy=0;entryX=0;entryY=0.5;entryDx=0;entryDy=0;" edge="1" parent="1" source="Id1UVdJOZt5HCmLUiaCQ-54" target="Id1UVdJOZt5HCmLUiaCQ-53">
          <mxGeometry width="50" height="50" relative="1" as="geometry">
            <mxPoint x="-200" y="1230" as="sourcePoint" />
            <mxPoint x="-150" y="1180" as="targetPoint" />
          </mxGeometry>
        </mxCell>
        <mxCell id="Id1UVdJOZt5HCmLUiaCQ-63" value="" style="endArrow=none;html=1;rounded=0;exitX=1;exitY=0.5;exitDx=0;exitDy=0;entryX=0;entryY=0.5;entryDx=0;entryDy=0;" edge="1" parent="1" source="Id1UVdJOZt5HCmLUiaCQ-55" target="Id1UVdJOZt5HCmLUiaCQ-53">
          <mxGeometry width="50" height="50" relative="1" as="geometry">
            <mxPoint x="-580" y="1415" as="sourcePoint" />
            <mxPoint x="-110" y="1220" as="targetPoint" />
          </mxGeometry>
        </mxCell>
        <mxCell id="Id1UVdJOZt5HCmLUiaCQ-65" value="Contact us" style="rounded=0;whiteSpace=wrap;html=1;" vertex="1" parent="1">
          <mxGeometry x="750" y="-270" width="120" height="60" as="geometry" />
        </mxCell>
        <mxCell id="Id1UVdJOZt5HCmLUiaCQ-66" value="&lt;u&gt;&lt;b&gt;Contact_us_ID&lt;/b&gt;&lt;/u&gt;" style="ellipse;whiteSpace=wrap;html=1;" vertex="1" parent="1">
          <mxGeometry x="1029.38" y="-495" width="120" height="50" as="geometry" />
        </mxCell>
        <mxCell id="Id1UVdJOZt5HCmLUiaCQ-68" value="website" style="ellipse;whiteSpace=wrap;html=1;" vertex="1" parent="1">
          <mxGeometry x="469.38" y="-400" width="120" height="50" as="geometry" />
        </mxCell>
        <mxCell id="Id1UVdJOZt5HCmLUiaCQ-70" value="Social_Media" style="ellipse;whiteSpace=wrap;html=1;" vertex="1" parent="1">
          <mxGeometry x="468.75" y="-145" width="120" height="50" as="geometry" />
        </mxCell>
        <mxCell id="Id1UVdJOZt5HCmLUiaCQ-71" value="Address" style="ellipse;whiteSpace=wrap;html=1;" vertex="1" parent="1">
          <mxGeometry x="460.63" y="-495" width="120" height="50" as="geometry" />
        </mxCell>
        <mxCell id="Id1UVdJOZt5HCmLUiaCQ-72" value="" style="endArrow=none;html=1;rounded=0;entryX=1;entryY=0.5;entryDx=0;entryDy=0;exitX=0;exitY=0;exitDx=0;exitDy=0;" edge="1" parent="1" source="Id1UVdJOZt5HCmLUiaCQ-65" target="Id1UVdJOZt5HCmLUiaCQ-68">
          <mxGeometry width="50" height="50" relative="1" as="geometry">
            <mxPoint x="924.38" y="-280" as="sourcePoint" />
            <mxPoint x="974.38" y="-330" as="targetPoint" />
          </mxGeometry>
        </mxCell>
        <mxCell id="Id1UVdJOZt5HCmLUiaCQ-73" value="" style="endArrow=none;html=1;rounded=0;entryX=1;entryY=0.5;entryDx=0;entryDy=0;exitX=0;exitY=0;exitDx=0;exitDy=0;" edge="1" parent="1" source="Id1UVdJOZt5HCmLUiaCQ-65" target="Id1UVdJOZt5HCmLUiaCQ-71">
          <mxGeometry width="50" height="50" relative="1" as="geometry">
            <mxPoint x="604.38" y="-350" as="sourcePoint" />
            <mxPoint x="984.38" y="-320" as="targetPoint" />
          </mxGeometry>
        </mxCell>
        <mxCell id="Id1UVdJOZt5HCmLUiaCQ-74" value="" style="endArrow=none;html=1;rounded=0;exitX=0;exitY=0.5;exitDx=0;exitDy=0;entryX=1;entryY=0;entryDx=0;entryDy=0;" edge="1" parent="1" source="Id1UVdJOZt5HCmLUiaCQ-66" target="Id1UVdJOZt5HCmLUiaCQ-65">
          <mxGeometry width="50" height="50" relative="1" as="geometry">
            <mxPoint x="944.38" y="-260" as="sourcePoint" />
            <mxPoint x="994.38" y="-310" as="targetPoint" />
          </mxGeometry>
        </mxCell>
        <mxCell id="Id1UVdJOZt5HCmLUiaCQ-75" value="" style="endArrow=none;html=1;rounded=0;exitX=0;exitY=0.5;exitDx=0;exitDy=0;entryX=1;entryY=0;entryDx=0;entryDy=0;" edge="1" parent="1" source="ma1lkNGCZDMTtBgCC7WY-2" target="Id1UVdJOZt5HCmLUiaCQ-65">
          <mxGeometry width="50" height="50" relative="1" as="geometry">
            <mxPoint x="1029.3800000000156" y="-375" as="sourcePoint" />
            <mxPoint x="1004.38" y="-300" as="targetPoint" />
          </mxGeometry>
        </mxCell>
        <mxCell id="Id1UVdJOZt5HCmLUiaCQ-76" value="" style="endArrow=none;html=1;rounded=0;exitX=1;exitY=0.5;exitDx=0;exitDy=0;entryX=0;entryY=1;entryDx=0;entryDy=0;" edge="1" parent="1" source="Id1UVdJOZt5HCmLUiaCQ-70" target="Id1UVdJOZt5HCmLUiaCQ-65">
          <mxGeometry width="50" height="50" relative="1" as="geometry">
            <mxPoint x="974.38" y="-230" as="sourcePoint" />
            <mxPoint x="754.38" y="-300" as="targetPoint" />
          </mxGeometry>
        </mxCell>
        <mxCell id="Id1UVdJOZt5HCmLUiaCQ-77" value="" style="endArrow=none;html=1;rounded=0;exitX=0;exitY=0.5;exitDx=0;exitDy=0;entryX=1;entryY=1;entryDx=0;entryDy=0;" edge="1" parent="1" source="ma1lkNGCZDMTtBgCC7WY-1" target="Id1UVdJOZt5HCmLUiaCQ-65">
          <mxGeometry width="50" height="50" relative="1" as="geometry">
            <mxPoint x="1024.3799999999842" y="-115" as="sourcePoint" />
            <mxPoint x="1034.38" y="-270" as="targetPoint" />
          </mxGeometry>
        </mxCell>
        <mxCell id="Id1UVdJOZt5HCmLUiaCQ-80" value="Resources" style="rounded=0;whiteSpace=wrap;html=1;" vertex="1" parent="1">
          <mxGeometry x="1310" y="730" width="120" height="60" as="geometry" />
        </mxCell>
        <mxCell id="Id1UVdJOZt5HCmLUiaCQ-81" value="&lt;b style=&quot;&quot;&gt;&lt;font style=&quot;font-size: 12px;&quot;&gt;d&lt;/font&gt;&lt;/b&gt;" style="ellipse;whiteSpace=wrap;html=1;" vertex="1" parent="1">
          <mxGeometry x="1352.5" y="790" width="35" height="30" as="geometry" />
        </mxCell>
        <mxCell id="Id1UVdJOZt5HCmLUiaCQ-82" value="" style="endArrow=none;html=1;rounded=0;exitX=0.5;exitY=0;exitDx=0;exitDy=0;entryX=0.5;entryY=1;entryDx=0;entryDy=0;" edge="1" parent="1" source="Id1UVdJOZt5HCmLUiaCQ-81" target="Id1UVdJOZt5HCmLUiaCQ-80">
          <mxGeometry width="50" height="50" relative="1" as="geometry">
            <mxPoint x="1150" y="700" as="sourcePoint" />
            <mxPoint x="1200" y="650" as="targetPoint" />
          </mxGeometry>
        </mxCell>
        <mxCell id="Id1UVdJOZt5HCmLUiaCQ-83" value="" style="endArrow=none;html=1;rounded=0;" edge="1" parent="1">
          <mxGeometry width="50" height="50" relative="1" as="geometry">
            <mxPoint x="1330" y="820" as="sourcePoint" />
            <mxPoint x="1410" y="820" as="targetPoint" />
            <Array as="points">
              <mxPoint x="1360" y="820" />
            </Array>
          </mxGeometry>
        </mxCell>
        <mxCell id="Id1UVdJOZt5HCmLUiaCQ-85" value="Lake" style="rounded=0;whiteSpace=wrap;html=1;" vertex="1" parent="1">
          <mxGeometry x="1310" y="1030" width="120" height="60" as="geometry" />
        </mxCell>
        <mxCell id="Id1UVdJOZt5HCmLUiaCQ-87" value="Natural Resources" style="rounded=0;whiteSpace=wrap;html=1;" vertex="1" parent="1">
          <mxGeometry x="2980" y="1025" width="120" height="60" as="geometry" />
        </mxCell>
        <mxCell id="Id1UVdJOZt5HCmLUiaCQ-88" value="" style="endArrow=none;html=1;rounded=0;exitX=0.5;exitY=0;exitDx=0;exitDy=0;entryX=0.5;entryY=1;entryDx=0;entryDy=0;" edge="1" parent="1" source="Id1UVdJOZt5HCmLUiaCQ-85" target="Id1UVdJOZt5HCmLUiaCQ-81">
          <mxGeometry width="50" height="50" relative="1" as="geometry">
            <mxPoint x="1410" y="920" as="sourcePoint" />
            <mxPoint x="1460" y="870" as="targetPoint" />
          </mxGeometry>
        </mxCell>
        <mxCell id="Id1UVdJOZt5HCmLUiaCQ-91" value="contains" style="rhombus;whiteSpace=wrap;html=1;" vertex="1" parent="1">
          <mxGeometry x="270" y="1285" width="80" height="80" as="geometry" />
        </mxCell>
        <mxCell id="Id1UVdJOZt5HCmLUiaCQ-92" value="" style="endArrow=none;html=1;rounded=0;entryX=0.5;entryY=1;entryDx=0;entryDy=0;exitX=0.5;exitY=0;exitDx=0;exitDy=0;" edge="1" parent="1" source="Id1UVdJOZt5HCmLUiaCQ-91">
          <mxGeometry width="50" height="50" relative="1" as="geometry">
            <mxPoint x="380" y="1125" as="sourcePoint" />
            <mxPoint x="310" y="995" as="targetPoint" />
          </mxGeometry>
        </mxCell>
        <mxCell id="Id1UVdJOZt5HCmLUiaCQ-94" value="" style="endArrow=none;html=1;rounded=0;entryX=0.5;entryY=1;entryDx=0;entryDy=0;exitX=0.5;exitY=0;exitDx=0;exitDy=0;" edge="1" parent="1" source="Id1UVdJOZt5HCmLUiaCQ-111" target="Id1UVdJOZt5HCmLUiaCQ-91">
          <mxGeometry width="50" height="50" relative="1" as="geometry">
            <mxPoint x="310" y="1464.7390879755435" as="sourcePoint" />
            <mxPoint x="320" y="1005" as="targetPoint" />
          </mxGeometry>
        </mxCell>
        <mxCell id="Id1UVdJOZt5HCmLUiaCQ-149" style="edgeStyle=orthogonalEdgeStyle;rounded=0;orthogonalLoop=1;jettySize=auto;html=1;exitX=0.5;exitY=1;exitDx=0;exitDy=0;" edge="1" parent="1" source="Id1UVdJOZt5HCmLUiaCQ-111">
          <mxGeometry relative="1" as="geometry">
            <mxPoint x="309.54545454545405" y="1655.545454545454" as="targetPoint" />
          </mxGeometry>
        </mxCell>
        <mxCell id="Id1UVdJOZt5HCmLUiaCQ-111" value="Site" style="rounded=0;whiteSpace=wrap;html=1;" vertex="1" parent="1">
          <mxGeometry x="250" y="1595" width="120" height="60" as="geometry" />
        </mxCell>
        <mxCell id="Id1UVdJOZt5HCmLUiaCQ-112" value="&lt;u&gt;&lt;b&gt;Site_id&lt;/b&gt;&lt;/u&gt;" style="ellipse;whiteSpace=wrap;html=1;" vertex="1" parent="1">
          <mxGeometry x="40" y="1865" width="120" height="50" as="geometry" />
        </mxCell>
        <mxCell id="Id1UVdJOZt5HCmLUiaCQ-113" value="Allowed_Equipments" style="ellipse;whiteSpace=wrap;html=1;" vertex="1" parent="1">
          <mxGeometry x="438.75" y="1860" width="130" height="50" as="geometry" />
        </mxCell>
        <mxCell id="Id1UVdJOZt5HCmLUiaCQ-114" value="Site_Name" style="ellipse;whiteSpace=wrap;html=1;" vertex="1" parent="1">
          <mxGeometry x="-100" y="1865" width="120" height="50" as="geometry" />
        </mxCell>
        <mxCell id="Id1UVdJOZt5HCmLUiaCQ-115" value="Capacity" style="ellipse;whiteSpace=wrap;html=1;" vertex="1" parent="1">
          <mxGeometry x="420" y="1325" width="120" height="50" as="geometry" />
        </mxCell>
        <mxCell id="Id1UVdJOZt5HCmLUiaCQ-116" value="Rate" style="ellipse;whiteSpace=wrap;html=1;" vertex="1" parent="1">
          <mxGeometry x="568.75" y="1325" width="120" height="50" as="geometry" />
        </mxCell>
        <mxCell id="Id1UVdJOZt5HCmLUiaCQ-117" value="Site_Location" style="ellipse;whiteSpace=wrap;html=1;" vertex="1" parent="1">
          <mxGeometry x="-260" y="1865" width="120" height="50" as="geometry" />
        </mxCell>
        <mxCell id="Id1UVdJOZt5HCmLUiaCQ-118" value="" style="endArrow=none;html=1;rounded=0;entryX=0.5;entryY=0;entryDx=0;entryDy=0;exitX=0;exitY=1;exitDx=0;exitDy=0;" edge="1" parent="1" source="Id1UVdJOZt5HCmLUiaCQ-111" target="Id1UVdJOZt5HCmLUiaCQ-114">
          <mxGeometry width="50" height="50" relative="1" as="geometry">
            <mxPoint x="560" y="1215" as="sourcePoint" />
            <mxPoint x="610" y="1165" as="targetPoint" />
          </mxGeometry>
        </mxCell>
        <mxCell id="Id1UVdJOZt5HCmLUiaCQ-119" value="" style="endArrow=none;html=1;rounded=0;entryX=0.5;entryY=0;entryDx=0;entryDy=0;exitX=0;exitY=1;exitDx=0;exitDy=0;" edge="1" parent="1" source="Id1UVdJOZt5HCmLUiaCQ-111" target="Id1UVdJOZt5HCmLUiaCQ-117">
          <mxGeometry width="50" height="50" relative="1" as="geometry">
            <mxPoint x="240" y="1145" as="sourcePoint" />
            <mxPoint x="620" y="1175" as="targetPoint" />
          </mxGeometry>
        </mxCell>
        <mxCell id="Id1UVdJOZt5HCmLUiaCQ-120" value="" style="endArrow=none;html=1;rounded=0;exitX=0.5;exitY=0;exitDx=0;exitDy=0;entryX=0;entryY=1;entryDx=0;entryDy=0;" edge="1" parent="1" source="Id1UVdJOZt5HCmLUiaCQ-112" target="Id1UVdJOZt5HCmLUiaCQ-111">
          <mxGeometry width="50" height="50" relative="1" as="geometry">
            <mxPoint x="580" y="1235" as="sourcePoint" />
            <mxPoint x="630" y="1185" as="targetPoint" />
          </mxGeometry>
        </mxCell>
        <mxCell id="Id1UVdJOZt5HCmLUiaCQ-121" value="" style="endArrow=none;html=1;rounded=0;exitX=0.5;exitY=1;exitDx=0;exitDy=0;entryX=1;entryY=0;entryDx=0;entryDy=0;" edge="1" parent="1" source="Id1UVdJOZt5HCmLUiaCQ-115" target="Id1UVdJOZt5HCmLUiaCQ-111">
          <mxGeometry width="50" height="50" relative="1" as="geometry">
            <mxPoint x="220" y="1295" as="sourcePoint" />
            <mxPoint x="640" y="1195" as="targetPoint" />
          </mxGeometry>
        </mxCell>
        <mxCell id="Id1UVdJOZt5HCmLUiaCQ-122" value="" style="endArrow=none;html=1;rounded=0;exitX=0.5;exitY=1;exitDx=0;exitDy=0;entryX=1;entryY=0;entryDx=0;entryDy=0;" edge="1" parent="1" source="Id1UVdJOZt5HCmLUiaCQ-116" target="Id1UVdJOZt5HCmLUiaCQ-111">
          <mxGeometry width="50" height="50" relative="1" as="geometry">
            <mxPoint x="1300" y="1260" as="sourcePoint" />
            <mxPoint x="1080" y="1190" as="targetPoint" />
          </mxGeometry>
        </mxCell>
        <mxCell id="Id1UVdJOZt5HCmLUiaCQ-123" value="" style="endArrow=none;html=1;rounded=0;exitX=0;exitY=0;exitDx=0;exitDy=0;entryX=1;entryY=1;entryDx=0;entryDy=0;" edge="1" parent="1" source="Id1UVdJOZt5HCmLUiaCQ-113" target="Id1UVdJOZt5HCmLUiaCQ-111">
          <mxGeometry width="50" height="50" relative="1" as="geometry">
            <mxPoint x="1310" y="1270" as="sourcePoint" />
            <mxPoint x="1360" y="1220" as="targetPoint" />
          </mxGeometry>
        </mxCell>
        <mxCell id="Id1UVdJOZt5HCmLUiaCQ-124" value="Site_Number" style="ellipse;whiteSpace=wrap;html=1;" vertex="1" parent="1">
          <mxGeometry x="-410" y="1865" width="120" height="50" as="geometry" />
        </mxCell>
        <mxCell id="Id1UVdJOZt5HCmLUiaCQ-125" value="" style="endArrow=none;html=1;rounded=0;exitX=0.5;exitY=0;exitDx=0;exitDy=0;entryX=0;entryY=1;entryDx=0;entryDy=0;" edge="1" parent="1" source="Id1UVdJOZt5HCmLUiaCQ-124" target="Id1UVdJOZt5HCmLUiaCQ-111">
          <mxGeometry width="50" height="50" relative="1" as="geometry">
            <mxPoint x="610" y="1205" as="sourcePoint" />
            <mxPoint x="660" y="1155" as="targetPoint" />
          </mxGeometry>
        </mxCell>
        <mxCell id="Id1UVdJOZt5HCmLUiaCQ-126" value="Park" style="rounded=0;whiteSpace=wrap;html=1;" vertex="1" parent="1">
          <mxGeometry x="250" y="935" width="120" height="60" as="geometry" />
        </mxCell>
        <mxCell id="Id1UVdJOZt5HCmLUiaCQ-127" value="&lt;u&gt;&lt;b&gt;Park_Id&lt;/b&gt;&lt;/u&gt;" style="ellipse;whiteSpace=wrap;html=1;" vertex="1" parent="1">
          <mxGeometry x="560" y="790" width="120" height="50" as="geometry" />
        </mxCell>
        <mxCell id="Id1UVdJOZt5HCmLUiaCQ-128" value="Park_Location" style="ellipse;whiteSpace=wrap;html=1;" vertex="1" parent="1">
          <mxGeometry x="-40" y="1325" width="120" height="50" as="geometry" />
        </mxCell>
        <mxCell id="Id1UVdJOZt5HCmLUiaCQ-129" value="Opening Hours" style="ellipse;whiteSpace=wrap;html=1;" vertex="1" parent="1">
          <mxGeometry x="560" y="530" width="120" height="50" as="geometry" />
        </mxCell>
        <mxCell id="Id1UVdJOZt5HCmLUiaCQ-130" value="Size" style="ellipse;whiteSpace=wrap;html=1;" vertex="1" parent="1">
          <mxGeometry x="560" y="700" width="120" height="50" as="geometry" />
        </mxCell>
        <mxCell id="Id1UVdJOZt5HCmLUiaCQ-131" value="Park_Area" style="ellipse;whiteSpace=wrap;html=1;" vertex="1" parent="1">
          <mxGeometry x="-40" y="1135" width="120" height="50" as="geometry" />
        </mxCell>
        <mxCell id="Id1UVdJOZt5HCmLUiaCQ-132" value="Description" style="ellipse;whiteSpace=wrap;html=1;" vertex="1" parent="1">
          <mxGeometry x="-40" y="1235" width="120" height="50" as="geometry" />
        </mxCell>
        <mxCell id="Id1UVdJOZt5HCmLUiaCQ-133" value="Park_Name" style="ellipse;whiteSpace=wrap;html=1;" vertex="1" parent="1">
          <mxGeometry x="560" y="620" width="120" height="50" as="geometry" />
        </mxCell>
        <mxCell id="Id1UVdJOZt5HCmLUiaCQ-134" value="" style="endArrow=none;html=1;rounded=0;entryX=0;entryY=0.5;entryDx=0;entryDy=0;exitX=1;exitY=0;exitDx=0;exitDy=0;" edge="1" parent="1" source="Id1UVdJOZt5HCmLUiaCQ-126" target="Id1UVdJOZt5HCmLUiaCQ-130">
          <mxGeometry width="50" height="50" relative="1" as="geometry">
            <mxPoint x="540" y="945" as="sourcePoint" />
            <mxPoint x="590" y="895" as="targetPoint" />
          </mxGeometry>
        </mxCell>
        <mxCell id="Id1UVdJOZt5HCmLUiaCQ-135" value="" style="endArrow=none;html=1;rounded=0;entryX=0;entryY=0.5;entryDx=0;entryDy=0;exitX=1;exitY=0;exitDx=0;exitDy=0;" edge="1" parent="1" source="Id1UVdJOZt5HCmLUiaCQ-126" target="Id1UVdJOZt5HCmLUiaCQ-133">
          <mxGeometry width="50" height="50" relative="1" as="geometry">
            <mxPoint x="220" y="875" as="sourcePoint" />
            <mxPoint x="600" y="905" as="targetPoint" />
          </mxGeometry>
        </mxCell>
        <mxCell id="Id1UVdJOZt5HCmLUiaCQ-136" value="" style="endArrow=none;html=1;rounded=0;exitX=0;exitY=0.5;exitDx=0;exitDy=0;entryX=1;entryY=0;entryDx=0;entryDy=0;" edge="1" parent="1" source="Id1UVdJOZt5HCmLUiaCQ-127" target="Id1UVdJOZt5HCmLUiaCQ-126">
          <mxGeometry width="50" height="50" relative="1" as="geometry">
            <mxPoint x="560" y="965" as="sourcePoint" />
            <mxPoint x="610" y="915" as="targetPoint" />
          </mxGeometry>
        </mxCell>
        <mxCell id="Id1UVdJOZt5HCmLUiaCQ-137" value="" style="endArrow=none;html=1;rounded=0;exitX=1;exitY=0.5;exitDx=0;exitDy=0;entryX=0;entryY=1;entryDx=0;entryDy=0;" edge="1" parent="1" source="Id1UVdJOZt5HCmLUiaCQ-131" target="Id1UVdJOZt5HCmLUiaCQ-126">
          <mxGeometry width="50" height="50" relative="1" as="geometry">
            <mxPoint x="200" y="1025" as="sourcePoint" />
            <mxPoint x="620" y="925" as="targetPoint" />
          </mxGeometry>
        </mxCell>
        <mxCell id="Id1UVdJOZt5HCmLUiaCQ-138" value="" style="endArrow=none;html=1;rounded=0;exitX=0;exitY=0.5;exitDx=0;exitDy=0;entryX=1;entryY=0;entryDx=0;entryDy=0;" edge="1" parent="1" source="Id1UVdJOZt5HCmLUiaCQ-129" target="Id1UVdJOZt5HCmLUiaCQ-126">
          <mxGeometry width="50" height="50" relative="1" as="geometry">
            <mxPoint x="580" y="985" as="sourcePoint" />
            <mxPoint x="630" y="935" as="targetPoint" />
          </mxGeometry>
        </mxCell>
        <mxCell id="Id1UVdJOZt5HCmLUiaCQ-139" value="" style="endArrow=none;html=1;rounded=0;exitX=1;exitY=0.5;exitDx=0;exitDy=0;entryX=0;entryY=1;entryDx=0;entryDy=0;" edge="1" parent="1" source="Id1UVdJOZt5HCmLUiaCQ-132" target="Id1UVdJOZt5HCmLUiaCQ-126">
          <mxGeometry width="50" height="50" relative="1" as="geometry">
            <mxPoint x="590" y="995" as="sourcePoint" />
            <mxPoint x="370" y="925" as="targetPoint" />
          </mxGeometry>
        </mxCell>
        <mxCell id="Id1UVdJOZt5HCmLUiaCQ-140" value="" style="endArrow=none;html=1;rounded=0;exitX=1;exitY=0.5;exitDx=0;exitDy=0;entryX=0;entryY=1;entryDx=0;entryDy=0;" edge="1" parent="1" source="Id1UVdJOZt5HCmLUiaCQ-128" target="Id1UVdJOZt5HCmLUiaCQ-126">
          <mxGeometry width="50" height="50" relative="1" as="geometry">
            <mxPoint x="600" y="1005" as="sourcePoint" />
            <mxPoint x="650" y="955" as="targetPoint" />
          </mxGeometry>
        </mxCell>
        <mxCell id="Id1UVdJOZt5HCmLUiaCQ-146" value="manages" style="rhombus;whiteSpace=wrap;html=1;" vertex="1" parent="1">
          <mxGeometry x="-320" y="1585" width="80" height="80" as="geometry" />
        </mxCell>
        <mxCell id="Id1UVdJOZt5HCmLUiaCQ-147" value="" style="endArrow=none;html=1;rounded=0;exitX=1;exitY=0.5;exitDx=0;exitDy=0;entryX=0;entryY=0.5;entryDx=0;entryDy=0;" edge="1" parent="1" source="Id1UVdJOZt5HCmLUiaCQ-17" target="Id1UVdJOZt5HCmLUiaCQ-146">
          <mxGeometry width="50" height="50" relative="1" as="geometry">
            <mxPoint x="-50" y="1345" as="sourcePoint" />
            <mxPoint y="1295" as="targetPoint" />
          </mxGeometry>
        </mxCell>
        <mxCell id="Id1UVdJOZt5HCmLUiaCQ-148" value="" style="endArrow=none;html=1;rounded=0;exitX=1;exitY=0.5;exitDx=0;exitDy=0;entryX=0;entryY=0.5;entryDx=0;entryDy=0;" edge="1" parent="1" source="Id1UVdJOZt5HCmLUiaCQ-146" target="Id1UVdJOZt5HCmLUiaCQ-111">
          <mxGeometry width="50" height="50" relative="1" as="geometry">
            <mxPoint x="190" y="1345" as="sourcePoint" />
            <mxPoint x="240" y="1295" as="targetPoint" />
          </mxGeometry>
        </mxCell>
        <mxCell id="Id1UVdJOZt5HCmLUiaCQ-150" value="Offers" style="rhombus;whiteSpace=wrap;html=1;" vertex="1" parent="1">
          <mxGeometry x="-360" y="1030" width="80" height="80" as="geometry" />
        </mxCell>
        <mxCell id="Id1UVdJOZt5HCmLUiaCQ-151" value="" style="endArrow=none;html=1;rounded=0;entryX=0;entryY=0.75;entryDx=0;entryDy=0;exitX=0.5;exitY=0;exitDx=0;exitDy=0;" edge="1" parent="1" source="Id1UVdJOZt5HCmLUiaCQ-150" target="Id1UVdJOZt5HCmLUiaCQ-126">
          <mxGeometry width="50" height="50" relative="1" as="geometry">
            <mxPoint x="-30" y="1010" as="sourcePoint" />
            <mxPoint x="460" y="1015" as="targetPoint" />
            <Array as="points">
              <mxPoint x="-320" y="980" />
            </Array>
          </mxGeometry>
        </mxCell>
        <mxCell id="Id1UVdJOZt5HCmLUiaCQ-155" value="Fishing Area" style="rounded=0;whiteSpace=wrap;html=1;" vertex="1" parent="1">
          <mxGeometry x="1290" y="1610" width="160" height="60" as="geometry" />
        </mxCell>
        <mxCell id="Id1UVdJOZt5HCmLUiaCQ-158" value="Area_Name" style="ellipse;whiteSpace=wrap;html=1;" vertex="1" parent="1">
          <mxGeometry x="1510" y="1850" width="120" height="50" as="geometry" />
        </mxCell>
        <mxCell id="Id1UVdJOZt5HCmLUiaCQ-159" value="location" style="ellipse;whiteSpace=wrap;html=1;" vertex="1" parent="1">
          <mxGeometry x="975" y="1615" width="120" height="50" as="geometry" />
        </mxCell>
        <mxCell id="Id1UVdJOZt5HCmLUiaCQ-160" value="Area_Map" style="ellipse;whiteSpace=wrap;html=1;" vertex="1" parent="1">
          <mxGeometry x="970" y="1750" width="120" height="50" as="geometry" />
        </mxCell>
        <mxCell id="Id1UVdJOZt5HCmLUiaCQ-161" value="Description" style="ellipse;whiteSpace=wrap;html=1;" vertex="1" parent="1">
          <mxGeometry x="1500" y="1385" width="120" height="50" as="geometry" />
        </mxCell>
        <mxCell id="Id1UVdJOZt5HCmLUiaCQ-162" value="" style="endArrow=none;html=1;rounded=0;entryX=0;entryY=0.5;entryDx=0;entryDy=0;exitX=1;exitY=1;exitDx=0;exitDy=0;" edge="1" parent="1" source="Id1UVdJOZt5HCmLUiaCQ-155" target="Id1UVdJOZt5HCmLUiaCQ-158">
          <mxGeometry width="50" height="50" relative="1" as="geometry">
            <mxPoint x="1430" y="1625" as="sourcePoint" />
            <mxPoint x="1480" y="1575" as="targetPoint" />
          </mxGeometry>
        </mxCell>
        <mxCell id="Id1UVdJOZt5HCmLUiaCQ-163" value="" style="endArrow=none;html=1;rounded=0;entryX=0;entryY=0.5;entryDx=0;entryDy=0;exitX=1;exitY=0;exitDx=0;exitDy=0;" edge="1" parent="1" source="Id1UVdJOZt5HCmLUiaCQ-155" target="Id1UVdJOZt5HCmLUiaCQ-161">
          <mxGeometry width="50" height="50" relative="1" as="geometry">
            <mxPoint x="1110" y="1555" as="sourcePoint" />
            <mxPoint x="1490" y="1585" as="targetPoint" />
          </mxGeometry>
        </mxCell>
        <mxCell id="Id1UVdJOZt5HCmLUiaCQ-165" value="" style="endArrow=none;html=1;rounded=0;exitX=1;exitY=0.5;exitDx=0;exitDy=0;entryX=0;entryY=0.5;entryDx=0;entryDy=0;" edge="1" parent="1" source="Id1UVdJOZt5HCmLUiaCQ-159" target="Id1UVdJOZt5HCmLUiaCQ-155">
          <mxGeometry width="50" height="50" relative="1" as="geometry">
            <mxPoint x="1090" y="1705" as="sourcePoint" />
            <mxPoint x="1510" y="1605" as="targetPoint" />
          </mxGeometry>
        </mxCell>
        <mxCell id="Id1UVdJOZt5HCmLUiaCQ-166" value="" style="endArrow=none;html=1;rounded=0;exitX=1;exitY=0.5;exitDx=0;exitDy=0;entryX=0;entryY=1;entryDx=0;entryDy=0;" edge="1" parent="1" source="Id1UVdJOZt5HCmLUiaCQ-160" target="Id1UVdJOZt5HCmLUiaCQ-155">
          <mxGeometry width="50" height="50" relative="1" as="geometry">
            <mxPoint x="1480" y="1675" as="sourcePoint" />
            <mxPoint x="1260" y="1605" as="targetPoint" />
          </mxGeometry>
        </mxCell>
        <mxCell id="Id1UVdJOZt5HCmLUiaCQ-168" value="&lt;u&gt;&lt;b&gt;Area_ID&lt;/b&gt;&lt;/u&gt;" style="ellipse;whiteSpace=wrap;html=1;" vertex="1" parent="1">
          <mxGeometry x="975" y="1480" width="120" height="50" as="geometry" />
        </mxCell>
        <mxCell id="Id1UVdJOZt5HCmLUiaCQ-169" value="" style="endArrow=none;html=1;rounded=0;exitX=1;exitY=0.5;exitDx=0;exitDy=0;entryX=0;entryY=0;entryDx=0;entryDy=0;" edge="1" parent="1" source="Id1UVdJOZt5HCmLUiaCQ-168" target="Id1UVdJOZt5HCmLUiaCQ-155">
          <mxGeometry width="50" height="50" relative="1" as="geometry">
            <mxPoint x="1480" y="1615" as="sourcePoint" />
            <mxPoint x="1530" y="1565" as="targetPoint" />
          </mxGeometry>
        </mxCell>
        <mxCell id="Id1UVdJOZt5HCmLUiaCQ-170" value="Lake_City" style="rounded=0;whiteSpace=wrap;html=1;" vertex="1" parent="1">
          <mxGeometry x="1290" y="2190" width="160" height="60" as="geometry" />
        </mxCell>
        <mxCell id="Id1UVdJOZt5HCmLUiaCQ-171" value="&lt;u&gt;&lt;b&gt;City_ID&lt;/b&gt;&lt;/u&gt;" style="ellipse;whiteSpace=wrap;html=1;" vertex="1" parent="1">
          <mxGeometry x="1010" y="2120" width="120" height="50" as="geometry" />
        </mxCell>
        <mxCell id="Id1UVdJOZt5HCmLUiaCQ-172" value="Name" style="ellipse;whiteSpace=wrap;html=1;" vertex="1" parent="1">
          <mxGeometry x="1010" y="2260" width="120" height="50" as="geometry" />
        </mxCell>
        <mxCell id="Id1UVdJOZt5HCmLUiaCQ-173" value="" style="endArrow=none;html=1;rounded=0;exitX=1;exitY=0.5;exitDx=0;exitDy=0;entryX=0;entryY=0.5;entryDx=0;entryDy=0;" edge="1" parent="1" source="Id1UVdJOZt5HCmLUiaCQ-171" target="Id1UVdJOZt5HCmLUiaCQ-170">
          <mxGeometry width="50" height="50" relative="1" as="geometry">
            <mxPoint x="1130" y="2205" as="sourcePoint" />
            <mxPoint x="1550" y="2105" as="targetPoint" />
          </mxGeometry>
        </mxCell>
        <mxCell id="Id1UVdJOZt5HCmLUiaCQ-174" value="" style="endArrow=none;html=1;rounded=0;exitX=1;exitY=0.5;exitDx=0;exitDy=0;entryX=0;entryY=0.5;entryDx=0;entryDy=0;" edge="1" parent="1" source="Id1UVdJOZt5HCmLUiaCQ-172" target="Id1UVdJOZt5HCmLUiaCQ-170">
          <mxGeometry width="50" height="50" relative="1" as="geometry">
            <mxPoint x="1520" y="2175" as="sourcePoint" />
            <mxPoint x="1300" y="2105" as="targetPoint" />
          </mxGeometry>
        </mxCell>
        <mxCell id="Id1UVdJOZt5HCmLUiaCQ-184" value="" style="endArrow=none;html=1;rounded=0;entryX=0.5;entryY=1;entryDx=0;entryDy=0;" edge="1" parent="1" target="Id1UVdJOZt5HCmLUiaCQ-17">
          <mxGeometry width="50" height="50" relative="1" as="geometry">
            <mxPoint x="-600" y="1970" as="sourcePoint" />
            <mxPoint x="-580" y="1930" as="targetPoint" />
          </mxGeometry>
        </mxCell>
        <mxCell id="Id1UVdJOZt5HCmLUiaCQ-185" value="makes" style="rhombus;whiteSpace=wrap;html=1;" vertex="1" parent="1">
          <mxGeometry x="-640" y="1965" width="80" height="80" as="geometry" />
        </mxCell>
        <mxCell id="Id1UVdJOZt5HCmLUiaCQ-186" value="" style="endArrow=none;html=1;rounded=0;exitX=0;exitY=0.75;exitDx=0;exitDy=0;entryX=0.5;entryY=1;entryDx=0;entryDy=0;" edge="1" parent="1" source="_e2x4P_5BLsxtzpZjAKO-2" target="Id1UVdJOZt5HCmLUiaCQ-185">
          <mxGeometry width="50" height="50" relative="1" as="geometry">
            <mxPoint x="530" y="3040" as="sourcePoint" />
            <mxPoint x="-500" y="2630" as="targetPoint" />
            <Array as="points">
              <mxPoint x="-600" y="3040" />
            </Array>
          </mxGeometry>
        </mxCell>
        <mxCell id="Id1UVdJOZt5HCmLUiaCQ-188" value="News" style="rounded=0;whiteSpace=wrap;html=1;" vertex="1" parent="1">
          <mxGeometry x="2850" y="-105" width="160" height="60" as="geometry" />
        </mxCell>
        <mxCell id="Id1UVdJOZt5HCmLUiaCQ-189" value="Date" style="ellipse;whiteSpace=wrap;html=1;" vertex="1" parent="1">
          <mxGeometry x="3120" y="40" width="120" height="50" as="geometry" />
        </mxCell>
        <mxCell id="Id1UVdJOZt5HCmLUiaCQ-191" value="Title" style="ellipse;whiteSpace=wrap;html=1;" vertex="1" parent="1">
          <mxGeometry x="2540" y="40" width="120" height="50" as="geometry" />
        </mxCell>
        <mxCell id="Id1UVdJOZt5HCmLUiaCQ-192" value="Content" style="ellipse;whiteSpace=wrap;html=1;" vertex="1" parent="1">
          <mxGeometry x="3110" y="-240" width="120" height="50" as="geometry" />
        </mxCell>
        <mxCell id="Id1UVdJOZt5HCmLUiaCQ-193" value="" style="endArrow=none;html=1;rounded=0;entryX=0;entryY=0.5;entryDx=0;entryDy=0;exitX=1;exitY=1;exitDx=0;exitDy=0;" edge="1" parent="1" source="Id1UVdJOZt5HCmLUiaCQ-188" target="Id1UVdJOZt5HCmLUiaCQ-189">
          <mxGeometry width="50" height="50" relative="1" as="geometry">
            <mxPoint x="3000" y="-95" as="sourcePoint" />
            <mxPoint x="3050" y="-145" as="targetPoint" />
          </mxGeometry>
        </mxCell>
        <mxCell id="Id1UVdJOZt5HCmLUiaCQ-194" value="" style="endArrow=none;html=1;rounded=0;entryX=0;entryY=0.5;entryDx=0;entryDy=0;exitX=1;exitY=0;exitDx=0;exitDy=0;" edge="1" parent="1" source="Id1UVdJOZt5HCmLUiaCQ-188" target="Id1UVdJOZt5HCmLUiaCQ-192">
          <mxGeometry width="50" height="50" relative="1" as="geometry">
            <mxPoint x="2680" y="-165" as="sourcePoint" />
            <mxPoint x="3060" y="-135" as="targetPoint" />
          </mxGeometry>
        </mxCell>
        <mxCell id="Id1UVdJOZt5HCmLUiaCQ-196" value="" style="endArrow=none;html=1;rounded=0;exitX=1;exitY=0.5;exitDx=0;exitDy=0;entryX=0;entryY=1;entryDx=0;entryDy=0;" edge="1" parent="1" source="Id1UVdJOZt5HCmLUiaCQ-191" target="Id1UVdJOZt5HCmLUiaCQ-188">
          <mxGeometry width="50" height="50" relative="1" as="geometry">
            <mxPoint x="3050" y="-45" as="sourcePoint" />
            <mxPoint x="2830" y="-115" as="targetPoint" />
          </mxGeometry>
        </mxCell>
        <mxCell id="Id1UVdJOZt5HCmLUiaCQ-197" value="&lt;u&gt;&lt;b&gt;News_ID&lt;/b&gt;&lt;/u&gt;" style="ellipse;whiteSpace=wrap;html=1;" vertex="1" parent="1">
          <mxGeometry x="2545" y="-240" width="120" height="50" as="geometry" />
        </mxCell>
        <mxCell id="Id1UVdJOZt5HCmLUiaCQ-198" value="" style="endArrow=none;html=1;rounded=0;exitX=1;exitY=0.5;exitDx=0;exitDy=0;entryX=0;entryY=0;entryDx=0;entryDy=0;" edge="1" parent="1" source="Id1UVdJOZt5HCmLUiaCQ-197" target="Id1UVdJOZt5HCmLUiaCQ-188">
          <mxGeometry width="50" height="50" relative="1" as="geometry">
            <mxPoint x="3050" y="-105" as="sourcePoint" />
            <mxPoint x="3100" y="-155" as="targetPoint" />
          </mxGeometry>
        </mxCell>
        <mxCell id="Id1UVdJOZt5HCmLUiaCQ-199" value="Publications" style="rounded=0;whiteSpace=wrap;html=1;" vertex="1" parent="1">
          <mxGeometry x="1795" y="2175" width="160" height="60" as="geometry" />
        </mxCell>
        <mxCell id="Id1UVdJOZt5HCmLUiaCQ-200" value="Date" style="ellipse;whiteSpace=wrap;html=1;" vertex="1" parent="1">
          <mxGeometry x="2065" y="2320" width="120" height="50" as="geometry" />
        </mxCell>
        <mxCell id="Id1UVdJOZt5HCmLUiaCQ-201" value="Publication_Type" style="ellipse;whiteSpace=wrap;html=1;" vertex="1" parent="1">
          <mxGeometry x="1485" y="2320" width="120" height="50" as="geometry" />
        </mxCell>
        <mxCell id="Id1UVdJOZt5HCmLUiaCQ-202" value="Content" style="ellipse;whiteSpace=wrap;html=1;" vertex="1" parent="1">
          <mxGeometry x="2055" y="2040" width="120" height="50" as="geometry" />
        </mxCell>
        <mxCell id="Id1UVdJOZt5HCmLUiaCQ-203" value="" style="endArrow=none;html=1;rounded=0;entryX=0;entryY=0.5;entryDx=0;entryDy=0;exitX=1;exitY=1;exitDx=0;exitDy=0;" edge="1" parent="1" source="Id1UVdJOZt5HCmLUiaCQ-199" target="Id1UVdJOZt5HCmLUiaCQ-200">
          <mxGeometry width="50" height="50" relative="1" as="geometry">
            <mxPoint x="1945" y="2185" as="sourcePoint" />
            <mxPoint x="1995" y="2135" as="targetPoint" />
          </mxGeometry>
        </mxCell>
        <mxCell id="Id1UVdJOZt5HCmLUiaCQ-204" value="" style="endArrow=none;html=1;rounded=0;entryX=0;entryY=0.5;entryDx=0;entryDy=0;exitX=1;exitY=0;exitDx=0;exitDy=0;" edge="1" parent="1" source="Id1UVdJOZt5HCmLUiaCQ-199" target="Id1UVdJOZt5HCmLUiaCQ-202">
          <mxGeometry width="50" height="50" relative="1" as="geometry">
            <mxPoint x="1625" y="2115" as="sourcePoint" />
            <mxPoint x="2005" y="2145" as="targetPoint" />
          </mxGeometry>
        </mxCell>
        <mxCell id="Id1UVdJOZt5HCmLUiaCQ-205" value="" style="endArrow=none;html=1;rounded=0;exitX=1;exitY=0.5;exitDx=0;exitDy=0;entryX=0;entryY=1;entryDx=0;entryDy=0;" edge="1" parent="1" source="Id1UVdJOZt5HCmLUiaCQ-201" target="Id1UVdJOZt5HCmLUiaCQ-199">
          <mxGeometry width="50" height="50" relative="1" as="geometry">
            <mxPoint x="1995" y="2235" as="sourcePoint" />
            <mxPoint x="1775" y="2165" as="targetPoint" />
          </mxGeometry>
        </mxCell>
        <mxCell id="Id1UVdJOZt5HCmLUiaCQ-206" value="&lt;u&gt;&lt;b&gt;Publication_ID&lt;/b&gt;&lt;/u&gt;" style="ellipse;whiteSpace=wrap;html=1;" vertex="1" parent="1">
          <mxGeometry x="1490" y="2040" width="120" height="50" as="geometry" />
        </mxCell>
        <mxCell id="Id1UVdJOZt5HCmLUiaCQ-207" value="" style="endArrow=none;html=1;rounded=0;exitX=1;exitY=0.5;exitDx=0;exitDy=0;entryX=0;entryY=0;entryDx=0;entryDy=0;" edge="1" parent="1" source="Id1UVdJOZt5HCmLUiaCQ-206" target="Id1UVdJOZt5HCmLUiaCQ-199">
          <mxGeometry width="50" height="50" relative="1" as="geometry">
            <mxPoint x="1995" y="2175" as="sourcePoint" />
            <mxPoint x="2045" y="2125" as="targetPoint" />
          </mxGeometry>
        </mxCell>
        <mxCell id="Id1UVdJOZt5HCmLUiaCQ-208" value="Education" style="rounded=0;whiteSpace=wrap;html=1;" vertex="1" parent="1">
          <mxGeometry x="3870" y="1610" width="160" height="60" as="geometry" />
        </mxCell>
        <mxCell id="Id1UVdJOZt5HCmLUiaCQ-209" value="Program_Type" style="ellipse;whiteSpace=wrap;html=1;" vertex="1" parent="1">
          <mxGeometry x="4117.5" y="1720" width="120" height="50" as="geometry" />
        </mxCell>
        <mxCell id="Id1UVdJOZt5HCmLUiaCQ-210" value="Description" style="ellipse;whiteSpace=wrap;html=1;" vertex="1" parent="1">
          <mxGeometry x="3620" y="1710" width="120" height="50" as="geometry" />
        </mxCell>
        <mxCell id="Id1UVdJOZt5HCmLUiaCQ-211" value="&lt;u&gt;&lt;b&gt;Education_ID&lt;/b&gt;&lt;/u&gt;" style="ellipse;whiteSpace=wrap;html=1;" vertex="1" parent="1">
          <mxGeometry x="4117.5" y="1480" width="120" height="50" as="geometry" />
        </mxCell>
        <mxCell id="Id1UVdJOZt5HCmLUiaCQ-212" value="" style="endArrow=none;html=1;rounded=0;entryX=0;entryY=0.5;entryDx=0;entryDy=0;exitX=1;exitY=1;exitDx=0;exitDy=0;" edge="1" parent="1" source="Id1UVdJOZt5HCmLUiaCQ-208" target="Id1UVdJOZt5HCmLUiaCQ-209">
          <mxGeometry width="50" height="50" relative="1" as="geometry">
            <mxPoint x="4020" y="1585" as="sourcePoint" />
            <mxPoint x="4070" y="1535" as="targetPoint" />
          </mxGeometry>
        </mxCell>
        <mxCell id="Id1UVdJOZt5HCmLUiaCQ-213" value="" style="endArrow=none;html=1;rounded=0;entryX=0;entryY=0.5;entryDx=0;entryDy=0;exitX=1;exitY=0;exitDx=0;exitDy=0;" edge="1" parent="1" source="Id1UVdJOZt5HCmLUiaCQ-208" target="Id1UVdJOZt5HCmLUiaCQ-211">
          <mxGeometry width="50" height="50" relative="1" as="geometry">
            <mxPoint x="3700" y="1515" as="sourcePoint" />
            <mxPoint x="4080" y="1545" as="targetPoint" />
          </mxGeometry>
        </mxCell>
        <mxCell id="Id1UVdJOZt5HCmLUiaCQ-214" value="" style="endArrow=none;html=1;rounded=0;exitX=1;exitY=0.5;exitDx=0;exitDy=0;entryX=0;entryY=1;entryDx=0;entryDy=0;" edge="1" parent="1" source="Id1UVdJOZt5HCmLUiaCQ-210" target="Id1UVdJOZt5HCmLUiaCQ-208">
          <mxGeometry width="50" height="50" relative="1" as="geometry">
            <mxPoint x="4070" y="1635" as="sourcePoint" />
            <mxPoint x="3850" y="1565" as="targetPoint" />
          </mxGeometry>
        </mxCell>
        <mxCell id="Id1UVdJOZt5HCmLUiaCQ-215" value="Program_Name" style="ellipse;whiteSpace=wrap;html=1;" vertex="1" parent="1">
          <mxGeometry x="3620" y="1467.5" width="120" height="50" as="geometry" />
        </mxCell>
        <mxCell id="Id1UVdJOZt5HCmLUiaCQ-216" value="" style="endArrow=none;html=1;rounded=0;exitX=1;exitY=0.5;exitDx=0;exitDy=0;entryX=0;entryY=0;entryDx=0;entryDy=0;" edge="1" parent="1" source="Id1UVdJOZt5HCmLUiaCQ-215" target="Id1UVdJOZt5HCmLUiaCQ-208">
          <mxGeometry width="50" height="50" relative="1" as="geometry">
            <mxPoint x="4070" y="1575" as="sourcePoint" />
            <mxPoint x="4120" y="1525" as="targetPoint" />
          </mxGeometry>
        </mxCell>
        <mxCell id="Id1UVdJOZt5HCmLUiaCQ-217" value="Courses" style="rounded=0;whiteSpace=wrap;html=1;" vertex="1" parent="1">
          <mxGeometry x="3870" y="2105" width="160" height="60" as="geometry" />
        </mxCell>
        <mxCell id="Id1UVdJOZt5HCmLUiaCQ-218" value="Prerequisite" style="ellipse;whiteSpace=wrap;html=1;" vertex="1" parent="1">
          <mxGeometry x="4140" y="2250" width="120" height="50" as="geometry" />
        </mxCell>
        <mxCell id="Id1UVdJOZt5HCmLUiaCQ-219" value="Course_Name" style="ellipse;whiteSpace=wrap;html=1;" vertex="1" parent="1">
          <mxGeometry x="3580" y="1910" width="120" height="50" as="geometry" />
        </mxCell>
        <mxCell id="Id1UVdJOZt5HCmLUiaCQ-220" value="Description" style="ellipse;whiteSpace=wrap;html=1;" vertex="1" parent="1">
          <mxGeometry x="3560" y="2250" width="120" height="50" as="geometry" />
        </mxCell>
        <mxCell id="Id1UVdJOZt5HCmLUiaCQ-221" value="Start_Date" style="ellipse;whiteSpace=wrap;html=1;" vertex="1" parent="1">
          <mxGeometry x="4150" y="2020" width="120" height="50" as="geometry" />
        </mxCell>
        <mxCell id="Id1UVdJOZt5HCmLUiaCQ-222" value="" style="endArrow=none;html=1;rounded=0;entryX=0;entryY=0.5;entryDx=0;entryDy=0;exitX=1;exitY=1;exitDx=0;exitDy=0;" edge="1" parent="1" source="Id1UVdJOZt5HCmLUiaCQ-217" target="Id1UVdJOZt5HCmLUiaCQ-218">
          <mxGeometry width="50" height="50" relative="1" as="geometry">
            <mxPoint x="4020" y="2115" as="sourcePoint" />
            <mxPoint x="4070" y="2065" as="targetPoint" />
          </mxGeometry>
        </mxCell>
        <mxCell id="Id1UVdJOZt5HCmLUiaCQ-223" value="" style="endArrow=none;html=1;rounded=0;entryX=0;entryY=0.5;entryDx=0;entryDy=0;exitX=1;exitY=0;exitDx=0;exitDy=0;" edge="1" parent="1" source="Id1UVdJOZt5HCmLUiaCQ-217" target="Id1UVdJOZt5HCmLUiaCQ-221">
          <mxGeometry width="50" height="50" relative="1" as="geometry">
            <mxPoint x="3700" y="2045" as="sourcePoint" />
            <mxPoint x="4080" y="2075" as="targetPoint" />
          </mxGeometry>
        </mxCell>
        <mxCell id="Id1UVdJOZt5HCmLUiaCQ-224" value="" style="endArrow=none;html=1;rounded=0;exitX=1;exitY=0.5;exitDx=0;exitDy=0;entryX=0;entryY=0;entryDx=0;entryDy=0;" edge="1" parent="1" source="Id1UVdJOZt5HCmLUiaCQ-219" target="Id1UVdJOZt5HCmLUiaCQ-217">
          <mxGeometry width="50" height="50" relative="1" as="geometry">
            <mxPoint x="3680" y="2195" as="sourcePoint" />
            <mxPoint x="4100" y="2095" as="targetPoint" />
          </mxGeometry>
        </mxCell>
        <mxCell id="Id1UVdJOZt5HCmLUiaCQ-225" value="" style="endArrow=none;html=1;rounded=0;exitX=1;exitY=0.5;exitDx=0;exitDy=0;entryX=0;entryY=1;entryDx=0;entryDy=0;" edge="1" parent="1" source="Id1UVdJOZt5HCmLUiaCQ-220" target="Id1UVdJOZt5HCmLUiaCQ-217">
          <mxGeometry width="50" height="50" relative="1" as="geometry">
            <mxPoint x="4070" y="2165" as="sourcePoint" />
            <mxPoint x="3850" y="2095" as="targetPoint" />
          </mxGeometry>
        </mxCell>
        <mxCell id="Id1UVdJOZt5HCmLUiaCQ-226" value="&lt;u&gt;&lt;b&gt;Course_ID&lt;/b&gt;&lt;/u&gt;" style="ellipse;whiteSpace=wrap;html=1;" vertex="1" parent="1">
          <mxGeometry x="3580" y="1835" width="120" height="50" as="geometry" />
        </mxCell>
        <mxCell id="Id1UVdJOZt5HCmLUiaCQ-227" value="" style="endArrow=none;html=1;rounded=0;exitX=1;exitY=0.5;exitDx=0;exitDy=0;entryX=0;entryY=0;entryDx=0;entryDy=0;" edge="1" parent="1" source="Id1UVdJOZt5HCmLUiaCQ-226" target="Id1UVdJOZt5HCmLUiaCQ-217">
          <mxGeometry width="50" height="50" relative="1" as="geometry">
            <mxPoint x="4070" y="2105" as="sourcePoint" />
            <mxPoint x="4120" y="2055" as="targetPoint" />
          </mxGeometry>
        </mxCell>
        <mxCell id="Id1UVdJOZt5HCmLUiaCQ-228" value="End_Date" style="ellipse;whiteSpace=wrap;html=1;" vertex="1" parent="1">
          <mxGeometry x="4150" y="1930" width="120" height="50" as="geometry" />
        </mxCell>
        <mxCell id="Id1UVdJOZt5HCmLUiaCQ-230" value="Instuctor" style="rounded=0;whiteSpace=wrap;html=1;" vertex="1" parent="1">
          <mxGeometry x="3870" y="2715" width="160" height="60" as="geometry" />
        </mxCell>
        <mxCell id="Id1UVdJOZt5HCmLUiaCQ-231" value="Expertise" style="ellipse;whiteSpace=wrap;html=1;" vertex="1" parent="1">
          <mxGeometry x="4140" y="2860" width="120" height="50" as="geometry" />
        </mxCell>
        <mxCell id="Id1UVdJOZt5HCmLUiaCQ-232" value="Contact_Information" style="ellipse;whiteSpace=wrap;html=1;" vertex="1" parent="1">
          <mxGeometry x="3565" y="2850" width="120" height="50" as="geometry" />
        </mxCell>
        <mxCell id="Id1UVdJOZt5HCmLUiaCQ-233" value="Instructor_Name" style="ellipse;whiteSpace=wrap;html=1;" vertex="1" parent="1">
          <mxGeometry x="4130" y="2580" width="120" height="50" as="geometry" />
        </mxCell>
        <mxCell id="Id1UVdJOZt5HCmLUiaCQ-234" value="" style="endArrow=none;html=1;rounded=0;entryX=0;entryY=0.5;entryDx=0;entryDy=0;exitX=1;exitY=1;exitDx=0;exitDy=0;" edge="1" parent="1" source="Id1UVdJOZt5HCmLUiaCQ-230" target="Id1UVdJOZt5HCmLUiaCQ-231">
          <mxGeometry width="50" height="50" relative="1" as="geometry">
            <mxPoint x="4020" y="2725" as="sourcePoint" />
            <mxPoint x="4070" y="2675" as="targetPoint" />
          </mxGeometry>
        </mxCell>
        <mxCell id="Id1UVdJOZt5HCmLUiaCQ-235" value="" style="endArrow=none;html=1;rounded=0;entryX=0;entryY=0.5;entryDx=0;entryDy=0;exitX=1;exitY=0;exitDx=0;exitDy=0;" edge="1" parent="1" source="Id1UVdJOZt5HCmLUiaCQ-230" target="Id1UVdJOZt5HCmLUiaCQ-233">
          <mxGeometry width="50" height="50" relative="1" as="geometry">
            <mxPoint x="3700" y="2655" as="sourcePoint" />
            <mxPoint x="4080" y="2685" as="targetPoint" />
          </mxGeometry>
        </mxCell>
        <mxCell id="Id1UVdJOZt5HCmLUiaCQ-236" value="" style="endArrow=none;html=1;rounded=0;exitX=1;exitY=0.5;exitDx=0;exitDy=0;entryX=0;entryY=1;entryDx=0;entryDy=0;" edge="1" parent="1" source="Id1UVdJOZt5HCmLUiaCQ-232" target="Id1UVdJOZt5HCmLUiaCQ-230">
          <mxGeometry width="50" height="50" relative="1" as="geometry">
            <mxPoint x="4070" y="2775" as="sourcePoint" />
            <mxPoint x="3850" y="2705" as="targetPoint" />
          </mxGeometry>
        </mxCell>
        <mxCell id="Id1UVdJOZt5HCmLUiaCQ-237" value="&lt;u&gt;&lt;b&gt;Instructor_ID&lt;/b&gt;&lt;/u&gt;" style="ellipse;whiteSpace=wrap;html=1;" vertex="1" parent="1">
          <mxGeometry x="3565" y="2580" width="120" height="50" as="geometry" />
        </mxCell>
        <mxCell id="Id1UVdJOZt5HCmLUiaCQ-238" value="" style="endArrow=none;html=1;rounded=0;exitX=1;exitY=0.5;exitDx=0;exitDy=0;entryX=0;entryY=0;entryDx=0;entryDy=0;" edge="1" parent="1" source="Id1UVdJOZt5HCmLUiaCQ-237" target="Id1UVdJOZt5HCmLUiaCQ-230">
          <mxGeometry width="50" height="50" relative="1" as="geometry">
            <mxPoint x="4070" y="2715" as="sourcePoint" />
            <mxPoint x="4120" y="2665" as="targetPoint" />
          </mxGeometry>
        </mxCell>
        <mxCell id="Id1UVdJOZt5HCmLUiaCQ-239" value="Bio" style="ellipse;whiteSpace=wrap;html=1;" vertex="1" parent="1">
          <mxGeometry x="4125" y="2500" width="120" height="50" as="geometry" />
        </mxCell>
        <mxCell id="Id1UVdJOZt5HCmLUiaCQ-240" value="" style="endArrow=none;html=1;rounded=0;entryX=0;entryY=0.5;entryDx=0;entryDy=0;exitX=1;exitY=0;exitDx=0;exitDy=0;" edge="1" parent="1" source="Id1UVdJOZt5HCmLUiaCQ-230" target="Id1UVdJOZt5HCmLUiaCQ-239">
          <mxGeometry width="50" height="50" relative="1" as="geometry">
            <mxPoint x="4035" y="2710" as="sourcePoint" />
            <mxPoint x="4140" y="2615" as="targetPoint" />
          </mxGeometry>
        </mxCell>
        <mxCell id="qt89t0T1T1_ALbszv5wi-1" value="has" style="rhombus;whiteSpace=wrap;html=1;" vertex="1" parent="1">
          <mxGeometry x="1330" y="1285" width="80" height="80" as="geometry" />
        </mxCell>
        <mxCell id="qt89t0T1T1_ALbszv5wi-2" value="" style="endArrow=none;html=1;rounded=0;entryX=0.5;entryY=1;entryDx=0;entryDy=0;exitX=0.5;exitY=0;exitDx=0;exitDy=0;strokeColor=#000000;" edge="1" parent="1" source="qt89t0T1T1_ALbszv5wi-1" target="Id1UVdJOZt5HCmLUiaCQ-85">
          <mxGeometry width="50" height="50" relative="1" as="geometry">
            <mxPoint x="1180" y="1510" as="sourcePoint" />
            <mxPoint x="1230" y="1460" as="targetPoint" />
          </mxGeometry>
        </mxCell>
        <mxCell id="qt89t0T1T1_ALbszv5wi-3" value="" style="endArrow=none;html=1;rounded=0;entryX=0.5;entryY=1;entryDx=0;entryDy=0;exitX=0.5;exitY=0;exitDx=0;exitDy=0;strokeColor=#000000;" edge="1" parent="1" source="Id1UVdJOZt5HCmLUiaCQ-155" target="qt89t0T1T1_ALbszv5wi-1">
          <mxGeometry width="50" height="50" relative="1" as="geometry">
            <mxPoint x="1180" y="1510" as="sourcePoint" />
            <mxPoint x="1230" y="1460" as="targetPoint" />
          </mxGeometry>
        </mxCell>
        <mxCell id="qt89t0T1T1_ALbszv5wi-4" value="" style="endArrow=none;html=1;rounded=0;entryX=0.5;entryY=1;entryDx=0;entryDy=0;exitX=0.5;exitY=0;exitDx=0;exitDy=0;strokeColor=#000000;" edge="1" parent="1" source="Id1UVdJOZt5HCmLUiaCQ-170" target="Id1UVdJOZt5HCmLUiaCQ-155">
          <mxGeometry width="50" height="50" relative="1" as="geometry">
            <mxPoint x="1300" y="1750" as="sourcePoint" />
            <mxPoint x="1350" y="1700" as="targetPoint" />
          </mxGeometry>
        </mxCell>
        <mxCell id="qt89t0T1T1_ALbszv5wi-5" value="contains" style="rhombus;whiteSpace=wrap;html=1;" vertex="1" parent="1">
          <mxGeometry x="1330" y="1870" width="80" height="80" as="geometry" />
        </mxCell>
        <mxCell id="qt89t0T1T1_ALbszv5wi-6" value="" style="endArrow=none;html=1;rounded=0;exitX=1;exitY=0.5;exitDx=0;exitDy=0;entryX=0;entryY=0.5;entryDx=0;entryDy=0;" edge="1" parent="1" source="qt89t0T1T1_ALbszv5wi-7" target="K0a8sZzFn4CJkZS0wyN5-56">
          <mxGeometry width="50" height="50" relative="1" as="geometry">
            <mxPoint x="1870" y="1670" as="sourcePoint" />
            <mxPoint x="1800" y="1640" as="targetPoint" />
          </mxGeometry>
        </mxCell>
        <mxCell id="qt89t0T1T1_ALbszv5wi-8" value="" style="endArrow=none;html=1;rounded=0;exitX=1;exitY=0.5;exitDx=0;exitDy=0;entryX=0;entryY=0.5;entryDx=0;entryDy=0;" edge="1" parent="1" source="Id1UVdJOZt5HCmLUiaCQ-155" target="qt89t0T1T1_ALbszv5wi-7">
          <mxGeometry width="50" height="50" relative="1" as="geometry">
            <mxPoint x="1450" y="1640" as="sourcePoint" />
            <mxPoint x="1720" y="1640" as="targetPoint" />
          </mxGeometry>
        </mxCell>
        <mxCell id="qt89t0T1T1_ALbszv5wi-7" value="hosts" style="rhombus;whiteSpace=wrap;html=1;" vertex="1" parent="1">
          <mxGeometry x="1565" y="1600" width="80" height="80" as="geometry" />
        </mxCell>
        <mxCell id="qt89t0T1T1_ALbszv5wi-10" value="" style="endArrow=none;html=1;rounded=0;entryX=0.5;entryY=1;entryDx=0;entryDy=0;exitX=0.5;exitY=0;exitDx=0;exitDy=0;" edge="1" parent="1" source="qt89t0T1T1_ALbszv5wi-11" target="K0a8sZzFn4CJkZS0wyN5-56">
          <mxGeometry width="50" height="50" relative="1" as="geometry">
            <mxPoint x="1960" y="1970" as="sourcePoint" />
            <mxPoint x="1880" y="1670" as="targetPoint" />
          </mxGeometry>
        </mxCell>
        <mxCell id="qt89t0T1T1_ALbszv5wi-12" value="" style="endArrow=none;html=1;rounded=0;entryX=0.5;entryY=1;entryDx=0;entryDy=0;exitX=0.5;exitY=0;exitDx=0;exitDy=0;" edge="1" parent="1" source="Id1UVdJOZt5HCmLUiaCQ-199" target="qt89t0T1T1_ALbszv5wi-11">
          <mxGeometry width="50" height="50" relative="1" as="geometry">
            <mxPoint x="1875" y="2175" as="sourcePoint" />
            <mxPoint x="1880" y="1670" as="targetPoint" />
          </mxGeometry>
        </mxCell>
        <mxCell id="qt89t0T1T1_ALbszv5wi-11" value="releases" style="rhombus;whiteSpace=wrap;html=1;" vertex="1" parent="1">
          <mxGeometry x="1840" y="1885" width="80" height="80" as="geometry" />
        </mxCell>
        <mxCell id="qt89t0T1T1_ALbszv5wi-13" value="" style="endArrow=none;html=1;rounded=0;entryX=0;entryY=0.5;entryDx=0;entryDy=0;exitX=0.5;exitY=0;exitDx=0;exitDy=0;" edge="1" parent="1" source="qt89t0T1T1_ALbszv5wi-14" target="Id1UVdJOZt5HCmLUiaCQ-65">
          <mxGeometry width="50" height="50" relative="1" as="geometry">
            <mxPoint x="560" y="230" as="sourcePoint" />
            <mxPoint x="350" y="-690" as="targetPoint" />
            <Array as="points">
              <mxPoint x="280" y="-240" />
            </Array>
          </mxGeometry>
        </mxCell>
        <mxCell id="qt89t0T1T1_ALbszv5wi-15" value="" style="endArrow=none;html=1;rounded=0;entryX=0.5;entryY=1;entryDx=0;entryDy=0;exitX=0.25;exitY=0;exitDx=0;exitDy=0;" edge="1" parent="1" source="Id1UVdJOZt5HCmLUiaCQ-126" target="qt89t0T1T1_ALbszv5wi-14">
          <mxGeometry width="50" height="50" relative="1" as="geometry">
            <mxPoint x="310" y="935" as="sourcePoint" />
            <mxPoint x="310" y="-800" as="targetPoint" />
          </mxGeometry>
        </mxCell>
        <mxCell id="qt89t0T1T1_ALbszv5wi-14" value="has" style="rhombus;whiteSpace=wrap;html=1;" vertex="1" parent="1">
          <mxGeometry x="245" y="60" width="80" height="80" as="geometry" />
        </mxCell>
        <mxCell id="qt89t0T1T1_ALbszv5wi-17" value="" style="endArrow=none;html=1;rounded=0;exitX=0.5;exitY=0;exitDx=0;exitDy=0;entryX=0.186;entryY=0.971;entryDx=0;entryDy=0;entryPerimeter=0;" edge="1" parent="1" source="qt89t0T1T1_ALbszv5wi-18" target="Id1UVdJOZt5HCmLUiaCQ-188">
          <mxGeometry width="50" height="50" relative="1" as="geometry">
            <mxPoint x="345" y="385" as="sourcePoint" />
            <mxPoint x="2930" y="-60" as="targetPoint" />
            <Array as="points">
              <mxPoint x="345" y="440" />
              <mxPoint x="1080" y="440" />
              <mxPoint x="2080" y="440" />
              <mxPoint x="2880" y="440" />
            </Array>
          </mxGeometry>
        </mxCell>
        <mxCell id="qt89t0T1T1_ALbszv5wi-24" value="" style="endArrow=none;html=1;rounded=0;exitX=0.75;exitY=0;exitDx=0;exitDy=0;entryX=0.5;entryY=1;entryDx=0;entryDy=0;" edge="1" parent="1" source="Id1UVdJOZt5HCmLUiaCQ-126" target="qt89t0T1T1_ALbszv5wi-18">
          <mxGeometry width="50" height="50" relative="1" as="geometry">
            <mxPoint x="340" y="935" as="sourcePoint" />
            <mxPoint x="1070" y="-825" as="targetPoint" />
            <Array as="points" />
          </mxGeometry>
        </mxCell>
        <mxCell id="qt89t0T1T1_ALbszv5wi-18" value="publishes" style="rhombus;whiteSpace=wrap;html=1;" vertex="1" parent="1">
          <mxGeometry x="305" y="530" width="80" height="80" as="geometry" />
        </mxCell>
        <mxCell id="qt89t0T1T1_ALbszv5wi-25" value="" style="endArrow=none;html=1;rounded=0;entryX=0;entryY=0.25;entryDx=0;entryDy=0;" edge="1" parent="1" source="qt89t0T1T1_ALbszv5wi-28" target="Id1UVdJOZt5HCmLUiaCQ-126">
          <mxGeometry width="50" height="50" relative="1" as="geometry">
            <mxPoint x="-550" y="940" as="sourcePoint" />
            <mxPoint x="-10" y="830" as="targetPoint" />
          </mxGeometry>
        </mxCell>
        <mxCell id="qt89t0T1T1_ALbszv5wi-27" value="" style="endArrow=none;html=1;rounded=0;exitX=0.5;exitY=0;exitDx=0;exitDy=0;entryX=0.5;entryY=1;entryDx=0;entryDy=0;" edge="1" parent="1" source="Id1UVdJOZt5HCmLUiaCQ-53" target="Id1UVdJOZt5HCmLUiaCQ-150">
          <mxGeometry width="50" height="50" relative="1" as="geometry">
            <mxPoint x="-50" y="870" as="sourcePoint" />
            <mxPoint y="820" as="targetPoint" />
          </mxGeometry>
        </mxCell>
        <mxCell id="qt89t0T1T1_ALbszv5wi-29" value="" style="endArrow=none;html=1;rounded=0;entryX=0;entryY=0.5;entryDx=0;entryDy=0;exitX=1;exitY=0.5;exitDx=0;exitDy=0;" edge="1" parent="1" source="_e2x4P_5BLsxtzpZjAKO-55" target="qt89t0T1T1_ALbszv5wi-28">
          <mxGeometry width="50" height="50" relative="1" as="geometry">
            <mxPoint x="-550" y="940" as="sourcePoint" />
            <mxPoint x="250" y="950" as="targetPoint" />
          </mxGeometry>
        </mxCell>
        <mxCell id="qt89t0T1T1_ALbszv5wi-28" value="Lists" style="rhombus;whiteSpace=wrap;html=1;" vertex="1" parent="1">
          <mxGeometry x="-490" y="910" width="80" height="80" as="geometry" />
        </mxCell>
        <mxCell id="qt89t0T1T1_ALbszv5wi-30" value="Event" style="rounded=0;whiteSpace=wrap;html=1;" vertex="1" parent="1">
          <mxGeometry x="231" y="2280" width="160" height="60" as="geometry" />
        </mxCell>
        <mxCell id="qt89t0T1T1_ALbszv5wi-31" value="Date" style="ellipse;whiteSpace=wrap;html=1;" vertex="1" parent="1">
          <mxGeometry x="483.75" y="2420" width="120" height="50" as="geometry" />
        </mxCell>
        <mxCell id="qt89t0T1T1_ALbszv5wi-32" value="Event_Name" style="ellipse;whiteSpace=wrap;html=1;" vertex="1" parent="1">
          <mxGeometry x="-60" y="2420" width="120" height="50" as="geometry" />
        </mxCell>
        <mxCell id="qt89t0T1T1_ALbszv5wi-33" value="Description" style="ellipse;whiteSpace=wrap;html=1;" vertex="1" parent="1">
          <mxGeometry x="473.75" y="2140" width="120" height="50" as="geometry" />
        </mxCell>
        <mxCell id="qt89t0T1T1_ALbszv5wi-34" value="" style="endArrow=none;html=1;rounded=0;entryX=0;entryY=0.5;entryDx=0;entryDy=0;exitX=1;exitY=1;exitDx=0;exitDy=0;" edge="1" parent="1" source="qt89t0T1T1_ALbszv5wi-30" target="qt89t0T1T1_ALbszv5wi-31">
          <mxGeometry width="50" height="50" relative="1" as="geometry">
            <mxPoint x="363.75" y="2285" as="sourcePoint" />
            <mxPoint x="413.75" y="2235" as="targetPoint" />
          </mxGeometry>
        </mxCell>
        <mxCell id="qt89t0T1T1_ALbszv5wi-35" value="" style="endArrow=none;html=1;rounded=0;entryX=0;entryY=0.5;entryDx=0;entryDy=0;exitX=1;exitY=0;exitDx=0;exitDy=0;" edge="1" parent="1" source="qt89t0T1T1_ALbszv5wi-30" target="qt89t0T1T1_ALbszv5wi-33">
          <mxGeometry width="50" height="50" relative="1" as="geometry">
            <mxPoint x="43.75" y="2215" as="sourcePoint" />
            <mxPoint x="423.75" y="2245" as="targetPoint" />
          </mxGeometry>
        </mxCell>
        <mxCell id="qt89t0T1T1_ALbszv5wi-36" value="" style="endArrow=none;html=1;rounded=0;exitX=1;exitY=0.5;exitDx=0;exitDy=0;entryX=0;entryY=1;entryDx=0;entryDy=0;" edge="1" parent="1" source="qt89t0T1T1_ALbszv5wi-32" target="qt89t0T1T1_ALbszv5wi-30">
          <mxGeometry width="50" height="50" relative="1" as="geometry">
            <mxPoint x="413.75" y="2335" as="sourcePoint" />
            <mxPoint x="193.75" y="2265" as="targetPoint" />
          </mxGeometry>
        </mxCell>
        <mxCell id="qt89t0T1T1_ALbszv5wi-37" value="&lt;u&gt;&lt;b&gt;Event_ID&lt;/b&gt;&lt;/u&gt;" style="ellipse;whiteSpace=wrap;html=1;" vertex="1" parent="1">
          <mxGeometry x="-55" y="2140" width="120" height="50" as="geometry" />
        </mxCell>
        <mxCell id="qt89t0T1T1_ALbszv5wi-38" value="" style="endArrow=none;html=1;rounded=0;exitX=1;exitY=0.5;exitDx=0;exitDy=0;entryX=0;entryY=0;entryDx=0;entryDy=0;" edge="1" parent="1" source="qt89t0T1T1_ALbszv5wi-37" target="qt89t0T1T1_ALbszv5wi-30">
          <mxGeometry width="50" height="50" relative="1" as="geometry">
            <mxPoint x="413.75" y="2275" as="sourcePoint" />
            <mxPoint x="463.75" y="2225" as="targetPoint" />
          </mxGeometry>
        </mxCell>
        <mxCell id="qt89t0T1T1_ALbszv5wi-39" value="" style="endArrow=none;html=1;rounded=0;entryX=0.5;entryY=1;entryDx=0;entryDy=0;exitX=0.5;exitY=0;exitDx=0;exitDy=0;" edge="1" parent="1" source="qt89t0T1T1_ALbszv5wi-40" target="Id1UVdJOZt5HCmLUiaCQ-111">
          <mxGeometry width="50" height="50" relative="1" as="geometry">
            <mxPoint x="620" y="2230" as="sourcePoint" />
            <mxPoint x="670" y="2180" as="targetPoint" />
          </mxGeometry>
        </mxCell>
        <mxCell id="qt89t0T1T1_ALbszv5wi-41" value="" style="endArrow=none;html=1;rounded=0;entryX=0.5;entryY=1;entryDx=0;entryDy=0;exitX=0.5;exitY=0;exitDx=0;exitDy=0;" edge="1" parent="1" source="qt89t0T1T1_ALbszv5wi-30" target="qt89t0T1T1_ALbszv5wi-40">
          <mxGeometry width="50" height="50" relative="1" as="geometry">
            <mxPoint x="310" y="2280" as="sourcePoint" />
            <mxPoint x="310" y="1655" as="targetPoint" />
          </mxGeometry>
        </mxCell>
        <mxCell id="qt89t0T1T1_ALbszv5wi-40" value="organizes" style="rhombus;whiteSpace=wrap;html=1;" vertex="1" parent="1">
          <mxGeometry x="270" y="1915" width="80" height="80" as="geometry" />
        </mxCell>
        <mxCell id="K0a8sZzFn4CJkZS0wyN5-1" value="Field_Offices" style="rounded=0;whiteSpace=wrap;html=1;" vertex="1" parent="1">
          <mxGeometry x="4367.5" y="1125" width="160" height="60" as="geometry" />
        </mxCell>
        <mxCell id="K0a8sZzFn4CJkZS0wyN5-2" value="email" style="ellipse;whiteSpace=wrap;html=1;" vertex="1" parent="1">
          <mxGeometry x="4637.5" y="1245" width="120" height="50" as="geometry" />
        </mxCell>
        <mxCell id="K0a8sZzFn4CJkZS0wyN5-3" value="Address" style="ellipse;whiteSpace=wrap;html=1;" vertex="1" parent="1">
          <mxGeometry x="4117.5" y="1245" width="120" height="50" as="geometry" />
        </mxCell>
        <mxCell id="K0a8sZzFn4CJkZS0wyN5-5" value="" style="endArrow=none;html=1;rounded=0;entryX=0;entryY=0.5;entryDx=0;entryDy=0;exitX=1;exitY=1;exitDx=0;exitDy=0;" edge="1" parent="1" source="K0a8sZzFn4CJkZS0wyN5-1" target="K0a8sZzFn4CJkZS0wyN5-2">
          <mxGeometry width="50" height="50" relative="1" as="geometry">
            <mxPoint x="4517.5" y="1130" as="sourcePoint" />
            <mxPoint x="4567.5" y="1080" as="targetPoint" />
          </mxGeometry>
        </mxCell>
        <mxCell id="K0a8sZzFn4CJkZS0wyN5-6" value="" style="endArrow=none;html=1;rounded=0;entryX=0;entryY=0.5;entryDx=0;entryDy=0;exitX=1;exitY=0;exitDx=0;exitDy=0;" edge="1" parent="1" source="K0a8sZzFn4CJkZS0wyN5-1" target="ma1lkNGCZDMTtBgCC7WY-44">
          <mxGeometry width="50" height="50" relative="1" as="geometry">
            <mxPoint x="4197.5" y="1060" as="sourcePoint" />
            <mxPoint x="4620" y="1040" as="targetPoint" />
          </mxGeometry>
        </mxCell>
        <mxCell id="K0a8sZzFn4CJkZS0wyN5-7" value="" style="endArrow=none;html=1;rounded=0;exitX=1;exitY=0.5;exitDx=0;exitDy=0;entryX=0;entryY=1;entryDx=0;entryDy=0;" edge="1" parent="1" source="K0a8sZzFn4CJkZS0wyN5-3" target="K0a8sZzFn4CJkZS0wyN5-1">
          <mxGeometry width="50" height="50" relative="1" as="geometry">
            <mxPoint x="4567.5" y="1180" as="sourcePoint" />
            <mxPoint x="4347.5" y="1110" as="targetPoint" />
          </mxGeometry>
        </mxCell>
        <mxCell id="K0a8sZzFn4CJkZS0wyN5-8" value="&lt;u&gt;&lt;b&gt;office_ID&lt;/b&gt;&lt;/u&gt;" style="ellipse;whiteSpace=wrap;html=1;" vertex="1" parent="1">
          <mxGeometry x="4070" y="1005" width="120" height="50" as="geometry" />
        </mxCell>
        <mxCell id="K0a8sZzFn4CJkZS0wyN5-9" value="" style="endArrow=none;html=1;rounded=0;exitX=1;exitY=0.5;exitDx=0;exitDy=0;entryX=0;entryY=0;entryDx=0;entryDy=0;" edge="1" parent="1" source="K0a8sZzFn4CJkZS0wyN5-8" target="K0a8sZzFn4CJkZS0wyN5-1">
          <mxGeometry width="50" height="50" relative="1" as="geometry">
            <mxPoint x="4567.5" y="1120" as="sourcePoint" />
            <mxPoint x="4617.5" y="1070" as="targetPoint" />
          </mxGeometry>
        </mxCell>
        <mxCell id="K0a8sZzFn4CJkZS0wyN5-11" value="Street" style="ellipse;whiteSpace=wrap;html=1;" vertex="1" parent="1">
          <mxGeometry x="3850" y="1285" width="120" height="50" as="geometry" />
        </mxCell>
        <mxCell id="K0a8sZzFn4CJkZS0wyN5-12" value="Pin_code" style="ellipse;whiteSpace=wrap;html=1;" vertex="1" parent="1">
          <mxGeometry x="4390" y="1385" width="120" height="50" as="geometry" />
        </mxCell>
        <mxCell id="K0a8sZzFn4CJkZS0wyN5-13" value="Apartment" style="ellipse;whiteSpace=wrap;html=1;" vertex="1" parent="1">
          <mxGeometry x="3850" y="1200" width="120" height="50" as="geometry" />
        </mxCell>
        <mxCell id="K0a8sZzFn4CJkZS0wyN5-14" value="City" style="ellipse;whiteSpace=wrap;html=1;" vertex="1" parent="1">
          <mxGeometry x="4387.5" y="1315" width="120" height="50" as="geometry" />
        </mxCell>
        <mxCell id="K0a8sZzFn4CJkZS0wyN5-15" value="office_name" style="ellipse;whiteSpace=wrap;html=1;" vertex="1" parent="1">
          <mxGeometry x="4140" y="890" width="120" height="50" as="geometry" />
        </mxCell>
        <mxCell id="K0a8sZzFn4CJkZS0wyN5-16" value="" style="endArrow=none;html=1;rounded=0;entryX=0.5;entryY=1;entryDx=0;entryDy=0;exitX=0;exitY=0;exitDx=0;exitDy=0;" edge="1" parent="1" source="K0a8sZzFn4CJkZS0wyN5-1" target="K0a8sZzFn4CJkZS0wyN5-15">
          <mxGeometry width="50" height="50" relative="1" as="geometry">
            <mxPoint x="4100" y="1170" as="sourcePoint" />
            <mxPoint x="4227.5" y="935" as="targetPoint" />
          </mxGeometry>
        </mxCell>
        <mxCell id="K0a8sZzFn4CJkZS0wyN5-17" value="" style="endArrow=none;html=1;rounded=0;entryX=1;entryY=0.5;entryDx=0;entryDy=0;exitX=0;exitY=0.5;exitDx=0;exitDy=0;" edge="1" parent="1" source="K0a8sZzFn4CJkZS0wyN5-3" target="K0a8sZzFn4CJkZS0wyN5-13">
          <mxGeometry width="50" height="50" relative="1" as="geometry">
            <mxPoint x="4140" y="1290" as="sourcePoint" />
            <mxPoint x="4190" y="1240" as="targetPoint" />
          </mxGeometry>
        </mxCell>
        <mxCell id="K0a8sZzFn4CJkZS0wyN5-18" value="" style="endArrow=none;html=1;rounded=0;exitX=1;exitY=0.5;exitDx=0;exitDy=0;entryX=0;entryY=0.5;entryDx=0;entryDy=0;" edge="1" parent="1" source="K0a8sZzFn4CJkZS0wyN5-11" target="K0a8sZzFn4CJkZS0wyN5-3">
          <mxGeometry width="50" height="50" relative="1" as="geometry">
            <mxPoint x="4140" y="1290" as="sourcePoint" />
            <mxPoint x="4190" y="1240" as="targetPoint" />
          </mxGeometry>
        </mxCell>
        <mxCell id="K0a8sZzFn4CJkZS0wyN5-19" value="" style="endArrow=none;html=1;rounded=0;exitX=0;exitY=0.5;exitDx=0;exitDy=0;entryX=1;entryY=0.5;entryDx=0;entryDy=0;" edge="1" parent="1" source="K0a8sZzFn4CJkZS0wyN5-12" target="K0a8sZzFn4CJkZS0wyN5-3">
          <mxGeometry width="50" height="50" relative="1" as="geometry">
            <mxPoint x="4140" y="1290" as="sourcePoint" />
            <mxPoint x="4190" y="1240" as="targetPoint" />
          </mxGeometry>
        </mxCell>
        <mxCell id="K0a8sZzFn4CJkZS0wyN5-20" value="" style="endArrow=none;html=1;rounded=0;exitX=0;exitY=0.5;exitDx=0;exitDy=0;entryX=1;entryY=0.5;entryDx=0;entryDy=0;" edge="1" parent="1" source="K0a8sZzFn4CJkZS0wyN5-14" target="K0a8sZzFn4CJkZS0wyN5-3">
          <mxGeometry width="50" height="50" relative="1" as="geometry">
            <mxPoint x="4140" y="1290" as="sourcePoint" />
            <mxPoint x="4190" y="1240" as="targetPoint" />
          </mxGeometry>
        </mxCell>
        <mxCell id="K0a8sZzFn4CJkZS0wyN5-21" value="BurnRestriction" style="rounded=0;whiteSpace=wrap;html=1;" vertex="1" parent="1">
          <mxGeometry x="2030" y="168" width="160" height="60" as="geometry" />
        </mxCell>
        <mxCell id="K0a8sZzFn4CJkZS0wyN5-22" value="Burn_Allowed_To" style="ellipse;whiteSpace=wrap;html=1;" vertex="1" parent="1">
          <mxGeometry x="2300" y="308" width="120" height="50" as="geometry" />
        </mxCell>
        <mxCell id="K0a8sZzFn4CJkZS0wyN5-24" value="Burn_Status" style="ellipse;whiteSpace=wrap;html=1;" vertex="1" parent="1">
          <mxGeometry x="1755" y="308" width="120" height="50" as="geometry" />
        </mxCell>
        <mxCell id="K0a8sZzFn4CJkZS0wyN5-25" value="Burn_Allowed_From" style="ellipse;whiteSpace=wrap;html=1;" vertex="1" parent="1">
          <mxGeometry x="2290" y="68" width="120" height="50" as="geometry" />
        </mxCell>
        <mxCell id="K0a8sZzFn4CJkZS0wyN5-26" value="" style="endArrow=none;html=1;rounded=0;entryX=0;entryY=0.5;entryDx=0;entryDy=0;exitX=1;exitY=1;exitDx=0;exitDy=0;" edge="1" parent="1" source="K0a8sZzFn4CJkZS0wyN5-21" target="K0a8sZzFn4CJkZS0wyN5-22">
          <mxGeometry width="50" height="50" relative="1" as="geometry">
            <mxPoint x="2180" y="173" as="sourcePoint" />
            <mxPoint x="2230" y="123" as="targetPoint" />
          </mxGeometry>
        </mxCell>
        <mxCell id="K0a8sZzFn4CJkZS0wyN5-27" value="" style="endArrow=none;html=1;rounded=0;entryX=0;entryY=0.5;entryDx=0;entryDy=0;exitX=1;exitY=0;exitDx=0;exitDy=0;" edge="1" parent="1" source="K0a8sZzFn4CJkZS0wyN5-21" target="K0a8sZzFn4CJkZS0wyN5-25">
          <mxGeometry width="50" height="50" relative="1" as="geometry">
            <mxPoint x="1860" y="103" as="sourcePoint" />
            <mxPoint x="2240" y="133" as="targetPoint" />
          </mxGeometry>
        </mxCell>
        <mxCell id="K0a8sZzFn4CJkZS0wyN5-28" value="" style="endArrow=none;html=1;rounded=0;exitX=1;exitY=0.5;exitDx=0;exitDy=0;entryX=0;entryY=0.5;entryDx=0;entryDy=0;" edge="1" parent="1" source="K0a8sZzFn4CJkZS0wyN5-88" target="K0a8sZzFn4CJkZS0wyN5-21">
          <mxGeometry width="50" height="50" relative="1" as="geometry">
            <mxPoint x="1865" y="188" as="sourcePoint" />
            <mxPoint x="2260" y="153" as="targetPoint" />
          </mxGeometry>
        </mxCell>
        <mxCell id="K0a8sZzFn4CJkZS0wyN5-29" value="" style="endArrow=none;html=1;rounded=0;exitX=1;exitY=0.5;exitDx=0;exitDy=0;entryX=0;entryY=1;entryDx=0;entryDy=0;" edge="1" parent="1" source="K0a8sZzFn4CJkZS0wyN5-24" target="K0a8sZzFn4CJkZS0wyN5-21">
          <mxGeometry width="50" height="50" relative="1" as="geometry">
            <mxPoint x="2230" y="223" as="sourcePoint" />
            <mxPoint x="2010" y="153" as="targetPoint" />
          </mxGeometry>
        </mxCell>
        <mxCell id="K0a8sZzFn4CJkZS0wyN5-32" value="Additional_Restrictions" style="ellipse;whiteSpace=wrap;html=1;" vertex="1" parent="1">
          <mxGeometry x="2285" y="-22" width="130" height="50" as="geometry" />
        </mxCell>
        <mxCell id="K0a8sZzFn4CJkZS0wyN5-33" value="" style="endArrow=none;html=1;rounded=0;entryX=0;entryY=0.5;entryDx=0;entryDy=0;exitX=1;exitY=0;exitDx=0;exitDy=0;" edge="1" parent="1" source="K0a8sZzFn4CJkZS0wyN5-21" target="K0a8sZzFn4CJkZS0wyN5-32">
          <mxGeometry width="50" height="50" relative="1" as="geometry">
            <mxPoint x="2200" y="173" as="sourcePoint" />
            <mxPoint x="2295" y="73" as="targetPoint" />
          </mxGeometry>
        </mxCell>
        <mxCell id="K0a8sZzFn4CJkZS0wyN5-34" value="FAQ" style="rounded=0;whiteSpace=wrap;html=1;" vertex="1" parent="1">
          <mxGeometry x="-450" y="-95" width="160" height="60" as="geometry" />
        </mxCell>
        <mxCell id="K0a8sZzFn4CJkZS0wyN5-35" value="Answer" style="ellipse;whiteSpace=wrap;html=1;" vertex="1" parent="1">
          <mxGeometry x="-180" y="40" width="120" height="50" as="geometry" />
        </mxCell>
        <mxCell id="K0a8sZzFn4CJkZS0wyN5-36" value="Category" style="ellipse;whiteSpace=wrap;html=1;" vertex="1" parent="1">
          <mxGeometry x="-700" y="40" width="120" height="50" as="geometry" />
        </mxCell>
        <mxCell id="K0a8sZzFn4CJkZS0wyN5-37" value="Question" style="ellipse;whiteSpace=wrap;html=1;" vertex="1" parent="1">
          <mxGeometry x="-190" y="-230" width="120" height="50" as="geometry" />
        </mxCell>
        <mxCell id="K0a8sZzFn4CJkZS0wyN5-38" value="" style="endArrow=none;html=1;rounded=0;entryX=0;entryY=0.5;entryDx=0;entryDy=0;exitX=1;exitY=1;exitDx=0;exitDy=0;" edge="1" parent="1" source="K0a8sZzFn4CJkZS0wyN5-34" target="K0a8sZzFn4CJkZS0wyN5-35">
          <mxGeometry width="50" height="50" relative="1" as="geometry">
            <mxPoint x="-300" y="-85" as="sourcePoint" />
            <mxPoint x="-250" y="-135" as="targetPoint" />
          </mxGeometry>
        </mxCell>
        <mxCell id="K0a8sZzFn4CJkZS0wyN5-39" value="" style="endArrow=none;html=1;rounded=0;entryX=0;entryY=0.5;entryDx=0;entryDy=0;exitX=1;exitY=0;exitDx=0;exitDy=0;" edge="1" parent="1" source="K0a8sZzFn4CJkZS0wyN5-34" target="K0a8sZzFn4CJkZS0wyN5-37">
          <mxGeometry width="50" height="50" relative="1" as="geometry">
            <mxPoint x="-620" y="-155" as="sourcePoint" />
            <mxPoint x="-240" y="-125" as="targetPoint" />
          </mxGeometry>
        </mxCell>
        <mxCell id="K0a8sZzFn4CJkZS0wyN5-40" value="" style="endArrow=none;html=1;rounded=0;exitX=1;exitY=0.5;exitDx=0;exitDy=0;entryX=0;entryY=1;entryDx=0;entryDy=0;" edge="1" parent="1" source="K0a8sZzFn4CJkZS0wyN5-36" target="K0a8sZzFn4CJkZS0wyN5-34">
          <mxGeometry width="50" height="50" relative="1" as="geometry">
            <mxPoint x="-250" y="-35" as="sourcePoint" />
            <mxPoint x="-470" y="-105" as="targetPoint" />
          </mxGeometry>
        </mxCell>
        <mxCell id="K0a8sZzFn4CJkZS0wyN5-41" value="&lt;u&gt;&lt;b&gt;FAQ_ID&lt;/b&gt;&lt;/u&gt;" style="ellipse;whiteSpace=wrap;html=1;" vertex="1" parent="1">
          <mxGeometry x="-695" y="-230" width="120" height="50" as="geometry" />
        </mxCell>
        <mxCell id="K0a8sZzFn4CJkZS0wyN5-42" value="" style="endArrow=none;html=1;rounded=0;exitX=1;exitY=0.5;exitDx=0;exitDy=0;entryX=0;entryY=0;entryDx=0;entryDy=0;" edge="1" parent="1" source="K0a8sZzFn4CJkZS0wyN5-41" target="K0a8sZzFn4CJkZS0wyN5-34">
          <mxGeometry width="50" height="50" relative="1" as="geometry">
            <mxPoint x="-250" y="-95" as="sourcePoint" />
            <mxPoint x="-200" y="-145" as="targetPoint" />
          </mxGeometry>
        </mxCell>
        <mxCell id="K0a8sZzFn4CJkZS0wyN5-43" value="Department" style="rounded=0;whiteSpace=wrap;html=1;" vertex="1" parent="1">
          <mxGeometry x="2980" y="1610" width="120" height="60" as="geometry" />
        </mxCell>
        <mxCell id="K0a8sZzFn4CJkZS0wyN5-44" value="Department_Name" style="ellipse;whiteSpace=wrap;html=1;" vertex="1" parent="1">
          <mxGeometry x="3195" y="1450" width="120" height="50" as="geometry" />
        </mxCell>
        <mxCell id="K0a8sZzFn4CJkZS0wyN5-45" value="Contact_Information" style="ellipse;whiteSpace=wrap;html=1;" vertex="1" parent="1">
          <mxGeometry x="3205" y="1720" width="120" height="50" as="geometry" />
        </mxCell>
        <mxCell id="K0a8sZzFn4CJkZS0wyN5-48" value="Description" style="ellipse;whiteSpace=wrap;html=1;" vertex="1" parent="1">
          <mxGeometry x="2715" y="1710" width="120" height="50" as="geometry" />
        </mxCell>
        <mxCell id="K0a8sZzFn4CJkZS0wyN5-49" value="&lt;u&gt;&lt;b&gt;Department_ID &lt;/b&gt;&lt;/u&gt;" style="ellipse;whiteSpace=wrap;html=1;" vertex="1" parent="1">
          <mxGeometry x="2715" y="1450" width="120" height="50" as="geometry" />
        </mxCell>
        <mxCell id="K0a8sZzFn4CJkZS0wyN5-51" value="" style="endArrow=none;html=1;rounded=0;entryX=1;entryY=0.5;entryDx=0;entryDy=0;exitX=0;exitY=0;exitDx=0;exitDy=0;" edge="1" parent="1" source="K0a8sZzFn4CJkZS0wyN5-43" target="K0a8sZzFn4CJkZS0wyN5-49">
          <mxGeometry width="50" height="50" relative="1" as="geometry">
            <mxPoint x="2806.25" y="1525" as="sourcePoint" />
            <mxPoint x="3186.25" y="1555" as="targetPoint" />
          </mxGeometry>
        </mxCell>
        <mxCell id="K0a8sZzFn4CJkZS0wyN5-52" value="" style="endArrow=none;html=1;rounded=0;exitX=0;exitY=0.5;exitDx=0;exitDy=0;entryX=1;entryY=0;entryDx=0;entryDy=0;" edge="1" parent="1" source="K0a8sZzFn4CJkZS0wyN5-44" target="K0a8sZzFn4CJkZS0wyN5-43">
          <mxGeometry width="50" height="50" relative="1" as="geometry">
            <mxPoint x="3146.25" y="1615" as="sourcePoint" />
            <mxPoint x="3196.25" y="1565" as="targetPoint" />
          </mxGeometry>
        </mxCell>
        <mxCell id="K0a8sZzFn4CJkZS0wyN5-54" value="" style="endArrow=none;html=1;rounded=0;exitX=1;exitY=0.5;exitDx=0;exitDy=0;entryX=0;entryY=1;entryDx=0;entryDy=0;" edge="1" parent="1" source="K0a8sZzFn4CJkZS0wyN5-48" target="K0a8sZzFn4CJkZS0wyN5-43">
          <mxGeometry width="50" height="50" relative="1" as="geometry">
            <mxPoint x="3176.25" y="1645" as="sourcePoint" />
            <mxPoint x="2956.25" y="1575" as="targetPoint" />
          </mxGeometry>
        </mxCell>
        <mxCell id="K0a8sZzFn4CJkZS0wyN5-55" value="" style="endArrow=none;html=1;rounded=0;exitX=0;exitY=0.5;exitDx=0;exitDy=0;entryX=1;entryY=1;entryDx=0;entryDy=0;" edge="1" parent="1" source="K0a8sZzFn4CJkZS0wyN5-45" target="K0a8sZzFn4CJkZS0wyN5-43">
          <mxGeometry width="50" height="50" relative="1" as="geometry">
            <mxPoint x="3186.25" y="1655" as="sourcePoint" />
            <mxPoint x="3236.25" y="1605" as="targetPoint" />
          </mxGeometry>
        </mxCell>
        <mxCell id="K0a8sZzFn4CJkZS0wyN5-56" value="Program" style="rounded=0;whiteSpace=wrap;html=1;" vertex="1" parent="1">
          <mxGeometry x="1820" y="1610" width="120" height="60" as="geometry" />
        </mxCell>
        <mxCell id="K0a8sZzFn4CJkZS0wyN5-57" value="Program_Name" style="ellipse;whiteSpace=wrap;html=1;" vertex="1" parent="1">
          <mxGeometry x="2045" y="1467.5" width="120" height="50" as="geometry" />
        </mxCell>
        <mxCell id="K0a8sZzFn4CJkZS0wyN5-58" value="Contact_Information" style="ellipse;whiteSpace=wrap;html=1;" vertex="1" parent="1">
          <mxGeometry x="2055" y="1737.5" width="120" height="50" as="geometry" />
        </mxCell>
        <mxCell id="K0a8sZzFn4CJkZS0wyN5-59" value="Description" style="ellipse;whiteSpace=wrap;html=1;" vertex="1" parent="1">
          <mxGeometry x="1565" y="1727.5" width="120" height="50" as="geometry" />
        </mxCell>
        <mxCell id="K0a8sZzFn4CJkZS0wyN5-60" value="&lt;u&gt;&lt;b&gt;Program_ID  &lt;/b&gt;&lt;/u&gt;" style="ellipse;whiteSpace=wrap;html=1;" vertex="1" parent="1">
          <mxGeometry x="1565" y="1467.5" width="120" height="50" as="geometry" />
        </mxCell>
        <mxCell id="K0a8sZzFn4CJkZS0wyN5-61" value="" style="endArrow=none;html=1;rounded=0;entryX=1;entryY=0.5;entryDx=0;entryDy=0;exitX=0;exitY=0;exitDx=0;exitDy=0;" edge="1" parent="1" source="K0a8sZzFn4CJkZS0wyN5-56" target="K0a8sZzFn4CJkZS0wyN5-60">
          <mxGeometry width="50" height="50" relative="1" as="geometry">
            <mxPoint x="1656.25" y="1542.5" as="sourcePoint" />
            <mxPoint x="2036.25" y="1572.5" as="targetPoint" />
          </mxGeometry>
        </mxCell>
        <mxCell id="K0a8sZzFn4CJkZS0wyN5-62" value="" style="endArrow=none;html=1;rounded=0;exitX=0;exitY=0.5;exitDx=0;exitDy=0;entryX=1;entryY=0;entryDx=0;entryDy=0;" edge="1" parent="1" source="K0a8sZzFn4CJkZS0wyN5-57" target="K0a8sZzFn4CJkZS0wyN5-56">
          <mxGeometry width="50" height="50" relative="1" as="geometry">
            <mxPoint x="1996.25" y="1632.5" as="sourcePoint" />
            <mxPoint x="2046.25" y="1582.5" as="targetPoint" />
          </mxGeometry>
        </mxCell>
        <mxCell id="K0a8sZzFn4CJkZS0wyN5-63" value="" style="endArrow=none;html=1;rounded=0;exitX=1;exitY=0.5;exitDx=0;exitDy=0;entryX=0;entryY=1;entryDx=0;entryDy=0;" edge="1" parent="1" source="K0a8sZzFn4CJkZS0wyN5-59" target="K0a8sZzFn4CJkZS0wyN5-56">
          <mxGeometry width="50" height="50" relative="1" as="geometry">
            <mxPoint x="2026.25" y="1662.5" as="sourcePoint" />
            <mxPoint x="1806.25" y="1592.5" as="targetPoint" />
          </mxGeometry>
        </mxCell>
        <mxCell id="K0a8sZzFn4CJkZS0wyN5-64" value="" style="endArrow=none;html=1;rounded=0;exitX=0;exitY=0.5;exitDx=0;exitDy=0;entryX=1;entryY=1;entryDx=0;entryDy=0;" edge="1" parent="1" source="K0a8sZzFn4CJkZS0wyN5-58" target="K0a8sZzFn4CJkZS0wyN5-56">
          <mxGeometry width="50" height="50" relative="1" as="geometry">
            <mxPoint x="2036.25" y="1672.5" as="sourcePoint" />
            <mxPoint x="2086.25" y="1622.5" as="targetPoint" />
          </mxGeometry>
        </mxCell>
        <mxCell id="K0a8sZzFn4CJkZS0wyN5-65" value="Projects" style="rounded=0;whiteSpace=wrap;html=1;" vertex="1" parent="1">
          <mxGeometry x="3011.25" y="2765" width="120" height="60" as="geometry" />
        </mxCell>
        <mxCell id="K0a8sZzFn4CJkZS0wyN5-66" value="Project_Name" style="ellipse;whiteSpace=wrap;html=1;" vertex="1" parent="1">
          <mxGeometry x="3230" y="2615" width="120" height="50" as="geometry" />
        </mxCell>
        <mxCell id="K0a8sZzFn4CJkZS0wyN5-67" value="Start_Date" style="ellipse;whiteSpace=wrap;html=1;" vertex="1" parent="1">
          <mxGeometry x="3240" y="2885" width="120" height="50" as="geometry" />
        </mxCell>
        <mxCell id="K0a8sZzFn4CJkZS0wyN5-68" value="Description" style="ellipse;whiteSpace=wrap;html=1;" vertex="1" parent="1">
          <mxGeometry x="2750" y="2890" width="120" height="50" as="geometry" />
        </mxCell>
        <mxCell id="K0a8sZzFn4CJkZS0wyN5-69" value="&lt;b&gt;Project_ID&lt;/b&gt;" style="ellipse;whiteSpace=wrap;html=1;" vertex="1" parent="1">
          <mxGeometry x="2750" y="2630" width="120" height="50" as="geometry" />
        </mxCell>
        <mxCell id="K0a8sZzFn4CJkZS0wyN5-70" value="" style="endArrow=none;html=1;rounded=0;entryX=1;entryY=0.5;entryDx=0;entryDy=0;exitX=0;exitY=0;exitDx=0;exitDy=0;" edge="1" parent="1" source="K0a8sZzFn4CJkZS0wyN5-65" target="K0a8sZzFn4CJkZS0wyN5-69">
          <mxGeometry width="50" height="50" relative="1" as="geometry">
            <mxPoint x="2841.25" y="2705" as="sourcePoint" />
            <mxPoint x="3221.25" y="2735" as="targetPoint" />
          </mxGeometry>
        </mxCell>
        <mxCell id="K0a8sZzFn4CJkZS0wyN5-71" value="" style="endArrow=none;html=1;rounded=0;exitX=0;exitY=0.5;exitDx=0;exitDy=0;entryX=1;entryY=0;entryDx=0;entryDy=0;" edge="1" parent="1" source="K0a8sZzFn4CJkZS0wyN5-66" target="K0a8sZzFn4CJkZS0wyN5-65">
          <mxGeometry width="50" height="50" relative="1" as="geometry">
            <mxPoint x="3181.25" y="2795" as="sourcePoint" />
            <mxPoint x="3231.25" y="2745" as="targetPoint" />
          </mxGeometry>
        </mxCell>
        <mxCell id="K0a8sZzFn4CJkZS0wyN5-72" value="" style="endArrow=none;html=1;rounded=0;exitX=1;exitY=0.5;exitDx=0;exitDy=0;entryX=0;entryY=1;entryDx=0;entryDy=0;" edge="1" parent="1" source="K0a8sZzFn4CJkZS0wyN5-68" target="K0a8sZzFn4CJkZS0wyN5-65">
          <mxGeometry width="50" height="50" relative="1" as="geometry">
            <mxPoint x="3211.25" y="2825" as="sourcePoint" />
            <mxPoint x="2991.25" y="2755" as="targetPoint" />
          </mxGeometry>
        </mxCell>
        <mxCell id="K0a8sZzFn4CJkZS0wyN5-73" value="" style="endArrow=none;html=1;rounded=0;exitX=0;exitY=0.5;exitDx=0;exitDy=0;entryX=1;entryY=1;entryDx=0;entryDy=0;" edge="1" parent="1" source="K0a8sZzFn4CJkZS0wyN5-67" target="K0a8sZzFn4CJkZS0wyN5-65">
          <mxGeometry width="50" height="50" relative="1" as="geometry">
            <mxPoint x="3221.25" y="2835" as="sourcePoint" />
            <mxPoint x="3271.25" y="2785" as="targetPoint" />
          </mxGeometry>
        </mxCell>
        <mxCell id="K0a8sZzFn4CJkZS0wyN5-74" value="End_Date" style="ellipse;whiteSpace=wrap;html=1;" vertex="1" parent="1">
          <mxGeometry x="3240" y="2960" width="120" height="50" as="geometry" />
        </mxCell>
        <mxCell id="K0a8sZzFn4CJkZS0wyN5-75" value="Status" style="ellipse;whiteSpace=wrap;html=1;" vertex="1" parent="1">
          <mxGeometry x="3230" y="2540" width="120" height="50" as="geometry" />
        </mxCell>
        <mxCell id="K0a8sZzFn4CJkZS0wyN5-76" value="" style="endArrow=none;html=1;rounded=0;entryX=0;entryY=0.5;entryDx=0;entryDy=0;exitX=1;exitY=0;exitDx=0;exitDy=0;" edge="1" parent="1" source="K0a8sZzFn4CJkZS0wyN5-65" target="K0a8sZzFn4CJkZS0wyN5-75">
          <mxGeometry width="50" height="50" relative="1" as="geometry">
            <mxPoint x="2880" y="2840" as="sourcePoint" />
            <mxPoint x="2930" y="2790" as="targetPoint" />
          </mxGeometry>
        </mxCell>
        <mxCell id="K0a8sZzFn4CJkZS0wyN5-77" value="" style="endArrow=none;html=1;rounded=0;entryX=0;entryY=0.5;entryDx=0;entryDy=0;exitX=1;exitY=1;exitDx=0;exitDy=0;" edge="1" parent="1" source="K0a8sZzFn4CJkZS0wyN5-65" target="K0a8sZzFn4CJkZS0wyN5-74">
          <mxGeometry width="50" height="50" relative="1" as="geometry">
            <mxPoint x="2880" y="2840" as="sourcePoint" />
            <mxPoint x="2930" y="2790" as="targetPoint" />
          </mxGeometry>
        </mxCell>
        <mxCell id="K0a8sZzFn4CJkZS0wyN5-78" value="has" style="rhombus;whiteSpace=wrap;html=1;" vertex="1" parent="1">
          <mxGeometry x="3000" y="1235" width="80" height="80" as="geometry" />
        </mxCell>
        <mxCell id="K0a8sZzFn4CJkZS0wyN5-79" value="" style="endArrow=none;html=1;rounded=0;entryX=0.5;entryY=1;entryDx=0;entryDy=0;exitX=0.5;exitY=0;exitDx=0;exitDy=0;" edge="1" parent="1" source="K0a8sZzFn4CJkZS0wyN5-78" target="Id1UVdJOZt5HCmLUiaCQ-87">
          <mxGeometry width="50" height="50" relative="1" as="geometry">
            <mxPoint x="2680" y="1350" as="sourcePoint" />
            <mxPoint x="2730" y="1300" as="targetPoint" />
          </mxGeometry>
        </mxCell>
        <mxCell id="K0a8sZzFn4CJkZS0wyN5-80" value="" style="endArrow=none;html=1;rounded=0;entryX=0.5;entryY=1;entryDx=0;entryDy=0;exitX=0.5;exitY=0;exitDx=0;exitDy=0;" edge="1" parent="1" source="K0a8sZzFn4CJkZS0wyN5-43" target="K0a8sZzFn4CJkZS0wyN5-78">
          <mxGeometry width="50" height="50" relative="1" as="geometry">
            <mxPoint x="2840" y="1530" as="sourcePoint" />
            <mxPoint x="2890" y="1480" as="targetPoint" />
          </mxGeometry>
        </mxCell>
        <mxCell id="K0a8sZzFn4CJkZS0wyN5-82" value="" style="endArrow=none;html=1;rounded=0;exitX=1;exitY=0.5;exitDx=0;exitDy=0;entryX=0;entryY=0.5;entryDx=0;entryDy=0;" edge="1" parent="1" source="K0a8sZzFn4CJkZS0wyN5-81" target="K0a8sZzFn4CJkZS0wyN5-43">
          <mxGeometry width="50" height="50" relative="1" as="geometry">
            <mxPoint x="2848" y="1735" as="sourcePoint" />
            <mxPoint x="2989" y="1645" as="targetPoint" />
          </mxGeometry>
        </mxCell>
        <mxCell id="K0a8sZzFn4CJkZS0wyN5-83" value="" style="endArrow=none;html=1;rounded=0;exitX=1;exitY=0.5;exitDx=0;exitDy=0;entryX=0;entryY=0.5;entryDx=0;entryDy=0;" edge="1" parent="1" source="K0a8sZzFn4CJkZS0wyN5-56" target="K0a8sZzFn4CJkZS0wyN5-81">
          <mxGeometry width="50" height="50" relative="1" as="geometry">
            <mxPoint x="1940" y="1640" as="sourcePoint" />
            <mxPoint x="2979" y="1605" as="targetPoint" />
          </mxGeometry>
        </mxCell>
        <mxCell id="K0a8sZzFn4CJkZS0wyN5-81" value="offers" style="rhombus;whiteSpace=wrap;html=1;" vertex="1" parent="1">
          <mxGeometry x="2420" y="1600" width="80" height="80" as="geometry" />
        </mxCell>
        <mxCell id="K0a8sZzFn4CJkZS0wyN5-84" value="County" style="rounded=0;whiteSpace=wrap;html=1;" vertex="1" parent="1">
          <mxGeometry x="1310" y="168" width="120" height="60" as="geometry" />
        </mxCell>
        <mxCell id="K0a8sZzFn4CJkZS0wyN5-85" value="Nova Scotia" style="rounded=0;whiteSpace=wrap;html=1;" vertex="1" parent="1">
          <mxGeometry x="1310" y="-940" width="120" height="60" as="geometry" />
        </mxCell>
        <mxCell id="K0a8sZzFn4CJkZS0wyN5-86" value="" style="endArrow=none;html=1;rounded=0;entryX=0.5;entryY=1;entryDx=0;entryDy=0;exitX=0.5;exitY=0;exitDx=0;exitDy=0;" edge="1" parent="1" source="M-rDhr7oDcNYeE7Rfrh2-7" target="K0a8sZzFn4CJkZS0wyN5-84">
          <mxGeometry width="50" height="50" relative="1" as="geometry">
            <mxPoint x="1410" y="710" as="sourcePoint" />
            <mxPoint x="1460" y="660" as="targetPoint" />
          </mxGeometry>
        </mxCell>
        <mxCell id="K0a8sZzFn4CJkZS0wyN5-87" value="" style="endArrow=none;html=1;rounded=0;entryX=0.5;entryY=1;entryDx=0;entryDy=0;exitX=0.5;exitY=0;exitDx=0;exitDy=0;" edge="1" parent="1" source="M-rDhr7oDcNYeE7Rfrh2-3" target="K0a8sZzFn4CJkZS0wyN5-85">
          <mxGeometry width="50" height="50" relative="1" as="geometry">
            <mxPoint x="1380" y="660" as="sourcePoint" />
            <mxPoint x="1380" y="580" as="targetPoint" />
          </mxGeometry>
        </mxCell>
        <mxCell id="K0a8sZzFn4CJkZS0wyN5-89" value="" style="endArrow=none;html=1;rounded=0;exitX=1;exitY=0.5;exitDx=0;exitDy=0;entryX=0;entryY=0.5;entryDx=0;entryDy=0;" edge="1" parent="1" source="K0a8sZzFn4CJkZS0wyN5-84" target="K0a8sZzFn4CJkZS0wyN5-88">
          <mxGeometry width="50" height="50" relative="1" as="geometry">
            <mxPoint x="1435" y="198" as="sourcePoint" />
            <mxPoint x="2030" y="208" as="targetPoint" />
          </mxGeometry>
        </mxCell>
        <mxCell id="K0a8sZzFn4CJkZS0wyN5-88" value="has" style="rhombus;whiteSpace=wrap;html=1;" vertex="1" parent="1">
          <mxGeometry x="1650" y="158" width="80" height="80" as="geometry" />
        </mxCell>
        <mxCell id="K0a8sZzFn4CJkZS0wyN5-90" value="has" style="rhombus;whiteSpace=wrap;html=1;" vertex="1" parent="1">
          <mxGeometry x="2570" y="2165" width="80" height="80" as="geometry" />
        </mxCell>
        <mxCell id="K0a8sZzFn4CJkZS0wyN5-91" value="" style="endArrow=none;html=1;rounded=0;entryX=0.25;entryY=1;entryDx=0;entryDy=0;exitX=1;exitY=0.5;exitDx=0;exitDy=0;" edge="1" parent="1" source="K0a8sZzFn4CJkZS0wyN5-90" target="K0a8sZzFn4CJkZS0wyN5-43">
          <mxGeometry width="50" height="50" relative="1" as="geometry">
            <mxPoint x="2590" y="1860" as="sourcePoint" />
            <mxPoint x="2640" y="1810" as="targetPoint" />
            <Array as="points">
              <mxPoint x="3010" y="2205" />
            </Array>
          </mxGeometry>
        </mxCell>
        <mxCell id="K0a8sZzFn4CJkZS0wyN5-93" value="" style="endArrow=none;html=1;rounded=0;exitX=1;exitY=0.5;exitDx=0;exitDy=0;entryX=0;entryY=0.5;entryDx=0;entryDy=0;" edge="1" parent="1" source="Id1UVdJOZt5HCmLUiaCQ-199" target="K0a8sZzFn4CJkZS0wyN5-90">
          <mxGeometry width="50" height="50" relative="1" as="geometry">
            <mxPoint x="2570" y="2160" as="sourcePoint" />
            <mxPoint x="2620" y="2110" as="targetPoint" />
          </mxGeometry>
        </mxCell>
        <mxCell id="K0a8sZzFn4CJkZS0wyN5-96" value="has" style="rhombus;whiteSpace=wrap;html=1;" vertex="1" parent="1">
          <mxGeometry x="3600" y="1120" width="80" height="80" as="geometry" />
        </mxCell>
        <mxCell id="K0a8sZzFn4CJkZS0wyN5-101" value="" style="endArrow=none;html=1;rounded=0;entryX=0;entryY=0.5;entryDx=0;entryDy=0;exitX=1;exitY=0.5;exitDx=0;exitDy=0;" edge="1" parent="1" source="K0a8sZzFn4CJkZS0wyN5-96" target="K0a8sZzFn4CJkZS0wyN5-1">
          <mxGeometry width="50" height="50" relative="1" as="geometry">
            <mxPoint x="3520" y="855" as="sourcePoint" />
            <mxPoint x="3570" y="805" as="targetPoint" />
          </mxGeometry>
        </mxCell>
        <mxCell id="K0a8sZzFn4CJkZS0wyN5-104" value="" style="endArrow=none;html=1;rounded=0;entryX=0;entryY=0.5;entryDx=0;entryDy=0;exitX=1;exitY=0;exitDx=0;exitDy=0;" edge="1" parent="1" source="K0a8sZzFn4CJkZS0wyN5-43" target="K0a8sZzFn4CJkZS0wyN5-96">
          <mxGeometry width="50" height="50" relative="1" as="geometry">
            <mxPoint x="3130" y="1000" as="sourcePoint" />
            <mxPoint x="3830" y="1890" as="targetPoint" />
            <Array as="points">
              <mxPoint x="3100" y="1160" />
            </Array>
          </mxGeometry>
        </mxCell>
        <mxCell id="K0a8sZzFn4CJkZS0wyN5-106" value="" style="endArrow=none;html=1;rounded=0;exitX=1;exitY=0.5;exitDx=0;exitDy=0;entryX=0;entryY=0.5;entryDx=0;entryDy=0;" edge="1" parent="1" source="K0a8sZzFn4CJkZS0wyN5-107" target="Id1UVdJOZt5HCmLUiaCQ-208">
          <mxGeometry width="50" height="50" relative="1" as="geometry">
            <mxPoint x="3780" y="1600" as="sourcePoint" />
            <mxPoint x="3830" y="1550" as="targetPoint" />
          </mxGeometry>
        </mxCell>
        <mxCell id="K0a8sZzFn4CJkZS0wyN5-109" value="" style="endArrow=none;html=1;rounded=0;exitX=1;exitY=0.5;exitDx=0;exitDy=0;entryX=0;entryY=0.5;entryDx=0;entryDy=0;" edge="1" parent="1" source="K0a8sZzFn4CJkZS0wyN5-43" target="K0a8sZzFn4CJkZS0wyN5-107">
          <mxGeometry width="50" height="50" relative="1" as="geometry">
            <mxPoint x="3100" y="1640" as="sourcePoint" />
            <mxPoint x="3870" y="1640" as="targetPoint" />
          </mxGeometry>
        </mxCell>
        <mxCell id="K0a8sZzFn4CJkZS0wyN5-107" value="has" style="rhombus;whiteSpace=wrap;html=1;" vertex="1" parent="1">
          <mxGeometry x="3410" y="1600" width="80" height="80" as="geometry" />
        </mxCell>
        <mxCell id="K0a8sZzFn4CJkZS0wyN5-110" value="" style="endArrow=none;html=1;rounded=0;exitX=1;exitY=0;exitDx=0;exitDy=0;entryX=0;entryY=0.5;entryDx=0;entryDy=0;" edge="1" parent="1" source="Id1UVdJOZt5HCmLUiaCQ-217" target="Id1UVdJOZt5HCmLUiaCQ-228">
          <mxGeometry width="50" height="50" relative="1" as="geometry">
            <mxPoint x="4180" y="2130" as="sourcePoint" />
            <mxPoint x="4230" y="2080" as="targetPoint" />
          </mxGeometry>
        </mxCell>
        <mxCell id="K0a8sZzFn4CJkZS0wyN5-113" value="" style="endArrow=none;html=1;rounded=0;entryX=0.5;entryY=1;entryDx=0;entryDy=0;exitX=0.5;exitY=0;exitDx=0;exitDy=0;strokeColor=#000000;" edge="1" parent="1" source="K0a8sZzFn4CJkZS0wyN5-111" target="Id1UVdJOZt5HCmLUiaCQ-208">
          <mxGeometry width="50" height="50" relative="1" as="geometry">
            <mxPoint x="3280" y="2040" as="sourcePoint" />
            <mxPoint x="3330" y="1990" as="targetPoint" />
          </mxGeometry>
        </mxCell>
        <mxCell id="K0a8sZzFn4CJkZS0wyN5-114" value="" style="endArrow=none;html=1;rounded=0;entryX=0.5;entryY=1;entryDx=0;entryDy=0;exitX=0.5;exitY=0;exitDx=0;exitDy=0;strokeColor=#000000;" edge="1" parent="1" source="Id1UVdJOZt5HCmLUiaCQ-217" target="K0a8sZzFn4CJkZS0wyN5-111">
          <mxGeometry width="50" height="50" relative="1" as="geometry">
            <mxPoint x="3950" y="2105" as="sourcePoint" />
            <mxPoint x="3950" y="1670" as="targetPoint" />
          </mxGeometry>
        </mxCell>
        <mxCell id="K0a8sZzFn4CJkZS0wyN5-111" value="offers" style="rhombus;whiteSpace=wrap;html=1;" vertex="1" parent="1">
          <mxGeometry x="3910" y="1870" width="80" height="80" as="geometry" />
        </mxCell>
        <mxCell id="K0a8sZzFn4CJkZS0wyN5-115" value="" style="endArrow=none;html=1;rounded=0;entryX=0.5;entryY=1;entryDx=0;entryDy=0;exitX=0.5;exitY=0;exitDx=0;exitDy=0;strokeColor=#000000;" edge="1" parent="1" source="K0a8sZzFn4CJkZS0wyN5-116" target="Id1UVdJOZt5HCmLUiaCQ-217">
          <mxGeometry width="50" height="50" relative="1" as="geometry">
            <mxPoint x="3280" y="2650" as="sourcePoint" />
            <mxPoint x="3330" y="2600" as="targetPoint" />
          </mxGeometry>
        </mxCell>
        <mxCell id="K0a8sZzFn4CJkZS0wyN5-117" value="" style="endArrow=none;html=1;rounded=0;entryX=0.5;entryY=1;entryDx=0;entryDy=0;exitX=0.5;exitY=0;exitDx=0;exitDy=0;strokeColor=#000000;" edge="1" parent="1" source="Id1UVdJOZt5HCmLUiaCQ-230" target="K0a8sZzFn4CJkZS0wyN5-116">
          <mxGeometry width="50" height="50" relative="1" as="geometry">
            <mxPoint x="3950" y="2715" as="sourcePoint" />
            <mxPoint x="3950" y="2165" as="targetPoint" />
          </mxGeometry>
        </mxCell>
        <mxCell id="K0a8sZzFn4CJkZS0wyN5-116" value="Teach" style="rhombus;whiteSpace=wrap;html=1;" vertex="1" parent="1">
          <mxGeometry x="3910" y="2440" width="80" height="80" as="geometry" />
        </mxCell>
        <mxCell id="K0a8sZzFn4CJkZS0wyN5-126" value="has" style="rhombus;whiteSpace=wrap;html=1;rotation=0;" vertex="1" parent="1">
          <mxGeometry x="2025" y="1200" width="80" height="80" as="geometry" />
        </mxCell>
        <mxCell id="K0a8sZzFn4CJkZS0wyN5-128" value="" style="endArrow=none;html=1;rounded=0;entryX=0;entryY=0.25;entryDx=0;entryDy=0;exitX=1;exitY=0.5;exitDx=0;exitDy=0;" edge="1" parent="1" source="K0a8sZzFn4CJkZS0wyN5-126" target="K0a8sZzFn4CJkZS0wyN5-43">
          <mxGeometry width="50" height="50" relative="1" as="geometry">
            <mxPoint x="1810" y="1280" as="sourcePoint" />
            <mxPoint x="1860" y="1230" as="targetPoint" />
            <Array as="points">
              <mxPoint x="2530" y="1240" />
              <mxPoint x="2530" y="1620" />
            </Array>
          </mxGeometry>
        </mxCell>
        <mxCell id="K0a8sZzFn4CJkZS0wyN5-131" value="" style="endArrow=none;html=1;rounded=0;entryX=0;entryY=0.5;entryDx=0;entryDy=0;exitX=0.75;exitY=1;exitDx=0;exitDy=0;" edge="1" parent="1" source="Id1UVdJOZt5HCmLUiaCQ-65" target="K0a8sZzFn4CJkZS0wyN5-126">
          <mxGeometry width="50" height="50" relative="1" as="geometry">
            <mxPoint x="1150" y="1160" as="sourcePoint" />
            <mxPoint x="2130" y="1215" as="targetPoint" />
            <Array as="points">
              <mxPoint x="850" y="1240" />
            </Array>
          </mxGeometry>
        </mxCell>
        <mxCell id="K0a8sZzFn4CJkZS0wyN5-133" value="" style="endArrow=none;html=1;rounded=0;entryX=0.25;entryY=1;entryDx=0;entryDy=0;exitX=0.5;exitY=0;exitDx=0;exitDy=0;" edge="1" parent="1" source="K0a8sZzFn4CJkZS0wyN5-134" target="Id1UVdJOZt5HCmLUiaCQ-65">
          <mxGeometry width="50" height="50" relative="1" as="geometry">
            <mxPoint x="810" y="691.7778862847222" as="sourcePoint" />
            <mxPoint x="1220" y="320" as="targetPoint" />
            <Array as="points" />
          </mxGeometry>
        </mxCell>
        <mxCell id="K0a8sZzFn4CJkZS0wyN5-136" value="" style="endArrow=none;html=1;rounded=0;entryX=0.5;entryY=1;entryDx=0;entryDy=0;exitX=0;exitY=0.5;exitDx=0;exitDy=0;" edge="1" parent="1" source="Id1UVdJOZt5HCmLUiaCQ-85" target="K0a8sZzFn4CJkZS0wyN5-134">
          <mxGeometry width="50" height="50" relative="1" as="geometry">
            <mxPoint x="1310" y="1050" as="sourcePoint" />
            <mxPoint x="810" y="-210" as="targetPoint" />
            <Array as="points">
              <mxPoint x="780" y="1060" />
            </Array>
          </mxGeometry>
        </mxCell>
        <mxCell id="K0a8sZzFn4CJkZS0wyN5-134" value="has" style="rhombus;whiteSpace=wrap;html=1;" vertex="1" parent="1">
          <mxGeometry x="740" y="320" width="80" height="80" as="geometry" />
        </mxCell>
        <mxCell id="K0a8sZzFn4CJkZS0wyN5-137" value="" style="endArrow=none;html=1;rounded=0;entryX=0.439;entryY=0.989;entryDx=0;entryDy=0;entryPerimeter=0;exitX=0.5;exitY=0;exitDx=0;exitDy=0;" edge="1" parent="1" source="K0a8sZzFn4CJkZS0wyN5-138" target="Id1UVdJOZt5HCmLUiaCQ-188">
          <mxGeometry width="50" height="50" relative="1" as="geometry">
            <mxPoint x="2920" y="1400" as="sourcePoint" />
            <mxPoint x="2910" y="214.66666666666669" as="targetPoint" />
            <Array as="points" />
          </mxGeometry>
        </mxCell>
        <mxCell id="K0a8sZzFn4CJkZS0wyN5-138" value="publishes" style="rhombus;whiteSpace=wrap;html=1;rotation=0;" vertex="1" parent="1">
          <mxGeometry x="2880" y="680" width="80" height="80" as="geometry" />
        </mxCell>
        <mxCell id="K0a8sZzFn4CJkZS0wyN5-141" value="" style="endArrow=none;html=1;rounded=0;entryX=0.5;entryY=1;entryDx=0;entryDy=0;exitX=0.25;exitY=0;exitDx=0;exitDy=0;" edge="1" parent="1" source="K0a8sZzFn4CJkZS0wyN5-43" target="K0a8sZzFn4CJkZS0wyN5-138">
          <mxGeometry width="50" height="50" relative="1" as="geometry">
            <mxPoint x="2760" y="890" as="sourcePoint" />
            <mxPoint x="2810" y="840" as="targetPoint" />
            <Array as="points">
              <mxPoint x="3010" y="1480" />
              <mxPoint x="2920" y="1480" />
            </Array>
          </mxGeometry>
        </mxCell>
        <mxCell id="K0a8sZzFn4CJkZS0wyN5-142" value="" style="endArrow=none;html=1;rounded=0;entryX=0.5;entryY=1;entryDx=0;entryDy=0;exitX=0.5;exitY=0;exitDx=0;exitDy=0;" edge="1" parent="1" source="K0a8sZzFn4CJkZS0wyN5-143" target="K0a8sZzFn4CJkZS0wyN5-43">
          <mxGeometry width="50" height="50" relative="1" as="geometry">
            <mxPoint x="3530" y="2360" as="sourcePoint" />
            <mxPoint x="3580" y="2310" as="targetPoint" />
          </mxGeometry>
        </mxCell>
        <mxCell id="K0a8sZzFn4CJkZS0wyN5-145" value="" style="endArrow=none;html=1;rounded=0;entryX=0.5;entryY=1;entryDx=0;entryDy=0;exitX=0.25;exitY=0;exitDx=0;exitDy=0;" edge="1" parent="1" source="K0a8sZzFn4CJkZS0wyN5-65" target="K0a8sZzFn4CJkZS0wyN5-143">
          <mxGeometry width="50" height="50" relative="1" as="geometry">
            <mxPoint x="3041" y="2765" as="sourcePoint" />
            <mxPoint x="3040" y="1670" as="targetPoint" />
          </mxGeometry>
        </mxCell>
        <mxCell id="K0a8sZzFn4CJkZS0wyN5-143" value="Manages" style="rhombus;whiteSpace=wrap;html=1;" vertex="1" parent="1">
          <mxGeometry x="3000" y="2375" width="80" height="80" as="geometry" />
        </mxCell>
        <mxCell id="K0a8sZzFn4CJkZS0wyN5-146" value="" style="endArrow=none;html=1;rounded=0;entryX=0.5;entryY=1;entryDx=0;entryDy=0;exitX=0.5;exitY=0;exitDx=0;exitDy=0;" edge="1" parent="1" source="K0a8sZzFn4CJkZS0wyN5-148" target="K0a8sZzFn4CJkZS0wyN5-34">
          <mxGeometry width="50" height="50" relative="1" as="geometry">
            <mxPoint x="-460" y="680" as="sourcePoint" />
            <mxPoint x="60" y="200" as="targetPoint" />
            <Array as="points" />
          </mxGeometry>
        </mxCell>
        <mxCell id="K0a8sZzFn4CJkZS0wyN5-149" value="" style="endArrow=none;html=1;rounded=0;entryX=0.5;entryY=1;entryDx=0;entryDy=0;exitX=0;exitY=0.5;exitDx=0;exitDy=0;" edge="1" parent="1" source="Id1UVdJOZt5HCmLUiaCQ-126" target="K0a8sZzFn4CJkZS0wyN5-148">
          <mxGeometry width="50" height="50" relative="1" as="geometry">
            <mxPoint x="250" y="965" as="sourcePoint" />
            <mxPoint x="-370" y="-35" as="targetPoint" />
            <Array as="points">
              <mxPoint x="-370" y="960" />
            </Array>
          </mxGeometry>
        </mxCell>
        <mxCell id="K0a8sZzFn4CJkZS0wyN5-148" value="provides" style="rhombus;whiteSpace=wrap;html=1;" vertex="1" parent="1">
          <mxGeometry x="-410" y="350" width="80" height="80" as="geometry" />
        </mxCell>
        <mxCell id="K0a8sZzFn4CJkZS0wyN5-151" value="" style="endArrow=none;html=1;rounded=0;entryX=0;entryY=0.5;entryDx=0;entryDy=0;exitX=0.5;exitY=0;exitDx=0;exitDy=0;" edge="1" parent="1" source="K0a8sZzFn4CJkZS0wyN5-152" target="Id1UVdJOZt5HCmLUiaCQ-217">
          <mxGeometry width="50" height="50" relative="1" as="geometry">
            <mxPoint x="2400" y="3000" as="sourcePoint" />
            <mxPoint x="950" y="2730" as="targetPoint" />
            <Array as="points">
              <mxPoint x="2400" y="2130" />
            </Array>
          </mxGeometry>
        </mxCell>
        <mxCell id="K0a8sZzFn4CJkZS0wyN5-153" value="" style="endArrow=none;html=1;rounded=0;exitX=1;exitY=0.75;exitDx=0;exitDy=0;entryX=0.5;entryY=1;entryDx=0;entryDy=0;" edge="1" parent="1" source="_e2x4P_5BLsxtzpZjAKO-2" target="K0a8sZzFn4CJkZS0wyN5-152">
          <mxGeometry width="50" height="50" relative="1" as="geometry">
            <mxPoint x="588" y="3005" as="sourcePoint" />
            <mxPoint x="3870" y="2135" as="targetPoint" />
            <Array as="points">
              <mxPoint x="2400" y="3020" />
            </Array>
          </mxGeometry>
        </mxCell>
        <mxCell id="K0a8sZzFn4CJkZS0wyN5-152" value="has" style="rhombus;whiteSpace=wrap;html=1;" vertex="1" parent="1">
          <mxGeometry x="2360" y="2455" width="80" height="80" as="geometry" />
        </mxCell>
        <mxCell id="ma1lkNGCZDMTtBgCC7WY-1" value="Phone_number" style="ellipse;shape=doubleEllipse;margin=3;whiteSpace=wrap;html=1;align=center;" vertex="1" parent="1">
          <mxGeometry x="1029.38" y="-140" width="120.62" height="50" as="geometry" />
        </mxCell>
        <mxCell id="ma1lkNGCZDMTtBgCC7WY-2" value="email" style="ellipse;shape=doubleEllipse;margin=3;whiteSpace=wrap;html=1;align=center;" vertex="1" parent="1">
          <mxGeometry x="1028.7600000000002" y="-410" width="120.62" height="50" as="geometry" />
        </mxCell>
        <mxCell id="ma1lkNGCZDMTtBgCC7WY-4" value="Lattitude" style="ellipse;whiteSpace=wrap;html=1;" vertex="1" parent="1">
          <mxGeometry x="-230" y="1305" width="120" height="50" as="geometry" />
        </mxCell>
        <mxCell id="ma1lkNGCZDMTtBgCC7WY-5" value="Longitude" style="ellipse;whiteSpace=wrap;html=1;" vertex="1" parent="1">
          <mxGeometry x="-230" y="1385" width="120" height="50" as="geometry" />
        </mxCell>
        <mxCell id="ma1lkNGCZDMTtBgCC7WY-7" value="" style="endArrow=none;html=1;rounded=0;exitX=1;exitY=0.5;exitDx=0;exitDy=0;entryX=0;entryY=0.5;entryDx=0;entryDy=0;" edge="1" parent="1" source="ma1lkNGCZDMTtBgCC7WY-4" target="Id1UVdJOZt5HCmLUiaCQ-128">
          <mxGeometry width="50" height="50" relative="1" as="geometry">
            <mxPoint x="130" y="1250" as="sourcePoint" />
            <mxPoint x="180" y="1200" as="targetPoint" />
          </mxGeometry>
        </mxCell>
        <mxCell id="ma1lkNGCZDMTtBgCC7WY-8" value="" style="endArrow=none;html=1;rounded=0;exitX=1;exitY=0.5;exitDx=0;exitDy=0;entryX=0;entryY=0.5;entryDx=0;entryDy=0;" edge="1" parent="1" source="ma1lkNGCZDMTtBgCC7WY-5" target="Id1UVdJOZt5HCmLUiaCQ-128">
          <mxGeometry width="50" height="50" relative="1" as="geometry">
            <mxPoint x="130" y="1250" as="sourcePoint" />
            <mxPoint x="180" y="1200" as="targetPoint" />
          </mxGeometry>
        </mxCell>
        <mxCell id="ma1lkNGCZDMTtBgCC7WY-9" value="Mobile_Number" style="ellipse;shape=doubleEllipse;margin=3;whiteSpace=wrap;html=1;align=center;" vertex="1" parent="1">
          <mxGeometry x="127.5" y="3160" width="115" height="50" as="geometry" />
        </mxCell>
        <mxCell id="ma1lkNGCZDMTtBgCC7WY-10" value="City" style="ellipse;whiteSpace=wrap;html=1;" vertex="1" parent="1">
          <mxGeometry x="760" y="3310" width="120" height="50" as="geometry" />
        </mxCell>
        <mxCell id="ma1lkNGCZDMTtBgCC7WY-11" value="Pincode" style="ellipse;whiteSpace=wrap;html=1;" vertex="1" parent="1">
          <mxGeometry x="620" y="3310" width="120" height="50" as="geometry" />
        </mxCell>
        <mxCell id="ma1lkNGCZDMTtBgCC7WY-12" value="Street" style="ellipse;whiteSpace=wrap;html=1;" vertex="1" parent="1">
          <mxGeometry x="900" y="3310" width="120" height="50" as="geometry" />
        </mxCell>
        <mxCell id="ma1lkNGCZDMTtBgCC7WY-19" value="" style="endArrow=none;html=1;rounded=0;entryX=0.5;entryY=1;entryDx=0;entryDy=0;exitX=0.5;exitY=0;exitDx=0;exitDy=0;" edge="1" parent="1" source="ma1lkNGCZDMTtBgCC7WY-10" target="_e2x4P_5BLsxtzpZjAKO-9">
          <mxGeometry width="50" height="50" relative="1" as="geometry">
            <mxPoint x="1130" y="3380" as="sourcePoint" />
            <mxPoint x="1180" y="3330" as="targetPoint" />
          </mxGeometry>
        </mxCell>
        <mxCell id="ma1lkNGCZDMTtBgCC7WY-20" value="" style="endArrow=none;html=1;rounded=0;entryX=0.5;entryY=1;entryDx=0;entryDy=0;exitX=1;exitY=0;exitDx=0;exitDy=0;" edge="1" parent="1" source="ma1lkNGCZDMTtBgCC7WY-11" target="_e2x4P_5BLsxtzpZjAKO-9">
          <mxGeometry width="50" height="50" relative="1" as="geometry">
            <mxPoint x="830" y="3320" as="sourcePoint" />
            <mxPoint x="830" y="3255" as="targetPoint" />
          </mxGeometry>
        </mxCell>
        <mxCell id="ma1lkNGCZDMTtBgCC7WY-21" value="" style="endArrow=none;html=1;rounded=0;entryX=0.5;entryY=1;entryDx=0;entryDy=0;exitX=0;exitY=0;exitDx=0;exitDy=0;" edge="1" parent="1" source="ma1lkNGCZDMTtBgCC7WY-12" target="_e2x4P_5BLsxtzpZjAKO-9">
          <mxGeometry width="50" height="50" relative="1" as="geometry">
            <mxPoint x="840" y="3330" as="sourcePoint" />
            <mxPoint x="840" y="3265" as="targetPoint" />
          </mxGeometry>
        </mxCell>
        <mxCell id="ma1lkNGCZDMTtBgCC7WY-22" value="Lattitude" style="ellipse;whiteSpace=wrap;html=1;" vertex="1" parent="1">
          <mxGeometry x="800" y="1700" width="120" height="50" as="geometry" />
        </mxCell>
        <mxCell id="ma1lkNGCZDMTtBgCC7WY-23" value="Longitude" style="ellipse;whiteSpace=wrap;html=1;" vertex="1" parent="1">
          <mxGeometry x="800" y="1815" width="120" height="50" as="geometry" />
        </mxCell>
        <mxCell id="ma1lkNGCZDMTtBgCC7WY-24" value="" style="endArrow=none;html=1;rounded=0;exitX=1;exitY=0.5;exitDx=0;exitDy=0;entryX=0;entryY=0.5;entryDx=0;entryDy=0;" edge="1" parent="1" source="ma1lkNGCZDMTtBgCC7WY-22" target="Id1UVdJOZt5HCmLUiaCQ-160">
          <mxGeometry width="50" height="50" relative="1" as="geometry">
            <mxPoint x="1180" y="1810" as="sourcePoint" />
            <mxPoint x="1230" y="1760" as="targetPoint" />
          </mxGeometry>
        </mxCell>
        <mxCell id="ma1lkNGCZDMTtBgCC7WY-25" value="" style="endArrow=none;html=1;rounded=0;exitX=1;exitY=0.5;exitDx=0;exitDy=0;entryX=0;entryY=0.5;entryDx=0;entryDy=0;" edge="1" parent="1" source="ma1lkNGCZDMTtBgCC7WY-23" target="Id1UVdJOZt5HCmLUiaCQ-160">
          <mxGeometry width="50" height="50" relative="1" as="geometry">
            <mxPoint x="1180" y="1810" as="sourcePoint" />
            <mxPoint x="1230" y="1760" as="targetPoint" />
          </mxGeometry>
        </mxCell>
        <mxCell id="ma1lkNGCZDMTtBgCC7WY-26" value="Lattitude" style="ellipse;whiteSpace=wrap;html=1;" vertex="1" parent="1">
          <mxGeometry x="-350" y="1965" width="120" height="50" as="geometry" />
        </mxCell>
        <mxCell id="ma1lkNGCZDMTtBgCC7WY-27" value="Longitude" style="ellipse;whiteSpace=wrap;html=1;" vertex="1" parent="1">
          <mxGeometry x="-175" y="1965" width="120" height="50" as="geometry" />
        </mxCell>
        <mxCell id="ma1lkNGCZDMTtBgCC7WY-28" value="" style="endArrow=none;html=1;rounded=0;entryX=0.5;entryY=1;entryDx=0;entryDy=0;exitX=0.5;exitY=0;exitDx=0;exitDy=0;" edge="1" parent="1" source="ma1lkNGCZDMTtBgCC7WY-26" target="Id1UVdJOZt5HCmLUiaCQ-117">
          <mxGeometry width="50" height="50" relative="1" as="geometry">
            <mxPoint x="120" y="2000" as="sourcePoint" />
            <mxPoint x="170" y="1950" as="targetPoint" />
          </mxGeometry>
        </mxCell>
        <mxCell id="ma1lkNGCZDMTtBgCC7WY-30" value="" style="endArrow=none;html=1;rounded=0;entryX=0.5;entryY=1;entryDx=0;entryDy=0;exitX=0.5;exitY=0;exitDx=0;exitDy=0;" edge="1" parent="1" source="ma1lkNGCZDMTtBgCC7WY-27" target="Id1UVdJOZt5HCmLUiaCQ-117">
          <mxGeometry width="50" height="50" relative="1" as="geometry">
            <mxPoint x="130" y="2020" as="sourcePoint" />
            <mxPoint x="180" y="1970" as="targetPoint" />
          </mxGeometry>
        </mxCell>
        <mxCell id="ma1lkNGCZDMTtBgCC7WY-31" value="City" style="ellipse;whiteSpace=wrap;html=1;" vertex="1" parent="1">
          <mxGeometry x="468.75" y="-650" width="120" height="50" as="geometry" />
        </mxCell>
        <mxCell id="ma1lkNGCZDMTtBgCC7WY-32" value="Pincode" style="ellipse;whiteSpace=wrap;html=1;" vertex="1" parent="1">
          <mxGeometry x="328.75" y="-650" width="120" height="50" as="geometry" />
        </mxCell>
        <mxCell id="ma1lkNGCZDMTtBgCC7WY-33" value="Street" style="ellipse;whiteSpace=wrap;html=1;" vertex="1" parent="1">
          <mxGeometry x="608.75" y="-650" width="120" height="50" as="geometry" />
        </mxCell>
        <mxCell id="ma1lkNGCZDMTtBgCC7WY-34" value="" style="endArrow=none;html=1;rounded=0;exitX=0.5;exitY=0;exitDx=0;exitDy=0;" edge="1" parent="1" source="Id1UVdJOZt5HCmLUiaCQ-71">
          <mxGeometry width="50" height="50" relative="1" as="geometry">
            <mxPoint x="750" y="-660" as="sourcePoint" />
            <mxPoint x="660" y="-600" as="targetPoint" />
          </mxGeometry>
        </mxCell>
        <mxCell id="ma1lkNGCZDMTtBgCC7WY-35" value="" style="endArrow=none;html=1;rounded=0;exitX=0.5;exitY=0;exitDx=0;exitDy=0;entryX=0.435;entryY=0.989;entryDx=0;entryDy=0;entryPerimeter=0;" edge="1" parent="1" source="Id1UVdJOZt5HCmLUiaCQ-71" target="ma1lkNGCZDMTtBgCC7WY-31">
          <mxGeometry width="50" height="50" relative="1" as="geometry">
            <mxPoint x="750" y="-660" as="sourcePoint" />
            <mxPoint x="800" y="-710" as="targetPoint" />
          </mxGeometry>
        </mxCell>
        <mxCell id="ma1lkNGCZDMTtBgCC7WY-36" value="" style="endArrow=none;html=1;rounded=0;exitX=0.5;exitY=0;exitDx=0;exitDy=0;entryX=0.5;entryY=1;entryDx=0;entryDy=0;" edge="1" parent="1" source="Id1UVdJOZt5HCmLUiaCQ-71" target="ma1lkNGCZDMTtBgCC7WY-32">
          <mxGeometry width="50" height="50" relative="1" as="geometry">
            <mxPoint x="750" y="-660" as="sourcePoint" />
            <mxPoint x="800" y="-710" as="targetPoint" />
          </mxGeometry>
        </mxCell>
        <mxCell id="ma1lkNGCZDMTtBgCC7WY-37" value="City" style="ellipse;whiteSpace=wrap;html=1;" vertex="1" parent="1">
          <mxGeometry x="790" y="1485" width="120" height="50" as="geometry" />
        </mxCell>
        <mxCell id="ma1lkNGCZDMTtBgCC7WY-38" value="Pincode" style="ellipse;whiteSpace=wrap;html=1;" vertex="1" parent="1">
          <mxGeometry x="790" y="1550" width="120" height="50" as="geometry" />
        </mxCell>
        <mxCell id="ma1lkNGCZDMTtBgCC7WY-39" value="Street" style="ellipse;whiteSpace=wrap;html=1;" vertex="1" parent="1">
          <mxGeometry x="790" y="1417.5" width="120" height="50" as="geometry" />
        </mxCell>
        <mxCell id="ma1lkNGCZDMTtBgCC7WY-41" value="" style="endArrow=none;html=1;rounded=0;entryX=1;entryY=0.5;entryDx=0;entryDy=0;exitX=0.5;exitY=0;exitDx=0;exitDy=0;" edge="1" parent="1" source="Id1UVdJOZt5HCmLUiaCQ-159" target="ma1lkNGCZDMTtBgCC7WY-39">
          <mxGeometry width="50" height="50" relative="1" as="geometry">
            <mxPoint x="640" y="1580" as="sourcePoint" />
            <mxPoint x="690" y="1530" as="targetPoint" />
          </mxGeometry>
        </mxCell>
        <mxCell id="ma1lkNGCZDMTtBgCC7WY-42" value="" style="endArrow=none;html=1;rounded=0;entryX=1;entryY=0.5;entryDx=0;entryDy=0;exitX=0.5;exitY=0;exitDx=0;exitDy=0;" edge="1" parent="1" source="Id1UVdJOZt5HCmLUiaCQ-159" target="ma1lkNGCZDMTtBgCC7WY-37">
          <mxGeometry width="50" height="50" relative="1" as="geometry">
            <mxPoint x="640" y="1580" as="sourcePoint" />
            <mxPoint x="690" y="1530" as="targetPoint" />
          </mxGeometry>
        </mxCell>
        <mxCell id="ma1lkNGCZDMTtBgCC7WY-43" value="" style="endArrow=none;html=1;rounded=0;entryX=1;entryY=0.5;entryDx=0;entryDy=0;exitX=0.5;exitY=0;exitDx=0;exitDy=0;" edge="1" parent="1" source="Id1UVdJOZt5HCmLUiaCQ-159" target="ma1lkNGCZDMTtBgCC7WY-38">
          <mxGeometry width="50" height="50" relative="1" as="geometry">
            <mxPoint x="640" y="1580" as="sourcePoint" />
            <mxPoint x="690" y="1530" as="targetPoint" />
          </mxGeometry>
        </mxCell>
        <mxCell id="ma1lkNGCZDMTtBgCC7WY-44" value="Phone_Number" style="ellipse;shape=doubleEllipse;margin=3;whiteSpace=wrap;html=1;align=center;" vertex="1" parent="1">
          <mxGeometry x="4630" y="975" width="120" height="50" as="geometry" />
        </mxCell>
        <mxCell id="ma1lkNGCZDMTtBgCC7WY-45" value="1" style="text;html=1;align=center;verticalAlign=middle;resizable=0;points=[];autosize=1;strokeColor=none;fillColor=none;" vertex="1" parent="1">
          <mxGeometry x="305" y="1265" width="30" height="30" as="geometry" />
        </mxCell>
        <mxCell id="ma1lkNGCZDMTtBgCC7WY-46" value="N" style="text;html=1;align=center;verticalAlign=middle;resizable=0;points=[];autosize=1;strokeColor=none;fillColor=none;" vertex="1" parent="1">
          <mxGeometry x="305" y="1355" width="30" height="30" as="geometry" />
        </mxCell>
        <mxCell id="ma1lkNGCZDMTtBgCC7WY-47" value="1" style="text;html=1;align=center;verticalAlign=middle;resizable=0;points=[];autosize=1;strokeColor=none;fillColor=none;" vertex="1" parent="1">
          <mxGeometry x="305" y="1888" width="30" height="30" as="geometry" />
        </mxCell>
        <mxCell id="ma1lkNGCZDMTtBgCC7WY-48" value="N" style="text;html=1;align=center;verticalAlign=middle;resizable=0;points=[];autosize=1;strokeColor=none;fillColor=none;" vertex="1" parent="1">
          <mxGeometry x="305" y="1988" width="30" height="30" as="geometry" />
        </mxCell>
        <mxCell id="ma1lkNGCZDMTtBgCC7WY-49" value="1" style="text;html=1;align=center;verticalAlign=middle;resizable=0;points=[];autosize=1;strokeColor=none;fillColor=none;" vertex="1" parent="1">
          <mxGeometry x="-605" y="2028" width="30" height="30" as="geometry" />
        </mxCell>
        <mxCell id="ma1lkNGCZDMTtBgCC7WY-52" value="N" style="text;html=1;align=center;verticalAlign=middle;resizable=0;points=[];autosize=1;strokeColor=none;fillColor=none;" vertex="1" parent="1">
          <mxGeometry x="-605" y="1940" width="30" height="30" as="geometry" />
        </mxCell>
        <mxCell id="ma1lkNGCZDMTtBgCC7WY-53" value="1" style="text;html=1;align=center;verticalAlign=middle;resizable=0;points=[];autosize=1;strokeColor=none;fillColor=none;" vertex="1" parent="1">
          <mxGeometry x="-255" y="1598" width="30" height="30" as="geometry" />
        </mxCell>
        <mxCell id="ma1lkNGCZDMTtBgCC7WY-54" value="1" style="text;html=1;align=center;verticalAlign=middle;resizable=0;points=[];autosize=1;strokeColor=none;fillColor=none;" vertex="1" parent="1">
          <mxGeometry x="-335" y="1598" width="30" height="30" as="geometry" />
        </mxCell>
        <mxCell id="ma1lkNGCZDMTtBgCC7WY-55" value="1" style="text;html=1;align=center;verticalAlign=middle;resizable=0;points=[];autosize=1;strokeColor=none;fillColor=none;" vertex="1" parent="1">
          <mxGeometry x="-325" y="1008" width="30" height="30" as="geometry" />
        </mxCell>
        <mxCell id="ma1lkNGCZDMTtBgCC7WY-56" value="N" style="text;html=1;align=center;verticalAlign=middle;resizable=0;points=[];autosize=1;strokeColor=none;fillColor=none;" vertex="1" parent="1">
          <mxGeometry x="-325" y="1098" width="30" height="30" as="geometry" />
        </mxCell>
        <mxCell id="ma1lkNGCZDMTtBgCC7WY-57" value="1" style="text;html=1;align=center;verticalAlign=middle;resizable=0;points=[];autosize=1;strokeColor=none;fillColor=none;" vertex="1" parent="1">
          <mxGeometry x="-425" y="918" width="30" height="30" as="geometry" />
        </mxCell>
        <mxCell id="ma1lkNGCZDMTtBgCC7WY-58" value="N" style="text;html=1;align=center;verticalAlign=middle;resizable=0;points=[];autosize=1;strokeColor=none;fillColor=none;" vertex="1" parent="1">
          <mxGeometry x="-505" y="918" width="30" height="30" as="geometry" />
        </mxCell>
        <mxCell id="ma1lkNGCZDMTtBgCC7WY-59" value="1" style="text;html=1;align=center;verticalAlign=middle;resizable=0;points=[];autosize=1;strokeColor=none;fillColor=none;" vertex="1" parent="1">
          <mxGeometry x="-365" y="408" width="30" height="30" as="geometry" />
        </mxCell>
        <mxCell id="ma1lkNGCZDMTtBgCC7WY-60" value="N" style="text;html=1;align=center;verticalAlign=middle;resizable=0;points=[];autosize=1;strokeColor=none;fillColor=none;" vertex="1" parent="1">
          <mxGeometry x="-365" y="328" width="30" height="30" as="geometry" />
        </mxCell>
        <mxCell id="ma1lkNGCZDMTtBgCC7WY-61" value="1" style="text;html=1;align=center;verticalAlign=middle;resizable=0;points=[];autosize=1;strokeColor=none;fillColor=none;" vertex="1" parent="1">
          <mxGeometry x="285" y="128" width="30" height="30" as="geometry" />
        </mxCell>
        <mxCell id="ma1lkNGCZDMTtBgCC7WY-62" value="1" style="text;html=1;align=center;verticalAlign=middle;resizable=0;points=[];autosize=1;strokeColor=none;fillColor=none;" vertex="1" parent="1">
          <mxGeometry x="285" y="38" width="30" height="30" as="geometry" />
        </mxCell>
        <mxCell id="ma1lkNGCZDMTtBgCC7WY-63" value="1" style="text;html=1;align=center;verticalAlign=middle;resizable=0;points=[];autosize=1;strokeColor=none;fillColor=none;" vertex="1" parent="1">
          <mxGeometry x="340" y="600" width="30" height="30" as="geometry" />
        </mxCell>
        <mxCell id="ma1lkNGCZDMTtBgCC7WY-64" value="N" style="text;html=1;align=center;verticalAlign=middle;resizable=0;points=[];autosize=1;strokeColor=none;fillColor=none;" vertex="1" parent="1">
          <mxGeometry x="340" y="510" width="30" height="30" as="geometry" />
        </mxCell>
        <mxCell id="ma1lkNGCZDMTtBgCC7WY-66" value="1" style="text;html=1;align=center;verticalAlign=middle;resizable=0;points=[];autosize=1;strokeColor=none;fillColor=none;" vertex="1" parent="1">
          <mxGeometry x="1365" y="1848" width="30" height="30" as="geometry" />
        </mxCell>
        <mxCell id="ma1lkNGCZDMTtBgCC7WY-67" value="N" style="text;html=1;align=center;verticalAlign=middle;resizable=0;points=[];autosize=1;strokeColor=none;fillColor=none;" vertex="1" parent="1">
          <mxGeometry x="1365" y="1938" width="30" height="30" as="geometry" />
        </mxCell>
        <mxCell id="ma1lkNGCZDMTtBgCC7WY-68" value="1" style="text;html=1;align=center;verticalAlign=middle;resizable=0;points=[];autosize=1;strokeColor=none;fillColor=none;" vertex="1" parent="1">
          <mxGeometry x="1545" y="1608" width="30" height="30" as="geometry" />
        </mxCell>
        <mxCell id="ma1lkNGCZDMTtBgCC7WY-69" value="N" style="text;html=1;align=center;verticalAlign=middle;resizable=0;points=[];autosize=1;strokeColor=none;fillColor=none;" vertex="1" parent="1">
          <mxGeometry x="1635" y="1608" width="30" height="30" as="geometry" />
        </mxCell>
        <mxCell id="ma1lkNGCZDMTtBgCC7WY-70" value="1" style="text;html=1;align=center;verticalAlign=middle;resizable=0;points=[];autosize=1;strokeColor=none;fillColor=none;" vertex="1" parent="1">
          <mxGeometry x="2495" y="1638" width="30" height="30" as="geometry" />
        </mxCell>
        <mxCell id="ma1lkNGCZDMTtBgCC7WY-71" value="N" style="text;html=1;align=center;verticalAlign=middle;resizable=0;points=[];autosize=1;strokeColor=none;fillColor=none;" vertex="1" parent="1">
          <mxGeometry x="2405" y="1638" width="30" height="30" as="geometry" />
        </mxCell>
        <mxCell id="ma1lkNGCZDMTtBgCC7WY-73" value="1" style="text;html=1;align=center;verticalAlign=middle;resizable=0;points=[];autosize=1;strokeColor=none;fillColor=none;" vertex="1" parent="1">
          <mxGeometry x="1875" y="1858" width="30" height="30" as="geometry" />
        </mxCell>
        <mxCell id="ma1lkNGCZDMTtBgCC7WY-75" value="N" style="text;html=1;align=center;verticalAlign=middle;resizable=0;points=[];autosize=1;strokeColor=none;fillColor=none;" vertex="1" parent="1">
          <mxGeometry x="1875" y="1958" width="30" height="30" as="geometry" />
        </mxCell>
        <mxCell id="ma1lkNGCZDMTtBgCC7WY-76" value="1" style="text;html=1;align=center;verticalAlign=middle;resizable=0;points=[];autosize=1;strokeColor=none;fillColor=none;" vertex="1" parent="1">
          <mxGeometry x="775" y="388" width="30" height="30" as="geometry" />
        </mxCell>
        <mxCell id="ma1lkNGCZDMTtBgCC7WY-77" value="1" style="text;html=1;align=center;verticalAlign=middle;resizable=0;points=[];autosize=1;strokeColor=none;fillColor=none;" vertex="1" parent="1">
          <mxGeometry x="775" y="298" width="30" height="30" as="geometry" />
        </mxCell>
        <mxCell id="ma1lkNGCZDMTtBgCC7WY-78" value="1" style="text;html=1;align=center;verticalAlign=middle;resizable=0;points=[];autosize=1;strokeColor=none;fillColor=none;" vertex="1" parent="1">
          <mxGeometry x="2085" y="1208" width="30" height="30" as="geometry" />
        </mxCell>
        <mxCell id="ma1lkNGCZDMTtBgCC7WY-79" value="1" style="text;html=1;align=center;verticalAlign=middle;resizable=0;points=[];autosize=1;strokeColor=none;fillColor=none;" vertex="1" parent="1">
          <mxGeometry x="2015" y="1208" width="30" height="30" as="geometry" />
        </mxCell>
        <mxCell id="ma1lkNGCZDMTtBgCC7WY-80" value="1" style="text;html=1;align=center;verticalAlign=middle;resizable=0;points=[];autosize=1;strokeColor=none;fillColor=none;" vertex="1" parent="1">
          <mxGeometry x="3035" y="1208" width="30" height="30" as="geometry" />
        </mxCell>
        <mxCell id="ma1lkNGCZDMTtBgCC7WY-81" value="N" style="text;html=1;align=center;verticalAlign=middle;resizable=0;points=[];autosize=1;strokeColor=none;fillColor=none;" vertex="1" parent="1">
          <mxGeometry x="3035" y="1298" width="30" height="30" as="geometry" />
        </mxCell>
        <mxCell id="ma1lkNGCZDMTtBgCC7WY-82" value="1" style="text;html=1;align=center;verticalAlign=middle;resizable=0;points=[];autosize=1;strokeColor=none;fillColor=none;" vertex="1" parent="1">
          <mxGeometry x="3395" y="1638" width="30" height="30" as="geometry" />
        </mxCell>
        <mxCell id="ma1lkNGCZDMTtBgCC7WY-83" value="1" style="text;html=1;align=center;verticalAlign=middle;resizable=0;points=[];autosize=1;strokeColor=none;fillColor=none;" vertex="1" parent="1">
          <mxGeometry x="3475" y="1638" width="30" height="30" as="geometry" />
        </mxCell>
        <mxCell id="ma1lkNGCZDMTtBgCC7WY-84" value="1" style="text;html=1;align=center;verticalAlign=middle;resizable=0;points=[];autosize=1;strokeColor=none;fillColor=none;" vertex="1" parent="1">
          <mxGeometry x="3955" y="1848" width="30" height="30" as="geometry" />
        </mxCell>
        <mxCell id="ma1lkNGCZDMTtBgCC7WY-85" value="N" style="text;html=1;align=center;verticalAlign=middle;resizable=0;points=[];autosize=1;strokeColor=none;fillColor=none;" vertex="1" parent="1">
          <mxGeometry x="3955" y="1938" width="30" height="30" as="geometry" />
        </mxCell>
        <mxCell id="ma1lkNGCZDMTtBgCC7WY-86" value="1" style="text;html=1;align=center;verticalAlign=middle;resizable=0;points=[];autosize=1;strokeColor=none;fillColor=none;" vertex="1" parent="1">
          <mxGeometry x="3035" y="2348" width="30" height="30" as="geometry" />
        </mxCell>
        <mxCell id="ma1lkNGCZDMTtBgCC7WY-87" value="N" style="text;html=1;align=center;verticalAlign=middle;resizable=0;points=[];autosize=1;strokeColor=none;fillColor=none;" vertex="1" parent="1">
          <mxGeometry x="3035" y="2448" width="30" height="30" as="geometry" />
        </mxCell>
        <mxCell id="ma1lkNGCZDMTtBgCC7WY-88" value="1" style="text;html=1;align=center;verticalAlign=middle;resizable=0;points=[];autosize=1;strokeColor=none;fillColor=none;" vertex="1" parent="1">
          <mxGeometry x="3575" y="1138" width="30" height="30" as="geometry" />
        </mxCell>
        <mxCell id="ma1lkNGCZDMTtBgCC7WY-89" value="N" style="text;html=1;align=center;verticalAlign=middle;resizable=0;points=[];autosize=1;strokeColor=none;fillColor=none;" vertex="1" parent="1">
          <mxGeometry x="3670" y="1135" width="30" height="30" as="geometry" />
        </mxCell>
        <mxCell id="ma1lkNGCZDMTtBgCC7WY-90" value="1" style="text;html=1;align=center;verticalAlign=middle;resizable=0;points=[];autosize=1;strokeColor=none;fillColor=none;" vertex="1" parent="1">
          <mxGeometry x="2635" y="2178" width="30" height="30" as="geometry" />
        </mxCell>
        <mxCell id="ma1lkNGCZDMTtBgCC7WY-91" value="N" style="text;html=1;align=center;verticalAlign=middle;resizable=0;points=[];autosize=1;strokeColor=none;fillColor=none;" vertex="1" parent="1">
          <mxGeometry x="2555" y="2178" width="30" height="30" as="geometry" />
        </mxCell>
        <mxCell id="ma1lkNGCZDMTtBgCC7WY-92" value="Last_Name" style="ellipse;whiteSpace=wrap;html=1;" vertex="1" parent="1">
          <mxGeometry x="-80" y="2695" width="120" height="50" as="geometry" />
        </mxCell>
        <mxCell id="ma1lkNGCZDMTtBgCC7WY-93" value="Last_Name" style="ellipse;whiteSpace=wrap;html=1;" vertex="1" parent="1">
          <mxGeometry x="-80" y="2800" width="120" height="50" as="geometry" />
        </mxCell>
        <mxCell id="ma1lkNGCZDMTtBgCC7WY-95" value="" style="endArrow=none;html=1;rounded=0;entryX=1;entryY=0.5;entryDx=0;entryDy=0;exitX=0;exitY=0.5;exitDx=0;exitDy=0;" edge="1" parent="1" source="_e2x4P_5BLsxtzpZjAKO-11" target="ma1lkNGCZDMTtBgCC7WY-92">
          <mxGeometry width="50" height="50" relative="1" as="geometry">
            <mxPoint x="420" y="2810" as="sourcePoint" />
            <mxPoint x="470" y="2760" as="targetPoint" />
          </mxGeometry>
        </mxCell>
        <mxCell id="ma1lkNGCZDMTtBgCC7WY-96" value="" style="endArrow=none;html=1;rounded=0;exitX=1;exitY=0.5;exitDx=0;exitDy=0;entryX=0;entryY=0.5;entryDx=0;entryDy=0;" edge="1" parent="1" source="ma1lkNGCZDMTtBgCC7WY-93" target="_e2x4P_5BLsxtzpZjAKO-11">
          <mxGeometry width="50" height="50" relative="1" as="geometry">
            <mxPoint x="420" y="2810" as="sourcePoint" />
            <mxPoint x="470" y="2760" as="targetPoint" />
          </mxGeometry>
        </mxCell>
        <mxCell id="ma1lkNGCZDMTtBgCC7WY-98" value="Lake_Name" style="ellipse;whiteSpace=wrap;html=1;" vertex="1" parent="1">
          <mxGeometry x="1130" y="1110" width="120" height="50" as="geometry" />
        </mxCell>
        <mxCell id="ma1lkNGCZDMTtBgCC7WY-100" value="&lt;u&gt;&lt;b&gt;Lake_ID&lt;/b&gt;&lt;/u&gt;" style="ellipse;whiteSpace=wrap;html=1;" vertex="1" parent="1">
          <mxGeometry x="1490" y="940" width="120" height="50" as="geometry" />
        </mxCell>
        <mxCell id="ma1lkNGCZDMTtBgCC7WY-101" value="Depth" style="ellipse;whiteSpace=wrap;html=1;" vertex="1" parent="1">
          <mxGeometry x="1500" y="1100" width="120" height="50" as="geometry" />
        </mxCell>
        <mxCell id="ma1lkNGCZDMTtBgCC7WY-103" value="" style="endArrow=none;html=1;rounded=0;exitX=1;exitY=0.5;exitDx=0;exitDy=0;entryX=0;entryY=1;entryDx=0;entryDy=0;" edge="1" parent="1" source="ma1lkNGCZDMTtBgCC7WY-98" target="Id1UVdJOZt5HCmLUiaCQ-85">
          <mxGeometry width="50" height="50" relative="1" as="geometry">
            <mxPoint x="1350" y="1060" as="sourcePoint" />
            <mxPoint x="1400" y="1010" as="targetPoint" />
          </mxGeometry>
        </mxCell>
        <mxCell id="ma1lkNGCZDMTtBgCC7WY-104" value="" style="endArrow=none;html=1;rounded=0;entryX=0;entryY=0.5;entryDx=0;entryDy=0;exitX=1;exitY=1;exitDx=0;exitDy=0;" edge="1" parent="1" source="Id1UVdJOZt5HCmLUiaCQ-85" target="ma1lkNGCZDMTtBgCC7WY-101">
          <mxGeometry width="50" height="50" relative="1" as="geometry">
            <mxPoint x="1350" y="1060" as="sourcePoint" />
            <mxPoint x="1400" y="1010" as="targetPoint" />
          </mxGeometry>
        </mxCell>
        <mxCell id="ma1lkNGCZDMTtBgCC7WY-105" value="" style="endArrow=none;html=1;rounded=0;entryX=0;entryY=0.5;entryDx=0;entryDy=0;exitX=1;exitY=0;exitDx=0;exitDy=0;" edge="1" parent="1" source="Id1UVdJOZt5HCmLUiaCQ-85" target="ma1lkNGCZDMTtBgCC7WY-100">
          <mxGeometry width="50" height="50" relative="1" as="geometry">
            <mxPoint x="1350" y="1060" as="sourcePoint" />
            <mxPoint x="1400" y="1010" as="targetPoint" />
          </mxGeometry>
        </mxCell>
        <mxCell id="ma1lkNGCZDMTtBgCC7WY-106" value="Description" style="ellipse;whiteSpace=wrap;html=1;" vertex="1" parent="1">
          <mxGeometry x="1515" y="66" width="120" height="50" as="geometry" />
        </mxCell>
        <mxCell id="ma1lkNGCZDMTtBgCC7WY-108" value="&lt;u&gt;&lt;b&gt;County_ID&lt;/b&gt;&lt;/u&gt;" style="ellipse;whiteSpace=wrap;html=1;" vertex="1" parent="1">
          <mxGeometry x="1125" y="26" width="120" height="50" as="geometry" />
        </mxCell>
        <mxCell id="ma1lkNGCZDMTtBgCC7WY-109" value="County_Name" style="ellipse;whiteSpace=wrap;html=1;" vertex="1" parent="1">
          <mxGeometry x="1125" y="101" width="120" height="50" as="geometry" />
        </mxCell>
        <mxCell id="ma1lkNGCZDMTtBgCC7WY-110" value="Population" style="ellipse;whiteSpace=wrap;html=1;" vertex="1" parent="1">
          <mxGeometry x="1125" y="248" width="120" height="50" as="geometry" />
        </mxCell>
        <mxCell id="ma1lkNGCZDMTtBgCC7WY-111" value="Area" style="ellipse;whiteSpace=wrap;html=1;" vertex="1" parent="1">
          <mxGeometry x="1515" y="248" width="120" height="50" as="geometry" />
        </mxCell>
        <mxCell id="ma1lkNGCZDMTtBgCC7WY-112" value="" style="endArrow=none;html=1;rounded=0;entryX=1;entryY=1;entryDx=0;entryDy=0;exitX=0;exitY=0.5;exitDx=0;exitDy=0;" edge="1" parent="1" source="ma1lkNGCZDMTtBgCC7WY-111" target="K0a8sZzFn4CJkZS0wyN5-84">
          <mxGeometry width="50" height="50" relative="1" as="geometry">
            <mxPoint x="1575" y="258" as="sourcePoint" />
            <mxPoint x="1625" y="208" as="targetPoint" />
          </mxGeometry>
        </mxCell>
        <mxCell id="ma1lkNGCZDMTtBgCC7WY-113" value="" style="endArrow=none;html=1;rounded=0;entryX=0.987;entryY=0.372;entryDx=0;entryDy=0;entryPerimeter=0;exitX=0;exitY=1;exitDx=0;exitDy=0;" edge="1" parent="1" source="K0a8sZzFn4CJkZS0wyN5-84" target="ma1lkNGCZDMTtBgCC7WY-110">
          <mxGeometry width="50" height="50" relative="1" as="geometry">
            <mxPoint x="1575" y="258" as="sourcePoint" />
            <mxPoint x="1625" y="208" as="targetPoint" />
          </mxGeometry>
        </mxCell>
        <mxCell id="ma1lkNGCZDMTtBgCC7WY-114" value="" style="endArrow=none;html=1;rounded=0;entryX=1;entryY=0.5;entryDx=0;entryDy=0;exitX=0;exitY=0;exitDx=0;exitDy=0;" edge="1" parent="1" source="K0a8sZzFn4CJkZS0wyN5-84" target="ma1lkNGCZDMTtBgCC7WY-109">
          <mxGeometry width="50" height="50" relative="1" as="geometry">
            <mxPoint x="1575" y="258" as="sourcePoint" />
            <mxPoint x="1625" y="208" as="targetPoint" />
          </mxGeometry>
        </mxCell>
        <mxCell id="ma1lkNGCZDMTtBgCC7WY-115" value="" style="endArrow=none;html=1;rounded=0;entryX=1;entryY=0.5;entryDx=0;entryDy=0;exitX=0;exitY=0;exitDx=0;exitDy=0;" edge="1" parent="1" source="K0a8sZzFn4CJkZS0wyN5-84" target="ma1lkNGCZDMTtBgCC7WY-108">
          <mxGeometry width="50" height="50" relative="1" as="geometry">
            <mxPoint x="1495" y="188" as="sourcePoint" />
            <mxPoint x="1545" y="138" as="targetPoint" />
          </mxGeometry>
        </mxCell>
        <mxCell id="ma1lkNGCZDMTtBgCC7WY-117" value="" style="endArrow=none;html=1;rounded=0;entryX=0;entryY=0.5;entryDx=0;entryDy=0;exitX=1;exitY=0;exitDx=0;exitDy=0;" edge="1" parent="1" source="K0a8sZzFn4CJkZS0wyN5-84" target="ma1lkNGCZDMTtBgCC7WY-106">
          <mxGeometry width="50" height="50" relative="1" as="geometry">
            <mxPoint x="1525" y="283" as="sourcePoint" />
            <mxPoint x="1445" y="238" as="targetPoint" />
          </mxGeometry>
        </mxCell>
        <mxCell id="M-rDhr7oDcNYeE7Rfrh2-1" value="1" style="text;html=1;align=center;verticalAlign=middle;resizable=0;points=[];autosize=1;strokeColor=none;fillColor=none;" vertex="1" parent="1">
          <mxGeometry x="1375" y="1358" width="30" height="30" as="geometry" />
        </mxCell>
        <mxCell id="M-rDhr7oDcNYeE7Rfrh2-2" value="N" style="text;html=1;align=center;verticalAlign=middle;resizable=0;points=[];autosize=1;strokeColor=none;fillColor=none;" vertex="1" parent="1">
          <mxGeometry x="1375" y="1258" width="30" height="30" as="geometry" />
        </mxCell>
        <mxCell id="M-rDhr7oDcNYeE7Rfrh2-4" value="" style="endArrow=none;html=1;rounded=0;entryX=0.5;entryY=1;entryDx=0;entryDy=0;exitX=0.5;exitY=0;exitDx=0;exitDy=0;" edge="1" parent="1" source="K0a8sZzFn4CJkZS0wyN5-84" target="M-rDhr7oDcNYeE7Rfrh2-3">
          <mxGeometry width="50" height="50" relative="1" as="geometry">
            <mxPoint x="1370" y="510" as="sourcePoint" />
            <mxPoint x="1370" y="-880" as="targetPoint" />
          </mxGeometry>
        </mxCell>
        <mxCell id="M-rDhr7oDcNYeE7Rfrh2-3" value="has" style="rhombus;whiteSpace=wrap;html=1;" vertex="1" parent="1">
          <mxGeometry x="1330" y="-370" width="80" height="80" as="geometry" />
        </mxCell>
        <mxCell id="M-rDhr7oDcNYeE7Rfrh2-8" value="" style="endArrow=none;html=1;rounded=0;entryX=0.5;entryY=1;entryDx=0;entryDy=0;exitX=0.5;exitY=0;exitDx=0;exitDy=0;" edge="1" parent="1" source="Id1UVdJOZt5HCmLUiaCQ-80" target="M-rDhr7oDcNYeE7Rfrh2-7">
          <mxGeometry width="50" height="50" relative="1" as="geometry">
            <mxPoint x="1370" y="730" as="sourcePoint" />
            <mxPoint x="1370" y="228" as="targetPoint" />
          </mxGeometry>
        </mxCell>
        <mxCell id="M-rDhr7oDcNYeE7Rfrh2-7" value="has" style="rhombus;whiteSpace=wrap;html=1;" vertex="1" parent="1">
          <mxGeometry x="1330" y="500" width="80" height="80" as="geometry" />
        </mxCell>
        <mxCell id="M-rDhr7oDcNYeE7Rfrh2-10" value="" style="endArrow=none;html=1;rounded=0;exitX=1;exitY=0.5;exitDx=0;exitDy=0;" edge="1" parent="1" source="jGGrnLb9hiP0VOmM0GP6-5">
          <mxGeometry width="50" height="50" relative="1" as="geometry">
            <mxPoint x="370" y="965" as="sourcePoint" />
            <mxPoint x="1370" y="820" as="targetPoint" />
          </mxGeometry>
        </mxCell>
        <mxCell id="M-rDhr7oDcNYeE7Rfrh2-14" value="" style="endArrow=none;html=1;rounded=0;exitX=0.5;exitY=0;exitDx=0;exitDy=0;" edge="1" parent="1" source="jGGrnLb9hiP0VOmM0GP6-7">
          <mxGeometry width="50" height="50" relative="1" as="geometry">
            <mxPoint x="3040" y="1025" as="sourcePoint" />
            <mxPoint x="1370" y="820" as="targetPoint" />
          </mxGeometry>
        </mxCell>
        <mxCell id="M-rDhr7oDcNYeE7Rfrh2-19" value="1" style="text;html=1;align=center;verticalAlign=middle;resizable=0;points=[];autosize=1;strokeColor=none;fillColor=none;" vertex="1" parent="1">
          <mxGeometry x="3955" y="2510" width="30" height="30" as="geometry" />
        </mxCell>
        <mxCell id="M-rDhr7oDcNYeE7Rfrh2-20" value="N" style="text;html=1;align=center;verticalAlign=middle;resizable=0;points=[];autosize=1;strokeColor=none;fillColor=none;" vertex="1" parent="1">
          <mxGeometry x="3955" y="2418" width="30" height="30" as="geometry" />
        </mxCell>
        <mxCell id="M-rDhr7oDcNYeE7Rfrh2-24" value="Resource_Name" style="ellipse;whiteSpace=wrap;html=1;" vertex="1" parent="1">
          <mxGeometry x="1485" y="600" width="120" height="50" as="geometry" />
        </mxCell>
        <mxCell id="M-rDhr7oDcNYeE7Rfrh2-25" value="Resource_Type" style="ellipse;whiteSpace=wrap;html=1;" vertex="1" parent="1">
          <mxGeometry x="1490" y="680" width="120" height="50" as="geometry" />
        </mxCell>
        <mxCell id="M-rDhr7oDcNYeE7Rfrh2-26" value="&lt;u&gt;&lt;b&gt;Resource_ID&lt;/b&gt;&lt;/u&gt;" style="ellipse;whiteSpace=wrap;html=1;" vertex="1" parent="1">
          <mxGeometry x="1150" y="600" width="120" height="50" as="geometry" />
        </mxCell>
        <mxCell id="M-rDhr7oDcNYeE7Rfrh2-27" value="" style="endArrow=none;html=1;rounded=0;entryX=0;entryY=0.5;entryDx=0;entryDy=0;exitX=1;exitY=0;exitDx=0;exitDy=0;" edge="1" parent="1" source="Id1UVdJOZt5HCmLUiaCQ-80" target="M-rDhr7oDcNYeE7Rfrh2-24">
          <mxGeometry width="50" height="50" relative="1" as="geometry">
            <mxPoint x="1320" y="670" as="sourcePoint" />
            <mxPoint x="1370" y="620" as="targetPoint" />
          </mxGeometry>
        </mxCell>
        <mxCell id="M-rDhr7oDcNYeE7Rfrh2-28" value="" style="endArrow=none;html=1;rounded=0;entryX=0;entryY=0.5;entryDx=0;entryDy=0;exitX=1;exitY=0;exitDx=0;exitDy=0;" edge="1" parent="1" source="Id1UVdJOZt5HCmLUiaCQ-80" target="M-rDhr7oDcNYeE7Rfrh2-25">
          <mxGeometry width="50" height="50" relative="1" as="geometry">
            <mxPoint x="1320" y="670" as="sourcePoint" />
            <mxPoint x="1370" y="620" as="targetPoint" />
          </mxGeometry>
        </mxCell>
        <mxCell id="M-rDhr7oDcNYeE7Rfrh2-29" value="" style="endArrow=none;html=1;rounded=0;entryX=1;entryY=0.5;entryDx=0;entryDy=0;exitX=0;exitY=0;exitDx=0;exitDy=0;" edge="1" parent="1" source="Id1UVdJOZt5HCmLUiaCQ-80" target="M-rDhr7oDcNYeE7Rfrh2-26">
          <mxGeometry width="50" height="50" relative="1" as="geometry">
            <mxPoint x="1320" y="670" as="sourcePoint" />
            <mxPoint x="1370" y="620" as="targetPoint" />
          </mxGeometry>
        </mxCell>
        <mxCell id="M-rDhr7oDcNYeE7Rfrh2-30" value="&lt;b&gt;&lt;u&gt;Burn_ID&lt;/u&gt;&lt;/b&gt;" style="ellipse;whiteSpace=wrap;html=1;" vertex="1" parent="1">
          <mxGeometry x="1755" y="40" width="120" height="50" as="geometry" />
        </mxCell>
        <mxCell id="M-rDhr7oDcNYeE7Rfrh2-31" value="" style="endArrow=none;html=1;rounded=0;entryX=1;entryY=0.5;entryDx=0;entryDy=0;exitX=0;exitY=0;exitDx=0;exitDy=0;" edge="1" parent="1" source="K0a8sZzFn4CJkZS0wyN5-21" target="M-rDhr7oDcNYeE7Rfrh2-30">
          <mxGeometry width="50" height="50" relative="1" as="geometry">
            <mxPoint x="1410" y="280" as="sourcePoint" />
            <mxPoint x="1460" y="230" as="targetPoint" />
          </mxGeometry>
        </mxCell>
        <mxCell id="jGGrnLb9hiP0VOmM0GP6-1" value="has" style="rhombus;whiteSpace=wrap;html=1;" vertex="1" parent="1">
          <mxGeometry x="1330" y="868" width="80" height="80" as="geometry" />
        </mxCell>
        <mxCell id="jGGrnLb9hiP0VOmM0GP6-2" value="1" style="text;html=1;align=center;verticalAlign=middle;resizable=0;points=[];autosize=1;strokeColor=none;fillColor=none;" vertex="1" parent="1">
          <mxGeometry x="1365" y="938" width="30" height="30" as="geometry" />
        </mxCell>
        <mxCell id="jGGrnLb9hiP0VOmM0GP6-3" value="N" style="text;html=1;align=center;verticalAlign=middle;resizable=0;points=[];autosize=1;strokeColor=none;fillColor=none;" vertex="1" parent="1">
          <mxGeometry x="1365" y="848" width="30" height="30" as="geometry" />
        </mxCell>
        <mxCell id="jGGrnLb9hiP0VOmM0GP6-6" value="" style="endArrow=none;html=1;rounded=0;exitX=1;exitY=0.5;exitDx=0;exitDy=0;" edge="1" parent="1" source="Id1UVdJOZt5HCmLUiaCQ-126" target="jGGrnLb9hiP0VOmM0GP6-5">
          <mxGeometry width="50" height="50" relative="1" as="geometry">
            <mxPoint x="370" y="965" as="sourcePoint" />
            <mxPoint x="1370" y="820" as="targetPoint" />
          </mxGeometry>
        </mxCell>
        <mxCell id="jGGrnLb9hiP0VOmM0GP6-5" value="has" style="rhombus;whiteSpace=wrap;html=1;rotation=-15;" vertex="1" parent="1">
          <mxGeometry x="949.38" y="830" width="80" height="80" as="geometry" />
        </mxCell>
        <mxCell id="jGGrnLb9hiP0VOmM0GP6-12" value="" style="endArrow=none;html=1;rounded=0;exitX=0.5;exitY=0;exitDx=0;exitDy=0;" edge="1" parent="1" source="Id1UVdJOZt5HCmLUiaCQ-87" target="jGGrnLb9hiP0VOmM0GP6-7">
          <mxGeometry width="50" height="50" relative="1" as="geometry">
            <mxPoint x="3040" y="1025" as="sourcePoint" />
            <mxPoint x="1370" y="820" as="targetPoint" />
          </mxGeometry>
        </mxCell>
        <mxCell id="jGGrnLb9hiP0VOmM0GP6-7" value="has" style="rhombus;whiteSpace=wrap;html=1;rotation=-60;" vertex="1" parent="1">
          <mxGeometry x="2025" y="860" width="80" height="80" as="geometry" />
        </mxCell>
        <mxCell id="jGGrnLb9hiP0VOmM0GP6-13" value="1" style="text;html=1;align=center;verticalAlign=middle;resizable=0;points=[];autosize=1;strokeColor=none;fillColor=none;" vertex="1" parent="1">
          <mxGeometry x="2025" y="848" width="30" height="30" as="geometry" />
        </mxCell>
        <mxCell id="jGGrnLb9hiP0VOmM0GP6-14" value="N" style="text;html=1;align=center;verticalAlign=middle;resizable=0;points=[];autosize=1;strokeColor=none;fillColor=none;" vertex="1" parent="1">
          <mxGeometry x="2095" y="868" width="30" height="30" as="geometry" />
        </mxCell>
        <mxCell id="jGGrnLb9hiP0VOmM0GP6-15" value="1" style="text;html=1;align=center;verticalAlign=middle;resizable=0;points=[];autosize=1;strokeColor=none;fillColor=none;" vertex="1" parent="1">
          <mxGeometry x="1015" y="828" width="30" height="30" as="geometry" />
        </mxCell>
        <mxCell id="jGGrnLb9hiP0VOmM0GP6-16" value="N" style="text;html=1;align=center;verticalAlign=middle;resizable=0;points=[];autosize=1;strokeColor=none;fillColor=none;" vertex="1" parent="1">
          <mxGeometry x="925" y="848" width="30" height="30" as="geometry" />
        </mxCell>
        <mxCell id="jGGrnLb9hiP0VOmM0GP6-17" value="1" style="text;html=1;align=center;verticalAlign=middle;resizable=0;points=[];autosize=1;strokeColor=none;fillColor=none;" vertex="1" parent="1">
          <mxGeometry x="1365" y="478" width="30" height="30" as="geometry" />
        </mxCell>
        <mxCell id="jGGrnLb9hiP0VOmM0GP6-18" value="N" style="text;html=1;align=center;verticalAlign=middle;resizable=0;points=[];autosize=1;strokeColor=none;fillColor=none;" vertex="1" parent="1">
          <mxGeometry x="1365" y="568" width="30" height="30" as="geometry" />
        </mxCell>
        <mxCell id="jGGrnLb9hiP0VOmM0GP6-19" value="1" style="text;html=1;align=center;verticalAlign=middle;resizable=0;points=[];autosize=1;strokeColor=none;fillColor=none;" vertex="1" parent="1">
          <mxGeometry x="1365" y="-392" width="30" height="30" as="geometry" />
        </mxCell>
        <mxCell id="jGGrnLb9hiP0VOmM0GP6-20" value="N" style="text;html=1;align=center;verticalAlign=middle;resizable=0;points=[];autosize=1;strokeColor=none;fillColor=none;" vertex="1" parent="1">
          <mxGeometry x="1365" y="-302" width="30" height="30" as="geometry" />
        </mxCell>
        <mxCell id="jGGrnLb9hiP0VOmM0GP6-21" value="1" style="text;html=1;align=center;verticalAlign=middle;resizable=0;points=[];autosize=1;strokeColor=none;fillColor=none;" vertex="1" parent="1">
          <mxGeometry x="2925" y="658" width="30" height="30" as="geometry" />
        </mxCell>
        <mxCell id="jGGrnLb9hiP0VOmM0GP6-22" value="N" style="text;html=1;align=center;verticalAlign=middle;resizable=0;points=[];autosize=1;strokeColor=none;fillColor=none;" vertex="1" parent="1">
          <mxGeometry x="2925" y="758" width="30" height="30" as="geometry" />
        </mxCell>
        <mxCell id="jGGrnLb9hiP0VOmM0GP6-23" value="1" style="text;html=1;align=center;verticalAlign=middle;resizable=0;points=[];autosize=1;strokeColor=none;fillColor=none;" vertex="1" parent="1">
          <mxGeometry x="1635" y="168" width="30" height="30" as="geometry" />
        </mxCell>
        <mxCell id="jGGrnLb9hiP0VOmM0GP6-24" value="N" style="text;html=1;align=center;verticalAlign=middle;resizable=0;points=[];autosize=1;strokeColor=none;fillColor=none;" vertex="1" parent="1">
          <mxGeometry x="1715" y="168" width="30" height="30" as="geometry" />
        </mxCell>
      </root>
    </mxGraphModel>
  </diagram>
</mxfile>
